<svg width="100%" height="100%" viewBox="0 0 16 16" fill="none" xmlns="http://www.w3.org/2000/svg">
<path fill-rule="evenodd" clip-rule="evenodd" d="M8.94219 11.2362C8.74757 11.4316 8.74788 11.7476 8.94287 11.9426L9.64645 12.6462C9.84171 12.8415 10.1583 12.8415 10.3536 12.6462L14.6464 8.35331C14.8417 8.15805 14.8417 7.84146 14.6464 7.6462L10.3536 3.35331C10.1583 3.15805 9.84171 3.15805 9.64645 3.35331L8.94287 4.05689C8.74788 4.25188 8.74757 4.56794 8.94219 4.76331L11.17 6.99976H1.5C1.22386 6.99976 1 7.22361 1 7.49976V8.49976C1 8.7759 1.22386 8.99976 1.5 8.99976H11.17L8.94219 11.2362Z" fill="white"/>
</svg>
