<svg width="100%" height="100%" viewBox="0 0 64 64" fill="none" xmlns="http://www.w3.org/2000/svg">
<rect x="1.5" y="1.5" width="61" height="61" rx="30.5" fill="white" fill-opacity="0.1"/>
<path d="M31.5 35.4375C36.5741 35.4375 40.6875 31.3241 40.6875 26.25C40.6875 21.1759 36.5741 17.0625 31.5 17.0625C26.4259 17.0625 22.3125 21.1759 22.3125 26.25C22.3125 31.3241 26.4259 35.4375 31.5 35.4375Z" fill="white"/>
<path d="M31.5 55.125C40.1985 55.125 48.5625 49.875 48.5625 47.25C48.5625 44.625 40.1985 39.375 31.5 39.375C22.8015 39.375 14.4375 44.625 14.4375 47.25C14.4375 49.875 22.8015 55.125 31.5 55.125Z" fill="white"/>
<rect x="1.5" y="1.5" width="61" height="61" rx="30.5" stroke="#875AC0" stroke-width="3"/>
</svg>
