<svg width="100%" height="100%" viewBox="0 0 170 170" fill="none" xmlns="http://www.w3.org/2000/svg">
<path d="M85 170C131.944 170 170 131.944 170 85C170 38.0558 131.944 0 85 0C38.0558 0 0 38.0558 0 85C0 131.944 38.0558 170 85 170Z" fill="#03143D"/>
<path d="M10.1729 92.0591C12.373 90.8468 19.5586 89.7889 26.4553 88.9268C35.6149 74.6487 55.6582 47.7895 62.016 43.8023C59.7261 41.1533 55.5469 35.2741 60.669 31.0058C64.71 27.6385 68.8857 28.9853 74.8125 34.508L88.4172 34.1039C88.5968 32.3977 89.387 28.9854 91.1112 28.9854C93.2664 28.9854 96.3645 30.3324 95.9604 34.508C99.5524 35.1366 107.114 36.8249 108.622 38.549C110.131 40.2732 112.035 42.7696 112.798 43.8023C113.337 43.937 114.576 44.4758 115.222 45.5534C116.031 46.9004 118.321 49.7291 118.321 50.8067C118.321 51.6688 117.782 52.9619 117.512 53.5007C120.7 56.06 126.995 61.9599 126.672 65.0849C126.349 68.2099 123.304 72.673 121.823 74.5139L121.015 75.4568C121.284 76.6242 121.823 79.2284 121.823 80.306C121.823 81.653 119.129 90.9473 107.275 86.6369L103.638 84.2123C102.201 84.2572 99.3548 83.889 99.4626 82.0571C98.3325 82.9161 97.234 83.5065 95.9305 83.9815C89.0136 85.2937 85.5783 85.4823 81.9534 87.1814C83.7572 87.1577 87.7597 87.4366 90.27 87.5932L92.3313 87.6952C90.0474 90.1767 89.9406 92.2625 89.2255 95.1231C88.4509 98.2213 94.0746 104.013 94.344 128.394C94.6134 152.774 94.114 157.976 92.767 159.996C36.8129 167.919 7.74828 113.207 10.1729 92.0591Z" fill="url(#paint0_linear_6041_96894)"/>
<path d="M81.9548 87.1764C81.865 86.3682 82.799 84.395 84.8464 82.5631C81.7932 83.1019 78.7741 84.7453 76.0249 87.1764C76.0698 86.0988 76.3163 84.7453 76.8946 83.5395L72.2681 86.4802C72.5824 86.0761 73.7139 84.0511 73.7139 82.8658C72.322 83.3597 70.9984 83.4863 70.2441 84.4561L70.0981 81.6537C69.1103 82.3272 67.027 84.0244 66.5959 85.4253C66.8653 84.3926 67.5658 82.0309 68.2123 80.8455C66.0571 75.4575 63.0938 63.3344 63.4978 57.9465C57.8611 78.134 64.8179 111.422 93.8053 120.043L93.9431 119.139C93.1173 108.753 91.2378 103.027 90.0938 99.5421C89.3976 97.4214 88.9738 96.1304 89.2255 95.1237C90.1022 91.617 90.722 89.6389 92.2694 87.5128C89.8307 87.0362 83.2679 86.722 81.9548 87.1764Z" fill="url(#paint1_linear_6041_96894)"/>
<path d="M92.5689 160.788C65.0375 164.057 42.9789 149.682 35.2284 141.378C41.5026 146.176 63.351 145.489 68.7025 142.352C74.054 139.215 86.2333 120.761 89.0014 125.006C91.2158 128.401 93.3687 141.06 94.1683 146.965C94.0207 151.837 92.8764 158.82 92.5689 160.788Z" fill="url(#paint2_linear_6041_96894)"/>
<path d="M100.812 56.5433C99.9259 56.1743 99.6951 53.1645 99.5106 52.3648C102.832 52.3648 101.171 48.1205 103.109 49.32C105.047 50.5195 105.047 56.2401 107.169 57.7164C108.866 58.8974 111.999 62.1255 113.383 63.7863C114.663 66.4506 120.111 73.3206 121.249 73.8435C120.881 74.4938 118.158 78.6414 110.315 80.6252C106.896 82.5976 104.921 84.0269 102.795 84.0391C98.4331 84.0641 98.8552 74.6671 98.8647 71.4642C98.8741 68.2613 103.118 64.1093 103.764 62.3562C104.41 60.6031 101.919 57.0046 100.812 56.5433Z" fill="url(#paint3_linear_6041_96894)"/>
<path d="M118.994 67.6443C118.024 66.89 117.038 67.748 116.589 68.3766L113.337 63.738C113.606 64.2319 114.118 65.57 114.01 66.9708C113.903 68.3717 113.067 68.6321 112.663 68.5872C113.112 69.126 114.495 70.3383 116.435 70.8771C118.375 71.4159 119.847 73.7956 120.341 74.9181C120.811 74.7892 121.48 74.6277 123.035 72.5517C125.822 68.8328 125.332 68.3766 125.655 66.3698C125.251 67.0882 124.005 68.8027 123.035 69.6648C121.823 70.7425 120.207 68.5872 118.994 67.6443Z" fill="#03143D"/>
<path fill-rule="evenodd" clip-rule="evenodd" d="M121.15 75.5389L120.142 74.5303C118.149 77.04 111.376 79.8818 108.239 80.989C106.947 82.0039 108.239 82.5575 108.977 82.1884C109.715 81.8194 118.481 78.3132 119.588 78.8668C120.075 79.1104 120.957 80.0723 121.815 81.1138C121.884 80.8159 121.915 80.5822 121.915 80.4387C121.915 79.3611 121.376 76.7569 121.107 75.5895L121.15 75.5389Z" fill="#03143D"/>
<path d="M66.1918 43.5331C67.5927 41.8089 71.0859 39.1329 72.6574 38.0104C69.9634 38.0104 62.6896 34.2388 63.0937 35.4511C63.417 36.4209 64.3958 37.5614 64.8448 38.0104H64.0366L66.7306 40.3003C65.9763 40.9469 66.0571 42.7249 66.1918 43.5331Z" fill="#03143D"/>
<path d="M64.2078 129.436C61.1193 115.405 49.7422 105.328 43.055 93.0725C41.1505 89.5824 39.7746 85.9526 38.6663 82.143C38.4761 81.4891 37.3329 81.58 37.4248 82.3108C38.2958 89.2413 42.0143 97.844 46.0047 103.415C50.1635 109.221 55.0258 112.441 58.7231 118.567C60.8031 122.014 62.5771 125.703 63.7044 129.574C63.7987 129.898 64.2797 129.762 64.2078 129.436Z" fill="#EFDBA4"/>
<path d="M74.4532 35.462L88.6323 34.9066C88.7755 33.5462 89.4061 29.1398 91.1112 29.1398C94.3731 29.1398 96.0796 32.6222 95.8291 35.2105C96.3235 35.2971 96.8978 35.3848 97.5249 35.4805C101.084 36.0241 106.345 36.8275 108.378 39.1509C109.303 40.2081 110.017 41.3094 110.742 42.4279C111.216 43.1588 111.695 43.897 112.241 44.635C114.1 45.0999 117.177 48.7194 117.378 50.8098L117.378 50.8085L117.378 50.8067C117.378 51.7195 116.941 52.5681 116.525 53.3757C116.458 53.5047 116.392 53.6327 116.329 53.7597L116.922 54.236C118.487 55.4924 120.815 57.5705 122.702 59.7052C123.647 60.7739 124.458 61.831 125.008 62.7869C125.577 63.7754 125.783 64.5121 125.734 64.9879C125.717 65.1482 125.702 65.3168 125.686 65.4923C125.564 66.804 125.406 68.5024 124.547 70.0144C123.402 72.0295 121.802 73.6589 119.989 75.2048L120.096 75.6688C120.228 76.2407 120.427 77.1685 120.592 78.0828C120.762 79.0236 120.88 79.8641 120.88 80.306C120.88 80.4599 120.765 81.1567 120.354 82.0894C119.956 82.9918 119.319 84.0263 118.361 84.8943C116.524 86.5589 113.301 87.7948 107.703 85.7889L103.91 83.2604L103.609 83.2699C102.959 83.2902 102.017 83.2124 101.29 82.9512C100.928 82.821 100.689 82.6699 100.554 82.5269C99.2636 81.5552 97.8814 82.1569 95.8979 83.9919L99.0135 83.567C99.4473 84.1454 100.366 84.623 100.652 84.7259C101.554 85.0497 102.587 85.1542 103.358 85.1585C112.391 92.297 124.847 88.4905 122.038 75.7114C124.47 72.8711 127.214 69.0078 127.61 65.182C127.722 64.0953 127.262 62.9226 126.643 61.846C126.004 60.7368 125.102 59.573 124.115 58.4562C122.357 56.4669 120.253 54.5448 118.668 53.2273C118.75 53.0258 118.834 52.8053 118.911 52.5768C119.088 52.0536 119.263 51.396 119.263 50.8067C118.158 47.9624 116.635 45.5173 113.371 42.9927C112.511 41.8404 110.755 39.5543 109.332 37.9282C108.799 37.3192 107.86 36.8221 106.878 36.4094C105.851 35.978 104.612 35.5738 103.33 35.2105C101.121 34.5847 98.7233 34.0636 96.9388 33.7277C96.9128 30.4451 94.3745 28.0425 91.1112 28.0425C88.6859 28.0425 87.8351 31.8851 87.5251 33.7277L74.9305 34.2027C70.7486 30.3634 64.9177 25.5856 59.7064 29.9283C55.1771 33.7025 57.5588 39.0862 60.6752 42.9927C46.0679 57.3907 33.6408 75.2048 25.9007 88.046C25.738 88.0495 25.5764 88.053 25.4158 88.0563C20.1922 88.1667 16.025 88.2547 9.87573 91.0688L10.5098 93.4951C14.7288 91.1704 21.4024 89.9211 27.0437 89.9211L27.2489 89.4359C31.8109 82.3247 39.0951 72.063 46.0325 63.0819C47.1306 61.6603 48.2733 60.0647 49.4646 58.4011C53.3578 52.9647 57.7702 46.8031 62.8435 43.6215C60.0896 40.4357 57.2066 35.1185 61.2726 31.7302C65.7612 27.9899 70.7154 31.9791 74.1697 35.1979L74.4532 35.462Z" fill="#EFDBA4"/>
<path d="M92.5417 87.6086L92.257 87.5096C90.2203 89.8253 89.5201 91.3332 88.7602 94.373C87.9249 97.714 89.1102 100.925 89.9792 104.085C91.2995 108.886 93.2673 116.291 93.4011 128.404C93.5359 140.604 93.569 147.682 93.4018 151.963C93.2323 156.301 91.9711 159.626 91.4647 160.386L93.9553 160.046C94.7959 158.785 95.1189 156.319 95.2862 152.037C95.4557 147.697 95.4214 140.565 95.2868 128.383C94.5383 113.993 92.6694 107.577 91.4547 103.407C89.998 98.4061 88.2717 92.0496 92.5417 87.6086Z" fill="#EFDBA4"/>
<path d="M67.1491 116.75C64.6473 111.232 61.6025 104.808 58.6139 99.5365C53.8734 91.175 48.812 83.7556 46.8268 74.306C46.7209 73.8022 45.9458 73.9437 46.0378 74.4536C48.5766 88.5287 55.7535 101.077 63.3119 113.013C64.2268 114.457 65.1055 116.052 66.2241 117.346C66.6373 117.825 67.4106 117.326 67.1491 116.75Z" fill="#EFDBA4"/>
<path d="M89.3811 122.575C88.0606 125.462 86.3126 128.058 84.2538 130.469C82.1731 132.905 79.4116 135.228 77.4179 137.739C73.3369 142.878 70.8749 148.731 69.3703 155.12C69.2854 155.481 69.8184 155.629 69.926 155.273C71.874 148.838 76.1131 143.622 80.4628 138.477C84.3177 133.917 88.3602 128.796 90.1806 122.912C90.3239 122.448 89.59 122.118 89.3811 122.575Z" fill="#EFDBA4"/>
<path d="M49.1219 127.845C47.2658 125.366 45.1447 123.056 43.1179 120.715C41.0338 118.308 38.949 115.902 36.8532 113.506C33.2567 109.393 26.7947 104.282 26.0485 98.571C25.6201 95.2933 26.5341 91.8922 27.4653 88.7744C27.5936 88.3445 26.1863 88.0917 26.0485 88.5139C25.1399 91.2984 24.2359 94.7307 24.2295 97.6945C24.2179 103.118 30.5876 109.722 33.8253 113.506C38.2058 118.625 43.4695 123.723 48.25 128.517C48.6796 128.948 49.5097 128.363 49.1219 127.845Z" fill="#EFDBA4"/>
<path d="M27.9414 116.244C26.9211 112.568 25.1107 109.47 24.0913 105.768C23.0502 101.987 22.3471 98.0198 23.128 94.1781C23.1978 93.8351 22.684 93.6866 22.5986 94.0322C21.6715 97.7829 20.7752 102.286 21.6923 106.045C22.6538 109.984 25.7464 112.813 27.3569 116.49C27.5043 116.827 28.0361 116.585 27.9414 116.244Z" fill="#EFDBA4"/>
<path d="M81.1996 78.1505C80.3859 76.4962 79.9417 75.6732 78.8692 74.4944C78.0461 73.5898 77.1611 72.7454 76.2227 71.961C75.8035 71.6105 75.3718 71.2771 74.9383 70.9446C74.1987 70.3772 74.2084 69.8705 74.244 68.9864C74.477 63.2024 75.0959 57.2865 74.7399 51.5029C74.7399 50.0846 74.7121 49.6406 74.4353 51.5029C73.5574 57.4094 72.0958 63.0267 71.8396 68.9864C71.7846 70.2653 72.2479 72.0007 73.2697 72.7825C76.4197 75.1926 77.4715 74.4944 80.363 77.4948C80.781 77.9286 81.4704 78.8053 81.1996 78.1505Z" fill="#EFDBA4"/>
<path d="M82.2209 52.8105C82.3116 52.4107 82.1014 51.9223 81.6639 51.8304C80.3061 51.5449 78.7361 50.1189 77.7606 49.1573C77.2557 48.6596 77.7901 49.9307 78.2095 50.4584C79.0531 51.5201 79.3309 52.3197 80.4795 52.9719C79.5154 55.8859 79.1652 59.1224 79.0892 62.1598C79.0073 65.4332 80.1742 68.7435 81.2305 71.856C81.5027 72.6581 81.4977 72.3757 81.375 71.5668C80.8981 68.4221 80.7112 65.3505 80.7853 62.1598C80.8599 58.9466 81.5141 55.9272 82.2209 52.8105Z" fill="#EFDBA4"/>
<path d="M83.5439 37.1577C79.7005 40.5152 74.7286 42.8976 71.0094 46.3938C69.4315 47.8771 68.526 49.8929 68.0083 52.0222C67.4434 54.3455 67.7341 56.73 68.0083 59.0996C68.0559 59.5105 68.0593 59.4221 68.0741 58.9889C68.1513 56.7273 68.9522 54.509 69.5617 52.323C70.1989 50.0371 72.2674 48.5071 73.9619 46.9475C77.4552 43.732 80.3593 40.5791 83.7536 37.2609C84.2443 36.7812 84.0511 36.7146 83.5439 37.1577Z" fill="#EFDBA4"/>
<path d="M100.518 56.9803C100.448 55.3441 99.5682 53.1406 98.4365 51.943C98.2765 51.7736 97.9168 51.6074 97.703 51.5068C96.3694 50.8793 94.6984 51.5773 93.3088 51.1635C91.0642 50.448 90.6878 46.4653 90.6286 47.4613C90.5252 49.2008 90.5496 51.6 92.185 52.5811C93.0783 53.117 94.2439 53.164 95.2596 53.2046C95.7802 53.2254 96.8887 52.6621 97.2204 53.1662C97.4849 53.5683 97.1841 53.5078 96.8218 53.5214C96.4792 53.5343 96.1445 53.4556 95.8078 53.4067C95.0316 53.2938 94.6958 54.1277 95.3318 54.7752C95.7324 55.1831 96.6651 55.5979 97.4425 55.439C99.3454 55.05 98.4906 55.1557 99.6923 57.2602C99.9254 57.6685 100.536 57.4052 100.518 56.9803Z" fill="#031642"/>
<path d="M98.0552 53.8791C98.0552 54.3635 97.3752 54.3637 96.9367 54.3059C96.4981 54.2481 95.76 53.879 95.76 53.3946C95.76 52.9103 95.9451 52.0552 96.9367 52.5519C97.9283 53.0487 98.0552 53.6022 98.0552 53.8791Z" fill="#EFDBA4"/>
<path d="M115.021 53.3141C113.397 54.5689 109.116 53.8369 107.178 53.3141C107.855 53.8984 109.706 55.1041 111.699 55.2517C114.19 55.4362 117.051 51.7455 115.021 53.3141Z" fill="#EFDBA4"/>
<path d="M97.2593 56.728C95.8937 56.8387 94.2913 55.5131 93.6608 54.8365C92.4613 54.2829 93.8915 57.1432 94.8603 57.4661C95.8291 57.7891 98.4126 57.6968 98.9662 57.1432C99.5198 56.5896 98.9662 56.5896 97.2593 56.728Z" fill="#031642"/>
<path d="M102.919 51.4924C102.34 53.0828 101.328 51.0587 96.1235 51.2033L99.4488 54.6731C101.993 54.3261 102.919 54.9623 102.919 51.4924Z" fill="#031642"/>
<path d="M115.352 53.3718C116.74 52.5621 117.473 51.1067 117.665 50.4802C117.665 51.4923 117.665 53.3718 117.376 53.6609C117.087 53.9501 113.617 54.3838 115.352 53.3718Z" fill="#031642"/>
<path d="M91.3524 44.1189C92.7018 43.3478 95.7245 42.8004 98.5813 44.1189C102.119 45.7516 108.346 46.3599 109.79 45.4619C109.87 45.3957 109.941 45.3331 110.003 45.2755C109.952 45.3436 109.88 45.4057 109.79 45.4619C108.932 46.1708 107.058 47.2995 104.943 47.2995C102.051 47.2995 95.6897 44.1189 91.3524 44.1189Z" fill="#EFDBA4"/>
<path d="M90.7742 75.926L112.75 72.8899C120.731 72.8899 116.846 75.3959 113.907 76.6489L98.2908 83.5671L108.991 77.5164L93.0874 81.8537L108.413 76.3598L92.0754 79.1067L108.991 74.6248L90.7742 75.926Z" fill="#EFDBA4"/>
<path d="M132.123 72.7452L124.357 71.8777C122.87 73.5319 120.646 75.454 121.569 76.6487L130.625 81.7056L125.537 76.289L131.397 78.3971L125.718 75.1862L131.715 75.7779L125.537 73.5319L132.123 72.7452Z" fill="#EFDBA4"/>
<path d="M56.5093 83.2995C58.8226 88.0417 58.7307 85.5074 58.2443 84.167C51.7383 66.2395 63.1355 49.5886 62.437 48.89C62.0033 48.4563 61.5695 48.601 57.8105 55.5406C52.0418 66.1904 53.6178 77.3718 56.5093 83.2995Z" fill="#EFDBA4"/>
<path d="M105.953 43.2299C108.267 43.3456 110.098 41.9287 110.724 41.2058L111.592 43.2299C110.001 44.6757 103.062 43.0853 105.953 43.2299Z" fill="#EFDBA4"/>
<path fill-rule="evenodd" clip-rule="evenodd" d="M84.9999 160.197C126.53 160.197 160.197 126.53 160.197 85C160.197 43.4699 126.53 9.80306 84.9999 9.80306C43.4697 9.80306 9.80294 43.4699 9.80294 85C9.80294 126.53 43.4697 160.197 84.9999 160.197ZM161.85 85C161.85 127.443 127.443 161.85 84.9999 161.85C42.5567 161.85 8.14978 127.443 8.14978 85C8.14978 42.5569 42.5567 8.1499 84.9999 8.1499C127.443 8.1499 161.85 42.5569 161.85 85Z" fill="#EFDBA4"/>
<path fill-rule="evenodd" clip-rule="evenodd" d="M84.9974 165.158C129.269 165.158 165.158 129.269 165.158 84.9974C165.158 40.7258 129.269 4.83662 84.9974 4.83662C40.7258 4.83662 4.83662 40.7258 4.83662 84.9974C4.83662 129.269 40.7258 165.158 84.9974 165.158ZM167.817 84.9974C167.817 130.737 130.737 167.817 84.9974 167.817C39.2576 167.817 2.17822 130.737 2.17822 84.9974C2.17822 39.2576 39.2576 2.17822 84.9974 2.17822C130.737 2.17822 167.817 39.2576 167.817 84.9974Z" fill="#EFDBA4"/>
<path d="M119.533 138.528C116.4 138.86 113.345 139.517 110.744 141.363C110.662 141.278 110.578 141.194 110.498 141.108C110.36 140.959 110.129 141.138 110.25 141.305C110.325 141.409 110.402 141.51 110.48 141.611C110.414 141.796 110.586 142.005 110.794 142.009C112.407 143.986 114.507 145.575 116.865 146.56C117.69 146.905 119.632 147.906 120.43 147.125C121.133 146.437 120.285 145.294 119.446 145.867C119.391 145.905 119.349 145.953 119.317 146.007C119.061 145.964 118.78 145.869 118.606 145.83C118.161 145.731 117.721 145.608 117.287 145.467C116.452 145.193 115.646 144.84 114.854 144.46C113.519 143.82 112.282 142.87 111.203 141.823C113.62 140.396 116.509 139.996 119.263 139.745C121.787 139.516 124.483 139.134 126.712 140.609C127.2 140.932 127.876 140.313 127.453 139.834C125.548 137.675 122.069 138.26 119.533 138.528Z" fill="#EFDBA4"/>
<path d="M124.393 142.388C124.344 142.289 124.259 142.198 124.134 142.134C123.047 141.57 121.454 141.563 120.257 141.536C118.935 141.505 117.657 141.679 116.38 142.007C116.308 142.026 116.257 142.064 116.225 142.111C116.181 142.09 116.136 142.068 116.091 142.046C115.904 141.954 115.692 142.232 115.844 142.383C116.745 143.279 117.773 143.942 118.936 144.459C119.545 144.73 120.17 144.961 120.808 145.15C121.28 145.29 121.873 145.542 122.368 145.423C122.475 145.397 122.566 145.352 122.641 145.293C123.379 145.255 124.082 145.095 124.763 144.76C124.797 144.743 124.827 144.721 124.856 144.699C125.016 144.647 125.138 144.504 125.183 144.338C125.201 144.322 125.219 144.306 125.235 144.288C125.35 144.272 125.458 144.18 125.462 144.06C125.485 143.404 124.949 142.711 124.393 142.388Z" fill="#EFDBA4"/>
<path d="M150.436 99.9307C150.41 99.8543 150.228 99.3799 150.217 99.2811C150.189 99.0203 149.723 99.0629 149.777 99.3199C151.564 107.909 139.156 107.663 136.62 113.14C135.31 110.008 133.641 107.081 131.56 104.444C131.463 104.322 131.301 104.35 131.203 104.44C131.092 104.28 130.89 104.193 130.672 104.305C128.671 105.333 126.963 107.207 125.533 108.969C124.68 110.019 123.903 111.137 123.206 112.308C122.667 111.418 121.966 110.6 121.317 109.836C120.407 108.764 119.46 107.724 118.443 106.764C118.411 106.734 118.379 106.705 118.347 106.675C118.556 106.164 118.712 105.612 118.891 105.105C119.158 104.346 119.419 103.589 119.727 102.847C120.377 101.282 121.153 99.771 122.037 98.3368C123.68 95.6732 125.722 93.2688 128.026 91.2164C130.046 93.5441 131.921 96.0405 133.464 98.7472C134.246 100.12 134.976 101.523 135.614 102.979C136.267 104.468 136.733 106.061 137.424 107.526C137.658 108.022 138.371 107.733 138.285 107.199C138.029 105.597 137.337 104.01 136.696 102.547C136.024 101.011 135.267 99.5091 134.402 98.0852C132.729 95.3306 130.779 92.8133 128.459 90.6424C128.43 90.5436 128.344 90.4613 128.24 90.4396C127.989 90.2545 127.651 90.4835 127.692 90.7506C125.198 92.7248 123.055 95.1028 121.296 97.8207C120.405 99.197 119.626 100.646 118.958 102.153C118.452 103.294 117.814 104.653 117.561 105.968C115.973 104.595 114.228 103.426 112.296 102.649C109.941 101.702 107.535 101.642 105.034 101.745C103.793 101.796 102.551 101.85 101.313 101.751C100.678 101.7 100.05 101.614 99.4371 101.434C98.792 101.246 98.1875 100.858 97.536 100.724C97.5307 100.723 97.526 100.724 97.5208 100.723C97.3033 100.631 96.9728 100.815 97.0007 101.149C97.3156 104.91 98.4236 108.532 100.255 111.757C101.15 113.334 102.189 114.817 103.41 116.129C104.288 117.074 105.272 118.076 106.363 118.821C105.049 119.121 103.783 119.733 102.652 120.561C101.435 121.452 100.358 122.563 99.45 123.795C98.5361 125.035 97.417 126.527 96.951 128.029C96.8303 128.418 97.3122 128.815 97.6112 128.487C97.6471 128.447 97.6799 128.404 97.7149 128.364C97.7469 128.362 97.781 128.354 97.8169 128.338C101.817 126.559 105.098 130.826 108.552 132.053C110.369 132.699 112.329 132.721 114.223 132.436C115.297 132.274 116.357 132.012 117.404 131.703C118.363 131.421 119.435 131.114 120.281 130.54C120.537 130.367 120.533 129.818 120.148 129.846C120.094 129.85 120.041 129.857 119.988 129.863C119.97 129.694 119.683 121.786 122.78 115.595C123.796 113.563 124.941 111.599 126.35 109.842C127.795 108.04 129.539 106.655 131.15 105.046C131.196 105 131.229 104.95 131.252 104.898C133.175 108.007 134.877 111.304 136.17 114.764C136.838 116.553 137.377 118.388 137.829 120.254C138.28 122.118 138.514 124.035 139.011 125.884C139.109 126.249 139.66 126.246 139.675 125.826C139.745 123.904 139.337 121.997 138.907 120.147C138.462 118.236 137.866 116.358 137.176 114.533C137.084 114.291 136.99 114.05 136.895 113.811C138.414 110.668 141.999 109.567 144.84 108.181C146.81 107.22 149.18 105.565 149.983 103.286C150 103.268 150.015 103.247 150.022 103.219C150.031 103.18 150.038 103.14 150.046 103.101C150.203 102.79 150.304 100.197 150.809 102.735C151.788 106.851 150.892 111.379 148.852 115.042C146.662 118.977 143.404 121.73 140.124 124.6C139.813 124.872 140.162 125.427 140.518 125.212C148.089 120.651 155.364 110.4 150.436 99.9307ZM121.762 115.074C119.787 119.461 118.897 124.31 119.44 129.107C119.441 129.116 119.444 129.124 119.445 129.132C119.435 129.403 119.43 129.676 119.436 129.946C118.674 130.097 117.923 130.372 117.185 130.592C116.139 130.903 115.08 131.171 114.006 131.336C111.752 131.683 109.505 131.471 107.478 130.366C104.864 128.942 101.558 126.019 98.4447 127.391C98.9402 126.647 99.3834 125.846 99.9069 125.139C100.762 123.984 101.701 122.877 102.786 121.957C104.877 120.183 107.715 119.11 110.37 119.719C110.791 119.816 111.02 119.186 110.595 119.034C109.656 118.699 108.694 118.574 107.742 118.625C106.59 117.457 105.292 116.467 104.198 115.219C103.056 113.916 102.001 112.516 101.116 111.005C99.4697 108.197 98.3368 105.063 97.817 101.798C98.4823 102.268 99.3858 102.51 100.096 102.67C101.253 102.93 102.431 102.975 103.613 102.969C106.16 102.954 108.685 102.776 111.136 103.614C113.605 104.458 115.8 106.029 117.689 107.868C118.657 108.811 119.558 109.825 120.433 110.865C121.13 111.692 121.815 112.606 122.624 113.331C122.317 113.901 122.028 114.482 121.762 115.074Z" fill="#EFDBA4"/>
<path d="M135.71 131.923C133.239 131.057 130.398 131.491 127.88 132.043C125.152 132.64 122.512 133.601 119.834 134.406C114.895 135.892 109.127 136.794 104.657 133.587C104.458 133.444 104.269 133.76 104.45 133.913C108.484 137.338 113.927 136.952 118.721 135.686C121.468 134.961 124.146 133.963 126.897 133.259C128.25 132.913 129.623 132.634 131.008 132.498C132.539 132.347 134.067 132.46 135.596 132.514C135.918 132.525 136.021 132.032 135.71 131.923Z" fill="#EFDBA4"/>
<path d="M116.707 122.961C116.739 122.8 116.515 122.711 116.472 122.878C116.457 122.934 116.444 122.991 116.43 123.047C115.799 122.659 115.06 122.432 114.386 122.129C113.646 121.795 112.899 121.465 112.112 121.267C110.963 120.978 109.758 120.957 108.589 121.176C106.203 121.624 104.013 123.099 102.691 125.255C102.617 125.375 102.784 125.49 102.864 125.375C104.315 123.316 106.508 121.962 108.908 121.61C110.099 121.435 111.309 121.536 112.449 121.914C113.723 122.336 114.995 123.3 116.327 123.451C116.329 123.451 116.33 123.45 116.332 123.45C116.053 124.662 115.885 125.889 115.803 127.136C115.779 127.502 115.871 128.042 115.634 128.342C115.47 128.551 114.955 128.604 114.693 128.67C113.979 128.85 113.239 128.872 112.516 128.786C111.079 128.614 109.743 127.959 108.544 127.148C107.741 126.604 107.027 125.91 106.127 125.588C106.911 124.966 107.83 124.629 108.795 124.405C109.837 124.162 111.13 123.812 112.163 124.172C112.94 124.442 113.381 125.085 113.348 125.96C113.342 126.142 113.286 126.9 113.191 126.989C113.004 127.167 112.757 127.006 112.538 126.942C111.485 126.633 110.428 126.337 109.372 126.038C110.187 125.493 111.128 125.327 112.084 125.561C112.324 125.62 112.45 125.232 112.21 125.177C110.995 124.899 109.808 125.18 108.803 125.973C108.686 126.065 108.735 126.274 108.866 126.315C109.805 126.606 110.743 126.901 111.683 127.187C112.085 127.31 112.962 127.799 113.392 127.536C113.752 127.315 113.768 126.48 113.794 126.122C113.841 125.479 113.728 124.848 113.309 124.361C112.374 123.276 110.803 123.542 109.574 123.761C108.084 124.025 106.624 124.452 105.453 125.519C105.277 125.679 105.404 125.927 105.597 125.963C106.665 126.161 107.493 127.085 108.374 127.682C109.178 128.227 110.038 128.699 110.951 129.012C112.578 129.57 114.571 129.657 116.096 128.681C116.163 128.638 116.229 128.562 116.226 128.473C116.164 126.614 116.351 124.787 116.707 122.961Z" fill="#EFDBA4"/>
<path d="M118.834 118.154C118.832 118.145 118.83 118.136 118.828 118.126C118.831 118.094 118.825 118.063 118.809 118.035C118.633 117.189 118.456 116.415 118.392 115.531C118.314 114.441 118.275 113.347 118.23 112.254C118.331 112.205 118.404 112.08 118.34 111.955C116.848 109 113.596 106.906 110.574 106.13C107.038 105.221 103.119 105.65 99.9348 103.557C99.8152 103.479 99.6991 103.664 99.812 103.75C102.593 105.892 106.176 105.747 109.433 106.405C111.167 106.755 112.813 107.395 114.29 108.407C115.737 109.399 116.781 110.677 117.87 112.046C117.869 112.047 117.869 112.048 117.869 112.05C117.797 113.305 117.829 114.554 117.919 115.804C117.958 116.358 117.941 117.118 118.17 117.691C115.833 116.644 112.765 116.284 110.322 116.929C109.006 115.586 107.701 114.285 106.596 112.729C105.425 111.081 104.624 109.282 103.664 107.513C106.154 107.45 108.68 107.976 110.9 109.136C112.037 109.73 113.111 110.481 114.051 111.379C114.588 111.893 115.077 112.437 115.277 113.197C115.431 113.784 115.43 114.405 115.416 115.014C114.645 114.715 113.857 114.501 113.038 114.383C112.551 114.313 112.062 114.279 111.57 114.271C110.938 114.261 110.448 114.044 110.081 113.474C109.185 112.085 108.062 110.899 106.784 109.906C108.206 109.336 109.816 110.106 111.037 110.874C111.349 111.071 111.67 111.298 111.884 111.612C112.011 111.798 112.132 112.025 112.128 112.267C112.122 112.583 112.065 112.601 111.84 112.558C111.539 112.501 111.075 111.973 110.823 111.781C110.442 111.489 110.061 111.197 109.68 110.906C109.47 110.745 109.246 111.101 109.454 111.262C110.129 111.782 110.8 112.313 111.482 112.824C111.678 112.972 111.914 113.227 112.187 113.131C112.957 112.862 112.386 111.689 112.076 111.321C110.816 109.818 108.147 108.738 106.335 109.692C106.205 109.76 106.204 109.945 106.314 110.029C107.124 110.648 107.874 111.34 108.543 112.124C108.838 112.469 109.118 112.829 109.383 113.201C109.648 113.572 109.856 114.046 110.176 114.369C110.684 114.881 111.491 114.681 112.132 114.72C113.295 114.791 114.429 115.059 115.526 115.451C115.631 115.489 115.753 115.405 115.758 115.286C115.803 113.955 115.75 112.699 114.88 111.666C113.947 110.556 112.715 109.647 111.478 108.954C109.035 107.584 106.313 106.987 103.544 107.302C103.446 107.181 103.216 107.256 103.263 107.438C103.771 109.388 104.93 111.266 106.058 112.873C107.185 114.478 108.508 116.076 110.057 117.257C110.079 117.32 110.131 117.367 110.211 117.372C110.241 117.394 110.27 117.417 110.3 117.438C110.391 117.505 110.498 117.455 110.552 117.372C111.818 117.36 113.063 117.282 114.332 117.418C115.784 117.572 117.156 117.971 118.566 118.331C118.606 118.341 118.644 118.334 118.68 118.319C118.765 118.333 118.854 118.254 118.834 118.154Z" fill="#EFDBA4"/>
<path d="M130.895 108.942C130.803 108.82 130.646 108.868 130.564 108.969C127.592 112.609 125.101 116.857 124.279 121.62C124.078 122.783 123.986 123.964 124.02 125.143C124.041 125.908 123.973 126.736 124.761 127.023C125.248 127.201 125.798 127.235 126.299 127.378C126.915 127.553 127.516 127.772 128.105 128.025C129.274 128.525 130.357 129.168 131.407 129.896C131.544 129.99 131.666 129.781 131.547 129.676C129.998 128.314 128.147 127.369 126.188 126.841C125.682 126.704 124.82 126.717 124.558 126.166C124.376 125.781 124.478 124.894 124.482 124.458C124.495 123.302 124.623 122.146 124.858 121.014C125.749 116.701 128.031 112.791 130.728 109.439C134.296 114.275 136.061 120.296 135.714 126.449C133.26 125.587 130.716 125.122 128.118 125.051C127.653 121.235 128.445 117.34 130.387 114.043C132.489 117.006 133.726 120.632 133.71 124.371C133.16 124.228 132.61 124.087 132.06 123.951C131.629 123.844 131.162 123.859 130.978 123.324C130.864 122.991 130.939 122.406 130.937 122.041C130.934 120.86 131.016 119.683 131.17 118.513C131.487 119.663 131.804 120.812 132.121 121.961C132.201 122.254 132.648 122.152 132.565 121.858C132.15 120.382 131.735 118.906 131.319 117.431C131.249 117.179 130.938 117.216 130.895 117.468C130.575 119.325 130.352 121.302 130.51 123.184C130.554 123.704 130.696 124.044 131.173 124.226C132.009 124.546 132.978 124.66 133.849 124.855C133.969 124.882 134.126 124.814 134.124 124.659C134.077 120.585 132.911 116.677 130.539 113.467C130.451 113.348 130.261 113.373 130.186 113.495C128.019 117.028 127.109 121.23 127.654 125.363C127.669 125.472 127.778 125.565 127.881 125.567C130.607 125.623 133.282 126.119 135.855 127.033C136.002 127.085 136.162 126.97 136.172 126.807C136.561 120.401 134.651 113.929 130.895 108.942Z" fill="#EFDBA4"/>
<path d="M131.319 100.049C129.954 98.0943 128.419 96.3264 126.724 94.6847C126.622 94.5857 126.466 94.5807 126.38 94.7128C124.507 97.577 122.751 100.518 121.096 103.524C121.039 103.627 121.048 103.776 121.154 103.841C121.908 104.303 122.509 104.906 122.969 105.684C123.046 105.815 123.252 105.865 123.339 105.704C124.592 103.372 126.31 101.416 128.442 99.9453C128.587 99.8452 128.619 99.638 128.468 99.5258C127.828 99.0514 126.773 97.9754 126.024 98.7426C125.496 99.2831 125.088 100.067 124.652 100.692C124.17 101.381 123.681 102.065 123.219 102.77C123.045 103.036 123.423 103.289 123.608 103.04C124.264 102.154 124.883 101.237 125.514 100.331C125.664 100.115 125.814 99.8995 125.964 99.6836C126.211 99.3282 126.223 99.1646 126.688 99.1648C127.155 99.165 127.555 99.4457 127.938 99.7312C125.998 101.173 124.367 103.008 123.151 105.155C122.724 104.516 122.202 103.992 121.57 103.572C123.155 100.719 124.836 97.9264 126.597 95.1896C128.153 96.7059 129.572 98.3827 130.852 100.162C127.923 102.514 125.039 104.956 123.382 108.484C122.575 107.127 121.483 106.014 120.109 105.291C119.945 105.205 119.78 105.446 119.945 105.55C121.293 106.408 122.426 107.52 123.239 108.947C123.319 109.087 123.496 109.068 123.559 108.92C125.115 105.254 128.32 102.706 131.299 100.372C131.4 100.293 131.383 100.141 131.319 100.049Z" fill="#EFDBA4"/>
<path d="M148.519 109.284C147.136 108.933 145.828 109.567 144.556 110.112C143.019 110.769 141.514 111.505 140.038 112.306C139.872 112.396 139.86 112.642 140.01 112.75C141.378 113.728 142.142 115.332 142.101 117.081C142.096 117.281 142.323 117.411 142.473 117.269C144.094 115.724 145.391 113.923 146.315 111.839C146.42 111.603 146.113 111.456 145.952 111.587C145.255 112.157 144.503 112.529 143.654 112.768C143.36 112.851 143.452 113.336 143.75 113.255C144.386 113.084 144.97 112.819 145.519 112.47C144.751 113.997 143.752 115.382 142.546 116.562C142.473 114.99 141.773 113.558 140.612 112.577C141.707 111.998 142.817 111.452 143.947 110.95C145.223 110.384 146.749 109.513 148.169 109.739C147.793 113.185 145.989 116.279 143.642 118.681C143.093 119.243 142.514 119.774 141.909 120.269C141.722 120.422 141.246 120.689 141.031 120.401C140.962 120.309 140.984 119.958 140.97 119.837C140.913 119.368 140.839 118.901 140.743 118.439C140.39 116.75 139.771 115.167 138.9 113.709C138.818 113.572 138.602 113.683 138.681 113.827C139.752 115.777 140.474 117.935 140.688 120.192C140.732 120.658 140.776 121.306 141.395 121.125C141.707 121.034 142.017 120.691 142.265 120.491C142.671 120.163 143.065 119.821 143.446 119.462C146.206 116.863 148.256 113.438 148.683 109.541C148.694 109.437 148.618 109.309 148.519 109.284Z" fill="#EFDBA4"/>
<path d="M152.388 64.5087C151.137 62.1284 149.282 60.0518 146.959 58.6834C144.757 57.3867 141.234 56.2752 139.034 58.1288C138.123 58.8963 137.604 60.0113 137.252 61.1262C136.774 62.6399 136.446 64.2552 136.42 65.8457C136.375 68.4967 137.646 71.1759 140.431 71.772C140.784 71.8474 141.116 71.8718 141.429 71.8553C139.741 73.9313 141.085 76.8177 142.695 78.5805C143.816 79.8085 145.165 80.856 146.074 82.2661C147.092 83.8449 147.208 85.5013 147.243 87.3205C147.251 87.7674 147.875 87.731 147.978 87.3526C148.746 84.5452 147.09 81.7556 145.189 79.8527C143.307 77.9689 139.638 74.7 142.289 71.8983C142.364 71.8193 142.388 71.7355 142.378 71.6587C144.138 70.9928 145.046 68.7945 145.008 66.7864C144.985 65.5441 143.906 64.5137 142.629 64.7765C141.865 64.9338 139.596 66.7774 141.184 68.4759C141.551 68.8679 142.511 69.1224 143.268 68.7667C143.545 68.6773 143.793 68.5164 143.974 68.3023C143.77 69.2362 143.368 70.1671 142.542 70.661C140.314 71.9935 137.891 69.5695 137.453 67.527C137.15 66.1148 137.331 64.6511 137.618 63.2522C137.846 62.1429 138.113 61.0045 138.655 60.0012C140.103 57.3187 143.362 57.8679 145.705 58.9621C150.362 61.1376 152.919 66.0343 153.622 70.9423C154.393 76.329 153.446 81.9706 151.923 87.1465C151.081 90.0057 149.98 92.7913 148.634 95.4495C147.486 97.7152 145.27 100.279 145.795 102.985C145.871 103.375 146.483 103.333 146.42 102.928C146.147 101.172 147.175 99.6515 148.033 98.2109C148.895 96.7615 149.67 95.2577 150.367 93.7213C151.733 90.7087 152.796 87.5556 153.499 84.3217C154.884 77.9498 155.525 70.481 152.388 64.5087Z" fill="#EFDBA4"/>
<path d="M145.868 72.3465C144.592 72.103 143.429 73.3995 143.923 74.7226C144.404 76.0088 146.088 76.319 146.937 75.2396C146.938 75.2425 146.94 75.2464 146.941 75.2491C147.223 75.9082 147.341 76.6017 147.552 77.2818C147.71 77.7931 148.375 77.5381 148.392 77.0889C148.433 75.9553 148.003 72.754 145.868 72.3465ZM146.108 74.649C146.178 74.5173 146.232 74.3832 146.273 74.2478C146.264 74.3155 146.249 74.3898 146.223 74.4775C146.195 74.544 146.154 74.5992 146.108 74.649Z" fill="#EFDBA4"/>
<path d="M157.849 82.6851C157.817 82.3198 157.389 82.2417 157.157 82.4694C152.628 86.9104 152.049 93.7353 154.007 99.5197C154.148 99.9366 154.76 99.6958 154.641 99.2808C153.105 93.9279 153.433 87.9337 157.16 83.6247C157.444 86.2834 157.754 88.9479 157.936 91.6134C158.114 94.2253 157.702 96.7286 156.492 99.0102C156.342 97.4374 156.191 95.8646 156.044 94.2915C155.878 92.5188 155.856 90.8741 156.379 89.1551C156.492 88.7846 155.918 88.6366 155.755 88.9562C154.985 90.4655 155.116 92.2801 155.268 93.9168C155.461 96.0025 155.68 98.0863 155.886 100.171C155.914 100.449 156.34 100.641 156.515 100.367C158.024 97.9966 158.737 95.339 158.683 92.5308C158.62 89.2505 158.138 85.9518 157.849 82.6851Z" fill="#EFDBA4"/>
<path d="M146.299 44.7909C145.839 44.4141 145.127 44.2547 144.567 44.0858C143.787 43.8511 142.987 43.6898 142.177 43.6086C141.434 43.534 140.683 43.523 139.938 43.5644C139.417 43.5933 138.69 43.5637 138.261 43.9258C137.833 44.2866 137.834 44.9411 137.748 45.4459C137.613 46.2502 137.443 47.0481 137.228 47.8351C136.78 49.4765 136.131 51.0434 135.336 52.5456C135.152 52.8933 135.64 53.3392 135.949 53.0566C137.05 52.0493 138.231 51.15 139.488 50.3462C140.364 49.7859 141.847 49.2838 142.247 48.2172C142.503 47.5338 142.248 46.5747 141.422 46.476C140.695 46.3892 140.171 47.0075 140.314 47.6776C140.308 47.7052 140.303 47.7329 140.298 47.7607C140.283 47.7924 140.269 47.8254 140.258 47.8614C140.192 48.0806 140.167 48.3001 140.176 48.5191C140.172 48.5828 140.172 48.6472 140.18 48.7118C140.184 48.7393 140.19 48.7661 140.198 48.792C140.189 48.8478 140.183 48.9038 140.181 48.9601C139.651 49.2757 139.127 49.5982 138.615 49.9446C138.036 50.337 137.474 50.7537 136.924 51.186C137.676 49.4979 138.239 47.7219 138.567 45.9042C138.713 45.0913 138.585 44.5549 139.557 44.4261C140.28 44.3304 141.006 44.3047 141.734 44.3552C142.93 44.4382 144.559 44.6172 145.592 45.2648C146.823 46.0357 145.781 48.3369 145.184 49.2179C144.461 50.2848 143.431 51.0831 142.335 51.7367C140.148 53.0405 137.686 53.8097 135.701 55.4442C135.19 54.7982 134.644 54.2116 134.218 53.4903C133.735 52.6717 133.375 51.7771 133.148 50.8537C132.692 48.9982 132.845 47.0594 133.375 45.2375C133.481 44.8746 132.899 44.7009 132.751 45.0385C131.938 46.8896 131.858 48.9321 132.319 50.8929C132.754 52.7393 133.758 54.9594 135.392 56.047C135.465 56.0961 135.549 56.1093 135.627 56.0978C135.601 56.1215 135.579 56.1513 135.565 56.1913C131.635 67.6427 138.229 79.221 141.81 89.9068C139.347 85.3147 137.703 84.1606 133.569 81.0918C133.319 80.9065 133.009 81.2761 133.259 81.4644C138.369 85.3103 140.042 87.4315 142.796 93.1637C143.544 95.9657 144.033 98.804 144.225 101.722C144.251 102.123 144.842 102.058 144.839 101.666C144.795 95.4679 142.467 89.4515 140.268 83.7501C138.098 78.1224 135.844 72.442 135.229 66.3895C134.886 63.0111 135.124 59.6187 136.08 56.3554C136.479 54.9922 141.891 53.3342 144.368 51.2147C145.401 50.3318 146.235 49.2221 146.635 47.9111C146.914 46.9933 147.151 45.4877 146.299 44.7909Z" fill="#EFDBA4"/>
<path d="M127.516 51.5825C127.179 51.44 126.874 51.7467 126.958 52.0994C128.371 58.0401 133.673 58.9465 133.674 58.9338C133.953 58.9287 131.501 53.2672 127.516 51.5825ZM128.073 52.7802C129.002 53.3271 129.799 54.0573 130.547 54.8558C131.37 55.7342 132.563 56.8378 132.826 58.0961C130.44 57.5005 128.969 55.0982 128.073 52.7802Z" fill="#EFDBA4"/>
<path d="M132.426 31.2598C132.153 30.2489 131.406 29.2537 130.881 28.3543C130.338 27.4239 129.774 26.5042 129.159 25.619C127.857 23.7431 126.316 22.0363 124.386 20.7946C124.221 20.6886 123.937 20.6779 123.824 20.8771C121.624 24.76 122.171 29.2623 123.376 33.3705C123.665 34.3552 123.94 35.3721 124.315 36.3278C124.516 36.8413 124.849 37.4209 125.474 37.4292C126.179 37.4386 126.839 36.6072 127.277 36.1588C128.021 35.3982 128.622 34.5682 129.121 33.63C129.146 33.5822 129.149 33.5361 129.138 33.4944C129.138 33.4881 129.138 33.4825 129.137 33.4761C128.622 30.576 127.443 27.928 125.667 25.582C125.512 25.3779 125.11 25.4032 125.036 25.6755C124.663 27.0447 124.465 28.4347 124.504 29.855C124.537 31.0726 124.612 32.9361 125.336 33.9884C125.822 34.6948 126.594 34.2656 126.931 33.6394C127.427 32.7173 127.054 31.511 126.327 30.8319C126.122 30.6404 125.816 30.9275 125.919 31.1582C126.064 31.4812 126.282 31.77 126.398 32.1048C126.502 32.4073 126.559 34.236 125.752 33.5614C125.558 33.3989 125.487 32.474 125.441 32.2122C125.379 31.8554 125.333 31.4964 125.295 31.1362C125.14 29.6418 125.228 28.137 125.546 26.6729C126.992 28.7463 128.036 31.0837 128.634 33.5443C128.188 34.166 127.713 34.7719 127.198 35.3365C126.694 35.888 125.631 37.257 124.946 36.1668C124.518 35.4843 124.36 34.3447 124.136 33.5738C123.91 32.8 123.703 32.0208 123.527 31.2341C122.819 28.0602 122.695 24.6223 124.276 21.6979C125.853 22.8051 127.167 24.202 128.301 25.7629C128.923 26.619 129.494 27.5115 130.037 28.4194C130.568 29.3068 131.21 30.2257 131.601 31.1853C132.081 32.3639 131.167 33.836 130.566 34.8259C129.999 35.7615 129.334 36.6331 128.666 37.4981C127.241 39.3434 125.801 41.1813 124.428 43.0659C123.597 37.7629 121.741 32.6185 119.094 27.9226C120.108 25.9894 120.298 23.5958 119.848 21.5083C119.764 21.1196 119.158 21.2096 119.233 21.6063C119.61 23.5776 119.321 25.3643 118.622 27.1044C117.749 25.6236 116.797 24.1896 115.773 22.8131C115.922 22.8423 116.091 22.7862 116.159 22.618C116.921 20.7511 116.657 18.3554 115.7 16.6137C115.509 16.2663 115.002 16.4871 115.136 16.8643C115.822 18.7868 115.833 20.4663 115.509 22.4546C115.508 22.4555 115.508 22.4564 115.508 22.4573C113.993 20.4584 112.325 18.583 110.529 16.8607C108.185 14.6123 105.465 12.2751 102.492 10.9087C102.039 10.7007 101.691 11.3658 102.074 11.6578L102.075 11.659C100.909 18.0282 95.395 21.6605 89.3974 23.0302C88.6666 23.197 87.9299 23.3373 87.1899 23.4567C86.5229 23.5643 85.4499 23.9086 84.7911 23.7592C83.9277 23.5633 84.3408 22.4993 84.4329 21.834C84.5417 21.0475 84.6635 20.2622 84.8268 19.4849C85.4813 16.3682 86.9066 13.5133 89.7469 11.8764C92.8656 10.0789 96.5875 10.1046 99.9598 11.0997C99.0907 13.9171 97.6601 16.4083 95.0776 17.9574C93.936 18.6422 92.6925 19.1301 91.4335 19.5503C90.1913 19.9648 88.6399 20.6134 87.2792 20.5436C88.3699 16.2375 91.6394 12.1187 96.3941 12.218C96.0317 14.3603 94.4695 15.9855 92.5807 16.9907C92.1428 17.2237 91.6874 17.4327 91.2237 17.6088C90.978 17.7021 90.7846 17.8873 90.874 17.5652C90.9218 17.393 91.2472 17.1054 91.3704 16.9743C92.099 16.1995 92.9904 15.6614 93.979 15.2858C94.432 15.1136 94.1262 14.4412 93.6754 14.6005C92.3678 15.0626 91.0411 15.9318 90.2591 17.1066C89.6709 17.9905 90.2547 18.7357 91.2576 18.4197C94.1789 17.4989 96.8988 15.0768 97.1931 11.9016C97.2112 11.7066 97.068 11.5003 96.8623 11.487C91.3426 11.1305 87.6141 15.8544 86.5183 20.8075C86.4894 20.9383 86.5986 21.1272 86.7307 21.1628C88.1636 21.5487 89.7162 20.9115 91.0872 20.4948C92.5979 20.0358 94.0841 19.4705 95.4423 18.6558C98.2114 16.9945 99.7339 14.3745 100.524 11.3015C100.526 11.2925 100.526 11.2839 100.528 11.275C101.004 11.4141 101.291 10.6962 100.809 10.529C97.3487 9.32952 93.5015 9.11038 90.1279 10.7207C87.133 12.1502 85.3104 14.7241 84.3836 17.8049C82.6261 19.5113 79.7087 19.1464 77.4581 18.8912C75.3202 18.6486 73.1433 18.256 70.9898 18.4483C71.7494 17.4507 72.3509 16.3573 73.1221 15.3479C74.0814 14.0925 75.2545 13.0142 76.5717 12.1444C79.1648 10.4322 82.2665 9.57096 85.3644 9.72515C83.6066 11.6024 82.4774 14.1252 81.9039 16.6027C79.8773 16.2723 77.8365 16.1567 75.7886 16.2506C77.0547 14.6461 78.8084 13.5569 80.8019 13.1489C80.3629 13.6653 79.8861 14.1433 79.3606 14.5849C78.978 14.9064 79.4607 15.5137 79.8449 15.192C80.671 14.5004 81.3977 13.7279 82.0284 12.8531C82.2341 12.5678 81.9894 12.1983 81.6545 12.2343C78.8473 12.5357 76.2877 14.0831 74.7299 16.4432C74.5438 16.7251 74.76 17.0584 75.0861 17.033C77.4476 16.8493 79.8001 16.9624 82.1348 17.3573C82.336 17.3913 82.4897 17.223 82.5265 17.0437C83.135 14.0793 84.5998 11.7264 86.4624 9.39977C86.6523 9.16262 86.3091 8.82323 86.0778 9.0275C86.067 9.03704 86.0569 9.04745 86.0461 9.05707C85.9889 8.99219 85.9061 8.94585 85.7922 8.93755C82.555 8.70029 79.3213 9.50834 76.5545 11.2069C75.2104 12.0321 73.9919 13.056 72.9551 14.2461C71.7523 15.6269 71.0378 17.5844 69.5809 18.7126C69.2187 18.9931 69.4919 19.5902 69.9367 19.5194C73.0266 19.0275 76.0165 19.7837 79.0993 19.8966C80.5222 19.9487 82.6923 19.9515 84.0593 19.0525C83.914 19.698 83.7937 20.349 83.6889 21.0022C83.5619 21.7935 83.2469 22.8196 83.3774 23.6186C83.6232 25.1243 85.749 24.5571 86.7345 24.4122C90.3174 23.8853 93.9333 22.8945 96.9544 20.8259C99.811 18.8699 102.329 15.6829 102.711 12.1371C104.804 13.6918 106.954 15.1128 108.901 16.8776C111.059 18.8322 113.029 20.9843 114.786 23.3069C115.957 24.855 117.033 26.4801 118.007 28.1658C115.589 26.2616 112.543 24.7277 109.564 25.9172C109.181 26.0703 109.373 26.6409 109.764 26.5934C111.605 26.3695 113.324 26.5283 115.032 27.3016C116.016 27.747 116.933 28.3276 117.81 28.9633C117.845 29.0749 117.962 29.154 118.088 29.1671C118.365 29.3737 118.639 29.5845 118.91 29.7985C119.885 31.6501 120.739 33.5666 121.458 35.5304C121.441 35.5204 121.423 35.5105 121.404 35.503C120.19 35.0253 118.876 34.8722 117.663 34.3327C116.415 33.7774 115.236 33.041 114.169 32.1881C113.758 31.8593 113.329 32.486 113.692 32.8293C114.765 33.8429 115.945 34.6643 117.279 35.2947C118.473 35.8587 119.966 36.473 121.303 36.4115C121.501 36.4024 121.621 36.2743 121.667 36.116C121.987 37.0281 122.28 37.9491 122.541 38.8787C123.41 41.9805 123.941 45.1677 124.196 48.378C124.233 48.8494 124.92 48.7166 124.908 48.2643C124.869 46.7942 124.748 45.3289 124.549 43.8742C124.568 43.8599 124.586 43.8434 124.603 43.8233C126.371 41.707 128.076 39.5237 129.743 37.326C130.484 36.3485 131.193 35.3397 131.747 34.2419C132.199 33.3469 132.702 32.2818 132.426 31.2598Z" fill="#EFDBA4"/>
<path d="M117.13 30.6483C115.694 29.0536 113.73 28.1073 111.592 28.1074C111.568 28.0809 111.543 28.0563 111.52 28.0294C111.32 27.8032 110.991 27.995 111.008 28.2312C110.889 28.4095 110.967 28.7328 111.229 28.7494C111.285 28.7528 111.339 28.7589 111.395 28.7634C112.726 30.233 114.636 31.2817 116.631 31.3745C116.644 31.3816 116.658 31.3882 116.671 31.3953C116.803 31.4662 116.935 31.4469 117.042 31.3796C117.047 31.3794 117.053 31.3799 117.058 31.3798C117.458 31.3706 117.459 30.7746 117.13 30.6483ZM112.734 28.9802C112.71 29.0152 112.69 29.0528 112.676 29.093C112.598 29.0358 112.522 28.9763 112.446 28.9154C112.543 28.9357 112.639 28.9565 112.734 28.9802Z" fill="#EFDBA4"/>
<path d="M103.997 15.2422C103.904 14.8321 103.304 14.9226 103.35 15.3453C103.54 17.0895 103.008 18.7157 101.967 20.1132C101.494 20.7489 100.95 21.3224 100.365 21.8564C99.8425 22.3337 99.2216 22.7355 98.7853 23.2953C98.5786 23.5605 98.8881 23.9437 99.1907 23.8034C99.9911 23.4326 100.68 22.7133 101.303 22.0986C101.915 21.4943 102.485 20.8441 102.944 20.1147C103.855 18.6706 104.381 16.9408 103.997 15.2422Z" fill="#EFDBA4"/>
<path d="M104.888 24.5654C104.834 24.3713 104.587 24.214 104.379 24.2467C106.954 23.1501 109.849 22.8638 112.611 22.6892C112.997 22.6648 112.951 22.0955 112.572 22.095C110.172 22.0917 107.781 22.2812 105.47 22.9726C103.534 23.5517 100.998 24.6428 99.8927 26.4484C98.8324 28.1812 101.184 29.5278 102.732 29.2015C104.457 28.8377 105.304 26.068 104.888 24.5654ZM101.286 28.0873C100.803 27.8693 100.281 27.5298 100.606 26.9374C100.836 26.5187 101.252 26.1904 101.613 25.8942C102.151 25.4527 102.737 25.0672 103.35 24.7384C103.606 24.6014 103.867 24.4771 104.13 24.3586C102.927 24.9822 101.898 25.7813 101.012 26.8171C100.831 27.0282 100.889 27.3014 101.065 27.4894C102.119 28.6147 103.783 27.7843 103.747 26.3133C103.742 26.1033 103.595 25.9524 103.417 25.8973C103.629 25.745 103.849 25.6019 104.074 25.4658C104.076 26.1535 103.817 26.9141 103.526 27.4721C103.027 28.4321 102.208 28.5026 101.286 28.0873Z" fill="#EFDBA4"/>
<path d="M42.1599 48.8009C38.4339 49.1418 35.1021 51.0109 32.9949 54.1336C32.9218 54.2418 32.9282 54.3466 32.9774 54.4286C32.9756 54.6447 33.1134 54.8627 33.3917 54.8636C37.1132 54.8768 40.8226 52.779 42.506 49.405C42.6293 49.1579 42.485 48.7711 42.1599 48.8009ZM33.8806 53.9908C35.7083 51.6584 38.4452 50.0513 41.3877 49.6764C39.6708 52.1969 36.9559 53.8387 33.8806 53.9908Z" fill="#EFDBA4"/>
<path d="M54.6258 31.4335C53.7628 30.5751 52.3787 30.4025 51.2636 30.7653C51.1817 30.7919 51.1332 30.8462 51.1108 30.9086C43.1683 33.0627 36.2851 39.1062 32.6289 46.4214C28.1073 55.468 29.5094 66.0827 25.4924 75.2739C23.6952 79.3861 20.8467 83.1334 16.7315 85.019C23.5744 80.0379 25.8274 71.1984 27.213 63.2482C28.074 58.3084 28.7588 53.2912 30.4505 48.5481C32.0821 43.9733 34.7782 39.9734 38.1038 36.4619C41.7815 32.5786 46.0801 29.4817 50.1788 26.0831C50.1991 26.0663 50.2137 26.0473 50.2257 26.0278C51.0141 25.3949 51.8254 24.7633 52.4654 23.975C52.8494 23.502 53.639 22.5635 53.4109 21.8919C53.1976 21.264 52.2634 21.3145 51.746 21.4201C50.6799 21.6376 49.9403 22.4165 49.255 23.2037C49.0368 23.4543 49.3727 23.796 49.6208 23.57C50.1428 23.0948 50.695 22.5692 51.3447 22.2738C51.5108 22.1984 52.5379 21.8323 52.7139 22.0827C52.8718 22.3073 52.4619 22.8799 52.3474 23.0649C51.7332 24.0571 50.8763 24.8741 50.0091 25.6454C49.964 25.6423 49.917 25.6535 49.872 25.6848C46.0995 28.3058 42.4505 31.2555 39.1514 34.454C35.8755 37.6299 32.9472 41.2386 30.997 45.3909C26.8827 54.151 27.3067 64.1537 24.0992 73.1923C22.4554 77.8245 19.8734 82.2161 15.7764 85.0667C15.6373 85.1636 15.6399 85.3292 15.713 85.4387C15.7004 85.4432 15.6882 85.4483 15.6757 85.4529C15.3138 85.5836 15.4621 86.1597 15.8366 86.0376C24.2997 83.2784 27.5091 73.7209 28.8143 65.7818C29.69 60.4557 30.1197 54.9969 31.9486 49.8802C33.4277 45.742 35.887 41.98 39.0061 38.8956C42.5824 35.3591 46.9432 32.8782 51.7157 31.3515C51.8244 31.3167 51.8859 31.2421 51.9092 31.1579C53.171 31.0981 55.1096 31.6622 54.0605 33.1091C53.7326 33.5615 53.0662 34.0036 52.4808 33.9645C51.9749 33.9307 51.6754 33.6488 51.8382 33.1523C51.9362 32.8535 52.183 32.6024 52.4805 32.495C52.8762 32.352 52.7192 31.7955 52.3078 31.8677C51.3727 32.0321 50.763 33.0804 51.1419 33.9785C51.6235 35.1202 53.2299 34.7059 53.9861 34.1003C54.7256 33.5081 55.443 32.2463 54.6258 31.4335Z" fill="#EFDBA4"/>
<path d="M21.5075 76.8877C22.8848 74.7849 22.8243 71.7237 22.6692 69.3676C22.4469 65.993 21.5544 62.7083 20.1005 59.6596C19.9818 59.4108 19.5695 59.4152 19.4496 59.6596C17.8559 62.9066 16.6785 66.5122 17.1392 70.1729C17.4188 72.3945 18.3039 74.5043 19.7796 76.136C19.9102 76.6005 20.0565 77.0544 20.2166 77.4964C20.2133 77.5923 20.2496 77.683 20.3101 77.7508C20.3261 77.7931 20.3408 77.8368 20.3571 77.8788C20.4764 78.1866 20.8544 77.7123 20.8509 77.6987C20.954 77.5949 21.6045 76.9631 21.5075 76.8877ZM20.9136 76.3834C20.7346 76.2155 20.5656 76.0383 20.4019 75.8565C20.1535 74.7584 19.9497 73.6543 19.8479 72.5205C19.6947 70.8151 19.7854 69.1478 19.8489 67.443C19.8621 67.0902 19.283 66.9979 19.2219 67.358C18.8379 69.6219 18.9236 72.1339 19.3914 74.5054C18.4931 73.0469 17.9701 71.3447 17.8323 69.6375C17.5833 66.5538 18.4961 63.5168 19.7725 60.7365C20.9499 63.3624 21.6846 66.1747 21.9112 69.0488C22.1035 71.4887 22.1484 74.2182 20.9136 76.3834Z" fill="#EFDBA4"/>
<path d="M42.1274 27.5209C39.971 29.1357 38.0478 31.1668 36.2852 33.196C34.5311 35.2152 32.9348 37.3737 31.515 39.6411C28.6189 44.2657 26.4228 49.3716 25.15 54.6835C24.4293 57.6914 23.981 60.7655 23.9122 63.86C23.9064 64.1192 24.2852 64.11 24.3084 63.86C25.3103 53.0846 29.1625 42.7586 36.1027 34.3888C38.0487 32.0421 40.249 30.0383 42.4742 27.9711C42.7073 27.7547 42.3913 27.3234 42.1274 27.5209Z" fill="#EFDBA4"/>
<path d="M43.8057 43.1621C43.4016 41.9897 41.2073 42.0022 40.2576 42.1653C38.612 42.4479 37.2484 43.475 36.1664 44.7008C36.1556 44.713 36.1475 44.7257 36.1391 44.7383C36.1081 44.7415 36.077 44.7433 36.0459 44.7468C35.7405 44.781 35.6246 45.2336 35.9684 45.3206C37.6181 45.7385 39.6379 45.3175 41.2617 44.9219C41.9884 44.7449 44.2371 44.4136 43.8057 43.1621ZM42.3189 43.8887C42.0629 43.9718 41.8011 44.0399 41.541 44.1084C40.9676 44.2596 40.3882 44.3884 39.8037 44.488C38.8759 44.6462 37.9538 44.6356 37.0307 44.6755C37.7466 44.0146 38.5538 43.4531 39.4823 43.1323C40.2167 42.8787 42.394 42.4591 42.7909 43.3949C42.9692 43.8153 42.737 43.7531 42.3189 43.8887Z" fill="#EFDBA4"/>
<path d="M45.6738 38.7067C44.9083 37.9851 43.4818 38.0891 42.5528 38.3326C42.4045 38.3716 42.347 38.4905 42.3564 38.6075C41.9556 38.8397 41.7818 39.4473 42.0491 39.8905C42.6339 40.8599 44.1145 40.5506 44.9822 40.2593C45.349 40.1362 45.8047 40.0197 45.9609 39.6223C46.0948 39.2815 45.9247 38.9432 45.6738 38.7067ZM45.0374 39.5322C44.7034 39.7626 43.9529 39.7969 43.5684 39.7896C43.3663 39.7857 43.0359 39.7739 42.8769 39.6304C42.6891 39.4609 42.6475 39.1803 42.9347 39.1387C43.1193 39.112 43.1771 38.941 43.1425 38.7872C43.5232 38.7345 43.9073 38.7313 44.2918 38.7964C44.6351 38.8546 45.6701 39.0953 45.0374 39.5322Z" fill="#EFDBA4"/>
<path d="M96.8285 151.322C96.6999 152.546 99.0371 152.608 99.7789 152.634C101.477 152.694 103.2 152.453 104.889 152.304C106.614 152.152 108.344 152.001 110.072 151.83C109.13 152.136 108.217 152.515 107.351 153.005C106.569 153.447 105.4 154.062 105.399 155.095C105.399 155.385 105.808 155.499 105.914 155.202C106.278 154.183 107.28 153.679 108.182 153.183C109.01 152.728 109.87 152.34 110.762 152.03C110.884 151.988 110.898 151.85 110.847 151.751C113.097 151.519 115.343 151.247 117.569 150.882C117.805 150.843 117.73 150.512 117.504 150.526C117.474 150.528 117.444 150.53 117.414 150.532C117.462 150.415 117.412 150.259 117.246 150.246C115.79 150.132 114.307 149.889 112.901 149.49C112.162 149.28 111.322 148.699 111.897 147.867C112.116 147.55 112.494 147.392 112.875 147.421C113.02 147.432 113.39 147.484 113.453 147.621C113.545 147.819 113.209 147.754 113.078 147.563C112.881 147.278 112.384 147.591 112.561 147.892C112.803 148.302 113.236 148.549 113.719 148.396C114.117 148.271 114.383 147.875 114.193 147.482C113.714 146.488 112.084 146.632 111.475 147.372C110.677 148.341 111.177 149.52 112.277 149.932C113.448 150.372 114.818 150.552 116.12 150.623C113.65 150.812 111.184 151.084 108.718 151.318C107.235 151.458 105.751 151.591 104.267 151.726C102.87 151.853 101.456 152.04 100.052 152.023C99.4081 152.015 98.7533 151.965 98.1298 151.798C97.7195 151.689 97.3404 151.598 97.6446 151.065C97.8047 150.785 98.113 150.523 98.3347 150.295C99.1876 149.42 100.159 148.654 101.211 148.032C103.283 146.807 105.678 146.082 108.09 146.061C108.425 146.058 108.802 146.051 109.118 146.182C109.735 146.439 109.609 146.976 109.184 147.366C108.695 147.816 108.062 148.147 107.457 148.413C107.219 148.517 106.977 148.605 106.734 148.685C106.98 148.513 107.21 148.31 107.422 148.074C107.602 147.872 107.39 147.609 107.183 147.572C105.585 147.282 103.986 147.91 102.993 149.192C102.84 149.39 103.002 149.668 103.23 149.691C104.63 149.834 106.038 149.653 107.355 149.149C108.316 148.781 110.162 147.991 110.237 146.767C110.397 144.166 104.567 145.89 103.423 146.304C102.064 146.797 100.779 147.497 99.62 148.361C99.0243 148.805 98.4632 149.297 97.9455 149.83C97.567 150.22 96.888 150.757 96.8285 151.322ZM103.941 149.094C104.073 148.972 104.213 148.862 104.359 148.762C104.281 148.853 104.252 148.982 104.275 149.096C104.164 149.098 104.053 149.096 103.941 149.094ZM104.627 148.648C104.584 148.647 104.545 148.654 104.51 148.665C105.071 148.324 105.716 148.142 106.381 148.139C105.871 148.486 105.279 148.666 104.627 148.648Z" fill="#EFDBA4"/>
<defs>
<linearGradient id="paint0_linear_6041_96894" x1="99.1508" y1="14.6538" x2="45.6197" y2="195.82" gradientUnits="userSpaceOnUse">
<stop stop-color="#EFDBA4"/>
<stop offset="1" stop-color="#0E2663"/>
</linearGradient>
<linearGradient id="paint1_linear_6041_96894" x1="60.7675" y1="157.853" x2="46.2053" y2="65.6054" gradientUnits="userSpaceOnUse">
<stop stop-color="#697080"/>
<stop offset="1" stop-color="#14325B"/>
</linearGradient>
<linearGradient id="paint2_linear_6041_96894" x1="75.3458" y1="115.041" x2="79.8538" y2="162.662" gradientUnits="userSpaceOnUse">
<stop stop-color="#697080"/>
<stop offset="1" stop-color="#14325B"/>
</linearGradient>
<linearGradient id="paint3_linear_6041_96894" x1="106.532" y1="46.3939" x2="147.16" y2="101.189" gradientUnits="userSpaceOnUse">
<stop stop-color="#B3AB94"/>
<stop offset="1" stop-color="#14325B"/>
</linearGradient>
</defs>
</svg>
