<svg width="100%" height="100%" viewBox="0 0 170 170" fill="none" xmlns="http://www.w3.org/2000/svg">
<path d="M85.3899 167.762C131.329 167.762 168.57 130.521 168.57 84.582C168.57 38.6431 131.329 1.40234 85.3899 1.40234C39.451 1.40234 2.21021 38.6431 2.21021 84.582C2.21021 130.521 39.451 167.762 85.3899 167.762Z" fill="#040803"/>
<path d="M75.4946 141.411L68.8125 129.701L76.706 117.275L77.4526 98.9371L84.5821 90.0494L89.1523 82.1733L104.703 52.8933L157.649 93.2241L104.703 126.74L75.4946 141.411Z" fill="#84003F"/>
<path d="M34.1049 147.67L32.0859 144.832C32.0859 144.832 49.222 123.195 66.8802 115.164L77.0988 112.736L68.8124 129.701L75.4949 141.411L61.5638 144.832V131.72L34.1049 147.67Z" fill="#005B2A"/>
<path d="M120.199 117.315L119.153 127.643L138.535 126.74V108.079L120.199 117.315Z" fill="#030B03"/>
<path d="M34.105 147.67C34.105 147.67 47.6323 137.171 61.5634 131.72V144.831L45.5717 155.002C45.5717 155.002 41.5753 153.121 34.105 147.67Z" fill="#2182D9"/>
<path d="M97.0978 133.739C97.0978 133.739 97.0978 140.401 97.0978 149.083C97.0978 157.765 97.0978 166.245 97.0978 166.245C97.0978 166.245 77.9173 167.456 72.466 166.245C67.0147 165.033 57.0994 162.461 57.0994 162.461C57.0994 162.461 81.2434 140.2 97.0978 133.739Z" fill="#2182D9"/>
<path d="M97.0981 137.373C97.0981 137.373 74.4473 152.325 74.1872 166.508C74.1872 166.508 61.1792 161.847 62.3038 153.502C63.4284 145.158 97.0981 137.373 97.0981 137.373Z" fill="url(#paint0_linear_5858_94804)"/>
<path d="M110.76 31.8464C110.76 31.8464 143.602 56.5239 162.177 64.2405L132.834 73.9402C132.834 73.9402 125.028 71.599 119.643 64.2405C114.259 56.8821 104.703 46.3833 104.703 46.3833L110.76 31.8464Z" fill="url(#paint1_linear_5858_94804)"/>
<path d="M111.979 99.0462C111.979 99.0462 121.132 100.056 140.515 100.863L141.637 97.9858L110.846 93.1567L111.979 99.0462Z" fill="#050503"/>
<path d="M104.703 88.3785C104.703 88.3785 129.335 68.4578 164.869 61.7277L165.463 80.2048C165.463 80.2048 124.758 90.2626 104.703 88.3785Z" fill="url(#paint2_linear_5858_94804)"/>
<path d="M97.0977 133.739L120.518 120.615V126.268L136.266 126.066V109.511L162.177 93.1567L164.869 98.8774C164.869 98.8774 161.982 119.404 146.701 138.988C131.421 158.572 102.555 165.963 97.0977 166.245V133.739Z" fill="url(#paint3_linear_5858_94804)"/>
<path d="M120.199 158.953V130.71H128.796V154.375L120.199 158.953Z" fill="#1111AA"/>
<path d="M130.209 130.71L153.064 129.701C153.064 129.701 146.563 143.587 130.209 153.502V130.71Z" fill="#005B2A"/>
<path d="M164.869 93.2242C164.869 93.2242 123.682 120.413 117.759 124.182C111.837 127.951 89.7625 142.488 79.802 147.603C69.8415 152.717 58.2661 163.216 58.2661 163.216" stroke="#050503" stroke-width="3" stroke-miterlimit="10"/>
<path d="M44.5366 154.333C44.5366 154.333 65.4749 141.63 71.2924 137.752C77.11 133.873 97.569 126.874 104.03 123.374C110.491 119.875 164.869 80.437 164.869 80.437V93.2242C164.869 93.2242 123.682 120.413 117.759 124.182C111.836 127.951 89.7623 142.488 79.8017 147.603C69.8412 152.717 58.2658 163.216 58.2658 163.216L44.5366 154.333Z" fill="#DBBC0D"/>
<path d="M130.209 130.71C130.209 130.71 131.057 124.451 141.637 124.451C152.217 124.451 155.99 124.451 155.99 124.451L153.064 129.701L130.209 130.71Z" fill="#0063D0"/>
<path d="M105.926 91.068C105.926 91.068 123.424 102.105 164.881 98.3364L166.043 80.2046C166.043 80.2046 126.655 88.0844 104.715 87.8376L105.926 91.068Z" fill="#E02419"/>
<path d="M165.462 80.2046C165.462 80.2046 127.236 88.3925 105.296 88.1461" stroke="#050503" stroke-width="2" stroke-miterlimit="10"/>
<path d="M29.6633 143.43L31.3633 145.873C31.3633 145.873 41.1716 136.767 46.0173 132.729C50.8629 128.691 58.5351 123.442 61.5636 121.019C64.5921 118.596 77.0986 114.558 77.0986 114.558L82.1574 110.448C82.1574 110.448 89.7896 102.208 91.001 99.1795C91.001 99.1795 85.9773 95.6939 84.5818 95.169C83.1863 94.644 81.6474 93.1572 81.6474 93.1572L29.6633 143.43Z" fill="#050503"/>
<path d="M72.365 126.571C72.365 126.571 72.7688 124.148 79.1286 125.461C85.4885 126.773 90.3535 128.973 93.7664 126.571C96.4921 124.653 95.9873 121.827 95.7511 115.063C95.5149 108.296 95.6845 106.987 95.6845 106.987L76.7058 117.275L72.365 126.571Z" fill="#1B1AA4"/>
<path d="M84.1566 48.6713C84.1566 48.6713 77.5136 61.3236 66.8804 73.0338C66.8804 73.0338 84.6476 70.3416 90.5701 66.7074L92.7236 47.4595L84.1566 48.6713Z" fill="url(#paint4_linear_5858_94804)"/>
<path d="M16.2886 128.22C16.2886 128.22 25.2889 118.125 28.7886 114.76C32.2884 111.395 41.3064 102.916 46.2865 97.6661C51.2666 92.4167 66.2641 74.515 66.2641 74.515C66.2641 74.515 74.4887 72.8461 78.7056 71.4978L47.8347 104.127L28.6542 119.903L18.9629 130.711L16.2886 128.22Z" fill="#E03128"/>
<path d="M89.5136 68.5924C89.5136 68.5924 78.6578 71.7509 72.365 73.9403C72.365 73.9403 67.6353 77.0722 63.1523 83.533C58.6693 89.9938 52.8816 95.2432 48.4398 101.166C43.998 107.088 35.5982 109.139 30.8745 114.626C26.3318 119.903 18.9624 130.71 18.9624 130.71L25.172 138.618L46.1519 117.315L75.8987 88.6185L84.582 77.7449L93.6659 73.9541L89.5136 68.5924Z" fill="url(#paint5_linear_5858_94804)"/>
<path d="M4.42554 90.0496C4.42554 90.0496 21.6545 85.5521 29.6631 83.1293C37.6716 80.7065 54.1398 76.259 62.3035 75.1732L41.4403 96.4547L25.9618 115.164L15.1937 122.702C15.1937 122.702 5.09867 108.276 4.42554 90.0496Z" fill="#84003F"/>
<path d="M3.8876 79.4844C3.8876 79.4844 3.61827 77.7449 4.42587 76.6679C4.42587 76.6679 21.251 75.6968 33.365 75.1727C45.479 74.6485 63.7809 73.5518 66.8805 73.0337C69.98 72.5157 88.6768 67.6765 88.6768 67.6765L89.5135 69.6689L59.8806 76.2339L27.9808 79.4844H3.8876Z" fill="url(#paint6_linear_5858_94804)"/>
<path d="M55.1026 104.009C55.1026 104.009 42.6607 111.383 36.7373 120.582C29.7168 131.485 22.4622 137.373 22.4622 137.373L29.6631 143.43L92.7234 76.3901L90.7456 70.2863C90.7456 70.2863 61.0925 74.164 55.1026 104.009Z" fill="#050503"/>
<path d="M9.48926 114.477C9.48926 114.477 14.8731 122.553 13.1235 124.169L42.5177 100.628L63.1527 76.9378L62.3039 75.1736C62.3039 75.1736 52.576 78.8223 46.6046 86.0907C40.6332 93.3591 27.8206 112.398 9.48926 114.477Z" fill="#1B1AA4"/>
<path d="M12.1763 123.946C12.1763 123.946 29.8652 110.789 34.1051 106.987C38.345 103.184 50.1896 91.6089 53.1511 87.1671C56.1126 82.7253 62.3041 75.173 62.3041 75.173L66.2641 74.5144L65.5345 77.6103L42.114 104.127L26.7696 118.125L15.569 129.701L12.1763 123.946Z" fill="#160C0D"/>
<path d="M124.399 69.4538C124.399 69.4538 125.409 68.8481 126.241 67.031C130.983 63.9016 136.098 56.7366 137.663 54.5213C140.49 50.5221 142.307 47.855 145.538 46.9444C148.768 46.0338 145.891 38.0386 145.891 38.0386L123.39 63.8006L110.035 58.955L107.036 60.1664C107.036 60.1664 107.661 62.1529 114.506 66.6272C121.351 71.1015 124.399 69.4538 124.399 69.4538Z" fill="#040803"/>
<path d="M94.9988 80.7455C94.9988 80.7455 84.3126 72.3469 84.5815 64.5402C84.8505 56.7335 86.2565 53.875 85.3891 52.8938C84.5218 51.9121 75.8146 53.3069 70.8341 56.5373C65.8537 59.7677 50.785 53.7478 43.3321 56.1767C43.3321 56.1767 41.0438 58.3301 37.2751 59.4071C33.5064 60.484 24.3535 59.4071 27.5839 62.503C27.5839 62.503 22.8578 61.5609 24.0094 59.6764C25.1611 57.7919 73.752 45.0051 73.752 45.0051L96.6342 47.461L94.9988 80.7455Z" fill="#050503"/>
<path d="M114.647 37.3433L114.663 39.3837C114.663 39.3837 111.01 41.3599 110.104 42.1433C109.415 42.7393 109.216 44.902 109.216 44.902C109.216 44.902 118.202 53.2203 121.32 59.0653L95.2428 39.8267C95.2428 39.8267 96.9824 37.6631 96.6343 36.2801C95.964 33.6158 89.5133 21.9056 97.7214 22.3034C111.104 22.9519 114.647 37.3433 114.647 37.3433Z" fill="#040803"/>
<path d="M3.88745 79.4844L4.42572 90.049L57.364 76.4902C57.364 76.4902 35.0887 78.1495 3.88745 79.4844Z" fill="#E0B507"/>
<path d="M91.259 75.3088C91.259 75.3088 80.3406 73.1687 69.6399 83.4656C58.9392 93.7625 57.8049 104.418 57.8049 104.418C57.8049 104.418 42.9886 114.76 39.7582 119.808C36.5278 124.855 27.2404 135.96 24.01 137.373L29.6632 143.43C29.6632 143.43 46.4209 128.287 49.4494 125.057C52.4779 121.827 78.9006 95.3777 89.5137 90.5321C89.5137 90.5321 97.7198 83.7664 91.259 75.3088Z" fill="url(#paint7_linear_5858_94804)"/>
<path d="M83.6664 78.241C81.3074 79.9095 71.8302 93.5196 88.4106 100.204C88.829 100.373 88.8633 100.951 88.4627 101.158C86.0553 102.404 78.6504 104.506 77.1248 106.987C75.1874 110.138 68.7334 111.002 65.3609 117.861C61.9883 124.721 58.0561 127.006 59.8809 130.203C61.358 132.791 70.6737 138.533 74.171 140.627C74.5962 140.882 74.939 140.493 74.9342 139.997C74.7832 125.043 72.8235 119.147 88.4708 113.278C95.6508 110.584 103.071 107.052 109.216 103.911C111.353 102.819 114.021 102.239 115.876 101.555C118.115 100.729 120 98.2183 121.311 97.9893C121.656 97.9287 113.417 93.8286 113.231 93.531C101.156 74.2232 86.2911 76.3844 83.6664 78.241Z" fill="#050503"/>
<path d="M84.5821 79.764C84.5821 79.764 77.2447 88.6476 90.0318 96.7237C90.0318 96.7237 95.2812 99.4158 97.0309 99.9541C97.0309 99.9541 90.4356 101.435 87.4742 104.53C84.5131 107.626 74.1487 114.895 73.3411 115.298C72.5335 115.702 70.649 122.029 67.2841 124.72C63.9193 127.412 62.573 129.97 63.3806 130.777C64.1882 131.585 75.4946 141.411 75.4946 141.411C75.4946 141.411 76.9527 141.411 74.2832 132.931C72.9373 130.777 72.668 127.143 73.3411 125.932C74.0143 124.72 76.9753 118.26 78.1867 117.586C79.3981 116.913 91.6466 110.049 95.6846 108.568C99.7226 107.088 107.126 103.184 108.337 102.108C109.548 101.031 112.106 101.165 112.913 99.6847C113.721 98.204 115.874 97.5313 115.874 97.5313C115.874 97.5313 112.913 95.5123 111.836 95.1085C110.76 94.7047 100.938 77.0723 84.5821 79.764Z" fill="url(#paint8_linear_5858_94804)"/>
<path d="M30.2689 54.19C30.2689 54.19 36.124 54.3919 57.7274 44.9026C57.7274 44.9026 59.6119 45.037 60.8233 44.9026C62.0347 44.7681 75.4045 38.8992 80.385 37.9571C89.6724 36.7457 94.4506 40.5819 95.9313 40.5819C97.412 40.5819 99.0499 36.2883 97.9729 34.4042C96.896 32.5196 94.7425 24.7129 95.4157 23.3671C96.0888 22.0212 106.991 20.6749 111.702 27.9433C116.413 35.2118 114.663 39.3842 114.663 39.3842L107.664 41.4032C107.664 41.4032 106.318 43.5567 107.126 44.6336C107.933 45.7106 120.855 55.5362 121.797 60.3819C121.797 60.3819 123.009 61.9971 123.951 60.3819C124.893 58.7667 131.219 52.1714 134.719 49.2099C138.219 46.2488 140.641 42.2682 140.776 41.7012C140.91 41.1339 141.314 36.6921 142.122 36.6921C142.929 36.6921 145.89 38.038 145.89 38.038C145.89 38.038 147.102 42.4798 146.563 44.095C146.025 45.7102 144.275 45.037 142.122 47.3254C139.968 49.6137 131.354 61.9967 126.104 65.2271C126.104 65.2271 124.22 66.9767 123.816 67.6499C123.412 68.323 122.066 68.5919 119.912 67.6499C117.759 66.7078 109.548 59.9776 109.548 59.9776C109.548 59.9776 108.202 66.9852 107.26 68.2596C106.317 69.534 93.8836 78.1353 93.8836 78.1353C93.8836 78.1353 87.6118 71.3301 88.4852 64.2406C89.3587 57.151 90.0314 50.5558 91.6466 48.9406C93.2618 47.3254 73.0718 51.9016 67.6879 55.5358C67.6879 55.5358 50.19 54.4589 45.7482 54.19C41.3064 53.9206 42.3833 56.0745 40.7681 56.6128C39.1529 57.151 33.7691 59.8432 31.4807 59.7087C29.1924 59.5743 25.962 59.8432 26.3658 60.9201C26.7696 61.9971 27.3737 62.8047 26.3315 62.5353C25.2893 62.266 22.4626 60.3819 22.4626 60.3819V56.6128C22.4626 56.6128 25.5586 54.3244 26.3662 53.3824C27.1734 52.4403 30.2689 54.19 30.2689 54.19Z" fill="url(#paint9_linear_5858_94804)"/>
<path d="M57.7279 44.9026C57.7279 44.9026 51.4973 48.5227 50.6897 50.6761C50.6897 50.6761 62.513 51.2019 66.6289 46.901C66.6289 46.901 59.7857 45.1861 57.7279 44.9026Z" fill="#E02110"/>
<path d="M39.7582 119.808C36.5278 124.855 27.2404 135.96 24.01 137.373L29.6632 143.43C29.6632 143.43 41.6315 132.615 47.1672 127.315C50.9463 123.56 54.2551 120.57 55.2395 119.232C58.3052 115.066 50.7359 115.164 50.7359 115.164L57.7274 104.463C57.7274 104.463 42.9886 114.76 39.7582 119.808Z" fill="url(#paint10_linear_5858_94804)"/>
<path d="M112.914 99.685C113.721 98.2043 115.875 97.5316 115.875 97.5316C115.875 97.5316 112.914 95.5126 111.837 95.1088C111.32 94.9149 108.789 90.755 104.49 86.7767L102.557 91.5763C102.557 91.5763 110.18 97.6656 108.337 102.108C109.549 101.031 112.106 101.165 112.914 99.685Z" fill="#E4CE01"/>
<path d="M70.0602 83.0533C69.8846 83.2153 69.7081 83.3719 69.5341 83.5395C62.707 90.1094 59.7455 96.8383 58.4937 100.853C56.6754 108.165 57.2 113.579 57.3001 117.191C62.7361 111.919 70.0558 105.063 76.7136 99.5341C73.9355 95.0175 71.4953 87.8085 70.0602 83.0533Z" fill="url(#paint11_linear_5858_94804)"/>
<path d="M102.557 91.5759C102.557 91.5759 103.961 89.7051 105.073 87.3271C100.399 82.8215 93.4513 78.3042 84.5818 79.7643C84.5818 79.7643 82.2451 82.5945 82.5079 86.5118C85.2449 86.2885 94.4213 86.039 102.557 91.5759Z" fill="url(#paint12_linear_5858_94804)"/>
<path d="M97.1141 66.2232C92.85 65.6713 88.4324 69.4536 88.4324 69.4536C91.4609 79.9524 94.2875 78.5391 94.2875 78.5391C96.9283 69.4537 99.8587 66.5786 97.1141 66.2232Z" fill="#84003F"/>
<path d="M107.411 68.0403C107.411 68.0403 105.594 68.848 98.9312 61.9833C92.8742 56.1282 92.2814 74.03 92.6723 77.5297C93.0628 81.029 101.96 75.5107 107.411 68.0403Z" fill="url(#paint13_linear_5858_94804)"/>
<path d="M71.2835 46.3688C82.5899 44.4842 86.4915 41.7925 91.0015 41.7925C94.8102 41.7925 95.9101 42.4539 96.687 40.1555C93.9125 41.8772 89.8745 37.1496 80.1833 38.1591C75.2033 39.1012 62.0349 44.7681 60.8235 44.9026C59.6121 45.037 57.7275 44.9026 57.7275 44.9026C57.7275 44.9026 59.9771 48.2533 71.2835 46.3688Z" fill="url(#paint14_linear_5858_94804)"/>
<path d="M92.6244 46.6828C92.6244 46.6828 93.4797 65.6175 93.6816 69.2517C93.8835 72.8859 91.7562 77.1927 88.6341 70.0593C85.5121 62.9259 92.6244 46.6828 92.6244 46.6828Z" fill="url(#paint15_linear_5858_94804)"/>
<path d="M98.5015 22.3722V36.2561C98.5015 36.2561 101.679 28.2661 108.287 24.5673C105.082 22.5111 101.173 22.1174 98.5015 22.3722Z" fill="#0173C0"/>
<path d="M98.5015 36.256C100.177 33.1754 100.241 26.3326 100.113 22.3039C97.6066 22.2865 95.6858 22.826 95.4156 23.3663C94.7425 24.7121 96.8964 32.5192 97.9729 34.4034C98.2636 34.9125 98.4328 35.5695 98.5015 36.256Z" fill="#E02110"/>
<path d="M92.6722 40.9856C92.6722 40.9856 111.012 42.7879 91.4609 57.5415C86.7652 62.5344 90.8551 52.0902 92.6722 40.9856Z" fill="#0AAC3B"/>
<path d="M107.516 41.665C104.707 37.9101 98.5019 36.2561 98.5019 36.2561C98.6869 38.1124 98.1118 40.1915 97.0313 40.1915C96.8282 40.1915 96.4575 40.1213 95.9648 40.0054C101.138 41.298 105.003 43.1631 106.927 44.2114C106.693 43.3493 107.239 42.1786 107.516 41.665Z" fill="#0573D9"/>
<path d="M107.815 45.2259C107.815 45.2259 108.6 51.7819 111.937 54.3727C115.274 56.9636 114.679 54.917 114.679 54.917C114.679 54.917 114.477 47.6486 107.815 45.2259Z" fill="#0573D9"/>
<path d="M124.312 64.0205C123.445 62.0492 121.027 60.6431 119.133 59.8165C116.906 58.8442 111.502 58.9593 111.413 55.7434C111.395 55.0868 110.398 55.0836 110.391 55.7434C110.364 58.2672 112.574 59.4454 114.742 59.9987C116.442 60.4323 118.057 60.8236 119.595 61.7188C121.066 62.5745 122.135 63.8925 123.548 64.7849C124.066 65.1116 124.518 64.4885 124.312 64.0205Z" fill="#040803"/>
<path d="M95.1022 45.4537C92.3571 46.5965 89.4017 48.0017 87.4223 50.2993C87.0597 50.7201 87.5087 51.3355 88.0187 51.0722C90.6172 49.7308 92.9548 47.8914 95.5544 46.5262C96.1303 46.2238 95.7236 45.1949 95.1022 45.4537Z" fill="#040803"/>
<path d="M105.588 29.0671C105.244 28.6577 104.544 29.1955 104.845 29.6405C107.432 33.4762 107.592 37.3369 107.187 41.7719C107.142 42.2722 107.951 42.502 108.157 42.0348C110.053 37.7428 108.465 32.501 105.588 29.0671Z" fill="#040803"/>
<path d="M100.749 25.0365C100.721 24.6994 100.234 24.6917 100.219 25.0365C100.106 27.5898 99.7971 30.1737 99.2443 32.6696C98.7298 34.9918 97.7631 37.1542 97.1865 39.4417C97.0302 40.0628 97.8903 40.4391 98.2243 39.8794C100.731 35.6811 101.142 29.7905 100.749 25.0365Z" fill="#040803"/>
<path d="M95.2426 39.8274C95.0488 39.9429 94.8469 40.043 94.6418 40.1367C90.2868 36.7755 83.8026 36.874 78.7167 38.1084C71.8836 39.7668 65.697 43.3066 58.8905 45.057C58.1855 44.9359 57.7397 44.8672 57.7276 44.9024C55.1743 46.1182 53.1166 47.0336 50.8767 48.7712C49.0232 50.2087 47.4298 51.8599 45.4859 53.0628C40.8495 52.4817 36.6787 54.9538 32.0721 55.1686C31.888 55.1771 31.8908 55.4379 32.0721 55.4525C34.4113 55.6406 36.5204 55.0547 38.7893 54.59C40.2967 54.281 41.7359 54.2003 43.1835 54.1938C42.9953 54.3557 43.0627 54.7058 43.362 54.7115C44.2511 54.7293 45.0543 54.5447 45.7985 54.2294C46.1231 54.2366 46.4506 54.2431 46.7813 54.2475C47.1944 54.2532 47.343 53.7666 47.1375 53.4957C48.2096 52.7838 49.1795 51.8574 50.1555 50.9889C52.6902 48.7332 55.2773 47.5424 58.1641 45.8077C58.2683 45.7944 58.372 45.7794 58.4758 45.7649C63.9251 48.8338 70.2482 47.5457 76.0242 45.6587C79.4003 44.5555 82.7769 43.5767 86.2666 42.8955C88.0106 42.5551 89.7639 42.2627 91.5196 41.9902C93.0399 41.7543 94.4298 42.4949 95.831 41.8436C95.9525 41.7871 98.345 40.3382 98.2247 39.8791C98.0781 39.319 95.3856 39.7422 95.2426 39.8274ZM87.4235 41.3833C84.1765 41.934 80.9453 42.6294 77.8118 43.6522C74.5761 44.7086 71.372 46.0245 67.932 46.2075C66.2643 46.2959 63.0484 45.7794 60.6705 45.3684C71.6676 42.952 82.3412 34.71 93.1053 40.6504C91.2955 41.0756 89.2632 41.0707 87.4235 41.3833Z" fill="#040803"/>
<path d="M70.785 55.3844C64.3254 53.8803 58.299 49.3472 51.4437 50.2671C50.8966 50.3406 50.853 51.1732 51.4437 51.1566C58.3576 50.9652 63.8594 56.1541 70.6444 56.4254C71.238 56.4492 71.3688 55.5205 70.785 55.3844Z" fill="#040803"/>
<path d="M27.7308 53.6034C26.796 53.8574 25.9762 54.5467 25.2183 55.1261C24.4794 55.691 23.5878 56.2992 23.0753 57.0862C22.9837 57.2271 23.1605 57.3789 23.2954 57.3063C24.1535 56.8443 24.8747 56.09 25.6879 55.542C26.439 55.0357 27.3169 54.6509 27.9795 54.0302C28.1685 53.8534 27.9714 53.538 27.7308 53.6034Z" fill="#040803"/>
<path d="M28.1267 55.0259C27.2703 55.2783 26.5487 55.8775 25.8133 56.3681C24.9827 56.9222 24.1521 57.4762 23.3215 58.0298C23.1204 58.1638 23.2989 58.4788 23.5125 58.3569C24.3778 57.8626 25.2432 57.368 26.1089 56.8737C26.8757 56.4356 27.7399 56.0576 28.348 55.4059C28.4978 55.2448 28.3516 54.9597 28.1267 55.0259Z" fill="#040803"/>
<path d="M38.5224 56.2744C37.0287 56.3665 35.5722 56.7549 34.0741 56.8256C33.1002 56.8716 32.1351 56.8058 31.1971 56.5183C30.6568 56.3527 30.123 55.9792 29.5395 55.9607C27.8815 55.9082 25.9949 57.6082 24.6959 58.6992C24.6943 58.6443 24.6894 58.5914 24.689 58.5357C24.6862 58.2078 24.1923 58.0334 24.0365 58.3588C23.6545 59.1567 23.667 60.0879 24.0054 60.9036C24.3175 61.6563 24.9394 62.5878 25.8265 62.6419C26.2101 62.6654 26.4039 62.2196 26.2432 61.9155C25.9541 61.3679 25.3771 61.0465 25.09 60.4715C24.8986 60.0879 24.7992 59.6994 24.7451 59.2981C25.7716 58.5704 26.851 57.8036 28.0107 57.3061C29.5726 56.6358 30.4638 57.3089 31.9336 57.634C34.1081 58.1145 36.5547 57.8973 38.6407 57.1474C39.0833 56.9891 39.0554 56.2413 38.5224 56.2744Z" fill="#040803"/>
<path d="M147.168 43.2238C146.938 43.145 146.671 43.1794 146.416 43.2662C146.343 43.2609 146.269 43.271 146.199 43.3138C146.165 43.189 146.119 43.0699 146.062 42.9581C146.136 42.8196 146.214 42.6839 146.287 42.545C146.355 42.4154 146.342 42.2526 146.278 42.1182C146.519 41.9768 146.767 41.8472 146.994 41.6897C147.165 41.5714 147.101 41.3142 146.889 41.3017C146.274 41.2649 145.735 41.6094 145.327 42.0798C145.255 42.1093 145.183 42.138 145.111 42.1674C145.123 41.9716 145.124 41.7717 145.107 41.552C145.077 41.1515 144.606 40.9132 144.297 41.2161C143.892 41.6126 143.571 42.0116 143.284 42.4711C143.191 42.2635 143.092 42.058 143.01 41.8323C142.823 41.3142 142.686 41.0566 142.925 40.4125C143.086 39.9772 143.402 39.5552 143.673 39.1858C143.887 38.895 143.45 38.6406 143.212 38.8304C142.412 39.4688 141.382 40.5155 141.563 41.6393C141.61 41.9312 142.052 42.5034 142.12 42.6879C142.281 43.1256 142.305 43.6175 142.288 44.077C142.253 45.017 141.928 45.9688 141.852 46.9189C141.845 46.9985 141.864 47.0635 141.892 47.1217C141.24 47.9717 140.689 48.8838 140.194 49.8356C139.988 50.2317 140.527 50.5293 140.782 50.1796C141.775 48.8168 142.909 47.5473 144.156 46.4106C144.236 46.3379 144.32 46.2664 144.407 46.1949C144.601 46.4332 145.039 46.5051 145.283 46.178C145.794 45.4919 146.299 44.7865 146.713 44.0366C146.923 43.9522 147.13 43.8654 147.303 43.7305C147.495 43.5783 147.359 43.2896 147.168 43.2238ZM144.156 44.7618C144.151 44.7647 144.148 44.7683 144.143 44.7711C143.904 44.9767 143.674 45.1923 143.446 45.4095C143.61 44.7889 143.663 44.142 143.583 43.4899C143.652 43.4725 143.721 43.4442 143.785 43.3901C143.861 43.3251 143.937 43.2609 144.013 43.1959C144.129 43.4313 144.438 43.5399 144.694 43.4984C144.705 43.5819 144.709 43.6615 144.71 43.7386C144.532 44.0827 144.343 44.4218 144.156 44.7618Z" fill="#040803"/>
<path d="M81.0511 52.0952C78.3775 55.0974 76.2531 58.8386 73.9971 62.1668C71.5808 65.7315 68.8511 69.1263 66.4251 72.6842C66.18 73.0435 66.7453 73.3484 66.9973 73.0185C70.8669 69.05 72.3864 66.5137 74.8358 63.1096C77.2194 59.7973 80.036 56.3714 81.8539 52.7146C82.0982 52.2236 81.4593 51.6373 81.0511 52.0952Z" fill="#040803"/>
<path d="M59.9502 92.446C56.1977 100.465 55.5969 110.194 57.0021 118.83C57.0655 119.219 57.7083 119.128 57.6898 118.736C57.4879 114.472 57.5412 110.128 58.0261 105.884C58.5365 101.417 59.6329 97.0958 60.5903 92.7158C60.6702 92.3499 60.1271 92.0677 59.9502 92.446Z" fill="#040803"/>
<path d="M50.8276 114.232C46.538 119.665 43.4312 126.1 42.6183 133.024C42.5779 133.367 43.1287 133.428 43.2131 133.104C44.9398 126.494 47.445 120.296 51.4963 114.748C51.7789 114.362 51.1276 113.852 50.8276 114.232Z" fill="#050503"/>
<path d="M98.1066 88.3992C92.9125 85.997 87.1636 85.3085 81.6045 86.7222C81.1228 86.8445 81.2068 87.6812 81.7252 87.6146C86.761 86.9669 92.0044 87.493 96.6727 89.5629C98.9227 90.5607 101.098 91.9001 102.905 93.5779C104.839 95.374 105.781 97.3627 106.752 99.7569C106.987 100.336 107.829 100.279 107.868 99.6058C108.17 94.4101 102.213 90.2986 98.1066 88.3992Z" fill="#050503"/>
<path d="M134.571 52.8285C131.582 55.6518 129.044 59.0389 126.482 62.2455C126.267 62.5148 126.623 62.8968 126.871 62.6335C129.704 59.6305 132.715 56.6177 135.106 53.2411C135.337 52.9161 134.843 52.572 134.571 52.8285Z" fill="#040803"/>
<path fill-rule="evenodd" clip-rule="evenodd" d="M85 4.84641C40.7324 4.84641 4.84641 40.7324 4.84641 85C4.84641 129.268 40.7324 165.154 85 165.154C129.268 165.154 165.154 129.268 165.154 85C165.154 40.7324 129.268 4.84641 85 4.84641ZM0 85C0 38.0558 38.0558 0 85 0C131.944 0 170 38.0558 170 85C170 131.944 131.944 170 85 170C38.0558 170 0 131.944 0 85Z" fill="url(#paint16_linear_5858_94804)"/>
<defs>
<linearGradient id="paint0_linear_5858_94804" x1="66.7262" y1="147.774" x2="83.1687" y2="154.155" gradientUnits="userSpaceOnUse">
<stop stop-color="#2182D9"/>
<stop offset="0.8909" stop-color="#06181B"/>
<stop offset="1" stop-color="#030B03"/>
</linearGradient>
<linearGradient id="paint1_linear_5858_94804" x1="106.177" y1="43.7183" x2="155.237" y2="73.6591" gradientUnits="userSpaceOnUse">
<stop stop-color="#050042"/>
<stop offset="1" stop-color="#0E8F54"/>
</linearGradient>
<linearGradient id="paint2_linear_5858_94804" x1="131.419" y1="59.6531" x2="139.937" y2="98.6118" gradientUnits="userSpaceOnUse">
<stop stop-color="#00FF59"/>
<stop offset="0.3454" stop-color="#008577"/>
<stop offset="0.7871" stop-color="#0A3CDF"/>
<stop offset="1" stop-color="#008479"/>
</linearGradient>
<linearGradient id="paint3_linear_5858_94804" x1="95.5713" y1="154.2" x2="212.182" y2="44.0447" gradientUnits="userSpaceOnUse">
<stop stop-color="#FAFF0A"/>
<stop offset="0.7871" stop-color="#D40D12"/>
<stop offset="1" stop-color="#B600E0"/>
</linearGradient>
<linearGradient id="paint4_linear_5858_94804" x1="96.5371" y1="45.0238" x2="67.9299" y2="83.89" gradientUnits="userSpaceOnUse">
<stop stop-color="#050042"/>
<stop offset="1" stop-color="#1799D0"/>
</linearGradient>
<linearGradient id="paint5_linear_5858_94804" x1="19.6148" y1="133.439" x2="88.8663" y2="68.4787" gradientUnits="userSpaceOnUse">
<stop stop-color="#0748E1"/>
<stop offset="1" stop-color="#1B1AA4"/>
</linearGradient>
<linearGradient id="paint6_linear_5858_94804" x1="3.84456" y1="73.5806" x2="89.5139" y2="73.5806" gradientUnits="userSpaceOnUse">
<stop stop-color="#FA2A2F"/>
<stop offset="1" stop-color="#DC5255"/>
</linearGradient>
<linearGradient id="paint7_linear_5858_94804" x1="54.138" y1="115.285" x2="99.3467" y2="67.4571" gradientUnits="userSpaceOnUse">
<stop stop-color="#FFC300"/>
<stop offset="1" stop-color="#D40D12"/>
</linearGradient>
<linearGradient id="paint8_linear_5858_94804" x1="61.9652" y1="131.205" x2="159.934" y2="46.2352" gradientUnits="userSpaceOnUse">
<stop stop-color="#FAFF0A"/>
<stop offset="0.7871" stop-color="#D40D12"/>
<stop offset="1" stop-color="#B600E0"/>
</linearGradient>
<linearGradient id="paint9_linear_5858_94804" x1="143.349" y1="13.5272" x2="152.761" y2="133.105" gradientUnits="userSpaceOnUse">
<stop stop-color="#FAFF0A"/>
<stop offset="1" stop-color="#D40D12"/>
</linearGradient>
<linearGradient id="paint10_linear_5858_94804" x1="23.2506" y1="137.008" x2="85.0306" y2="82.5492" gradientUnits="userSpaceOnUse">
<stop stop-color="#FFC300"/>
<stop offset="0.7871" stop-color="#D40D12"/>
<stop offset="1" stop-color="#B600E0"/>
</linearGradient>
<linearGradient id="paint11_linear_5858_94804" x1="56.7128" y1="111.566" x2="104.217" y2="83.8369" gradientUnits="userSpaceOnUse">
<stop stop-color="#FAFF0A"/>
<stop offset="1" stop-color="#D40D12"/>
</linearGradient>
<linearGradient id="paint12_linear_5858_94804" x1="82.4875" y1="85.5302" x2="105.073" y2="85.5302" gradientUnits="userSpaceOnUse">
<stop stop-color="#12AB34"/>
<stop offset="1" stop-color="#04AD40"/>
</linearGradient>
<linearGradient id="paint13_linear_5858_94804" x1="102.565" y1="57.5416" x2="85.6766" y2="78.5215" gradientUnits="userSpaceOnUse">
<stop stop-color="#FAFF0A"/>
<stop offset="1" stop-color="#D40D12"/>
</linearGradient>
<linearGradient id="paint14_linear_5858_94804" x1="74.8581" y1="37.3272" x2="76.3734" y2="50.7106" gradientUnits="userSpaceOnUse">
<stop stop-color="#00FF59"/>
<stop offset="0.3454" stop-color="#008577"/>
<stop offset="0.7871" stop-color="#0A3CDF"/>
<stop offset="1" stop-color="#008479"/>
</linearGradient>
<linearGradient id="paint15_linear_5858_94804" x1="92.735" y1="60.9533" x2="107.182" y2="58.1418" gradientUnits="userSpaceOnUse">
<stop stop-color="#FFC300"/>
<stop offset="1" stop-color="#D40D12"/>
</linearGradient>
<linearGradient id="paint16_linear_5858_94804" x1="117.633" y1="-13.4536" x2="59.7212" y2="169.879" gradientUnits="userSpaceOnUse">
<stop stop-color="#FFE391"/>
<stop offset="0.260417" stop-color="#EADCB5"/>
<stop offset="0.473958" stop-color="white"/>
<stop offset="0.65625" stop-color="#C9AF63"/>
<stop offset="1" stop-color="#9C802F"/>
</linearGradient>
</defs>
</svg>
