<svg width="176" height="176" viewBox="0 0 176 176" fill="none" xmlns="http://www.w3.org/2000/svg">
    <g clip-path="url(#clip0_7076_104567)">
        <path
            d="M88.3484 161.999C129.423 161.999 162.721 128.701 162.721 87.6263C162.721 46.5516 129.423 13.2539 88.3484 13.2539C47.2736 13.2539 13.976 46.5516 13.976 87.6263C13.976 128.701 47.2736 161.999 88.3484 161.999Z"
            fill="#040803" />
        <path
            d="M79.5011 138.438L73.5265 127.968L80.5842 116.858L81.2518 100.462L87.6264 92.515L91.7127 85.4728L105.617 59.2931L152.956 95.3536L105.617 125.32L79.5011 138.438Z"
            fill="#84003F" />
        <path
            d="M42.4938 144.034L40.6886 141.496C40.6886 141.496 56.0103 122.151 71.7988 114.97L80.9354 112.799L73.5264 127.968L79.5013 138.438L67.0453 141.496V129.773L42.4938 144.034Z"
            fill="#005B2A" />
        <path d="M119.472 116.893L118.537 126.128L135.867 125.32V108.635L119.472 116.893Z" fill="#030B03" />
        <path
            d="M42.4939 144.034C42.4939 144.034 54.5889 134.647 67.045 129.773V141.496L52.7465 150.59C52.7465 150.59 49.1732 148.908 42.4939 144.034Z"
            fill="#2182D9" />
        <path
            d="M98.8172 131.578C98.8172 131.578 98.8172 137.535 98.8172 145.298C98.8172 153.06 98.8172 160.642 98.8172 160.642C98.8172 160.642 81.6675 161.725 76.7934 160.642C71.9193 159.559 63.0538 157.26 63.0538 157.26C63.0538 157.26 84.6414 137.355 98.8172 131.578Z"
            fill="#2182D9" />
        <path
            d="M98.8166 134.828C98.8166 134.828 78.5641 148.196 78.3316 160.878C78.3316 160.878 66.7009 156.71 67.7064 149.249C68.7119 141.788 98.8166 134.828 98.8166 134.828Z"
            fill="url(#paint0_linear_7076_104567)" />
        <path
            d="M111.032 40.4742C111.032 40.4742 140.397 62.5388 157.005 69.4384L130.769 78.111C130.769 78.111 123.789 76.0177 118.975 69.4384C114.161 62.859 105.616 53.4719 105.616 53.4719L111.032 40.4742Z"
            fill="url(#paint1_linear_7076_104567)" />
        <path
            d="M112.122 100.559C112.122 100.559 120.306 101.462 137.636 102.184L138.64 99.6108L111.109 95.2931L112.122 100.559Z"
            fill="#050503" />
        <path
            d="M105.617 91.0206C105.617 91.0206 127.641 73.2092 159.413 67.1917L159.943 83.7124C159.943 83.7124 123.549 92.7053 105.617 91.0206Z"
            fill="url(#paint2_linear_7076_104567)" />
        <path
            d="M98.8167 131.578L119.757 119.844V124.899L133.838 124.718V109.915L157.005 95.2931L159.412 100.408C159.412 100.408 156.831 118.761 143.168 136.272C129.505 153.782 103.696 160.391 98.8167 160.642V131.578Z"
            fill="url(#paint3_linear_7076_104567)" />
        <path d="M119.472 154.123V128.87H127.159V150.03L119.472 154.123Z" fill="#1111AA" />
        <path d="M128.423 128.87L148.857 127.968C148.857 127.968 143.045 140.383 128.423 149.249V128.87Z"
            fill="#005B2A" />
        <path
            d="M159.413 95.3534C159.413 95.3534 122.586 119.664 117.291 123.034C111.995 126.403 92.2583 139.401 83.3524 143.974C74.4465 148.547 64.0968 157.934 64.0968 157.934"
            stroke="#050503" stroke-width="3" stroke-miterlimit="10" />
        <path
            d="M51.821 149.991C51.821 149.991 70.5423 138.634 75.7439 135.166C80.9455 131.698 99.2382 125.44 105.015 122.311C110.792 119.182 159.412 83.9202 159.412 83.9202V95.3534C159.412 95.3534 122.586 119.664 117.29 123.034C111.995 126.403 92.2581 139.401 83.3522 143.974C74.4463 148.547 64.0966 157.934 64.0966 157.934L51.821 149.991Z"
            fill="url(#paint4_linear_7076_104567)" />
        <path
            d="M128.423 128.87C128.423 128.87 129.18 123.274 138.64 123.274C148.1 123.274 151.474 123.274 151.474 123.274L148.857 127.968L128.423 128.87Z"
            fill="#0063D0" />
        <path
            d="M106.711 93.4255C106.711 93.4255 122.356 103.294 159.424 99.9243L160.462 83.7123C160.462 83.7123 125.245 90.7577 105.628 90.5371L106.711 93.4255Z"
            fill="#E02419" />
        <path d="M159.943 83.7123C159.943 83.7123 125.764 91.0332 106.147 90.813" stroke="#050503" stroke-width="2"
            stroke-miterlimit="10" />
        <path
            d="M38.5222 140.243L40.0422 142.428C40.0422 142.428 48.812 134.286 53.1445 130.676C57.4771 127.065 64.3369 122.372 67.0448 120.205C69.7526 118.039 80.9349 114.429 80.9349 114.429L85.4581 110.754C85.4581 110.754 92.2822 103.386 93.3653 100.678C93.3653 100.678 88.8736 97.5617 87.6258 97.0923C86.378 96.6229 85.0021 95.2936 85.0021 95.2936L38.5222 140.243Z"
            fill="#050503" />
        <path
            d="M76.7031 125.17C76.7031 125.17 77.0642 123.003 82.7506 124.177C88.4371 125.35 92.787 127.317 95.8385 125.17C98.2756 123.455 97.8243 120.927 97.6131 114.88C97.4018 108.829 97.5535 107.659 97.5535 107.659L80.5844 116.858L76.7031 125.17Z"
            fill="#1B1AA4" />
        <path
            d="M87.2458 55.5178C87.2458 55.5178 81.3062 66.8304 71.7988 77.3008C71.7988 77.3008 87.6848 74.8937 92.9803 71.6443L94.9057 54.4343L87.2458 55.5178Z"
            fill="url(#paint5_linear_7076_104567)" />
        <path
            d="M26.5638 126.644C26.5638 126.644 34.6112 117.617 37.7404 114.609C40.8695 111.6 48.9328 104.018 53.3855 99.3248C57.8383 94.6312 71.2479 78.625 71.2479 78.625C71.2479 78.625 78.6016 77.1328 82.372 75.9272L54.7698 105.101L37.6201 119.207L28.955 128.871L26.5638 126.644Z"
            fill="#E03128" />
        <path
            d="M92.0357 73.3296C92.0357 73.3296 82.3293 76.1537 76.7028 78.1113C76.7028 78.1113 72.4739 80.9115 68.4656 86.6883C64.4572 92.465 59.2824 97.1586 55.3109 102.454C51.3394 107.749 43.8289 109.583 39.6054 114.489C35.5437 119.207 28.9546 128.87 28.9546 128.87L34.5067 135.941L53.2652 116.893L79.8623 91.2353L87.6262 81.513L95.7483 78.1235L92.0357 73.3296Z"
            fill="url(#paint6_linear_7076_104567)" />
        <path
            d="M15.9572 92.515C15.9572 92.515 31.3619 88.4937 38.5225 86.3274C45.6831 84.1611 60.4076 80.1846 67.7068 79.2137L49.0527 98.2419L35.2131 114.97L25.5851 121.71C25.5851 121.71 16.559 108.812 15.9572 92.515Z"
            fill="url(#paint7_linear_7076_104567)" />
        <path
            d="M15.4758 83.0687C15.4758 83.0687 15.235 81.5133 15.9571 80.5504C15.9571 80.5504 31.0007 79.6821 41.8321 79.2134C52.6635 78.7448 69.0275 77.7642 71.7988 77.301C74.5702 76.8378 91.2873 72.511 91.2873 72.511L92.0354 74.2924L65.5401 80.1623L37.0179 83.0687H15.4758Z"
            fill="url(#paint8_linear_7076_104567)" />
        <path
            d="M61.2683 104.996C61.2683 104.996 50.1438 111.589 44.8477 119.814C38.5705 129.563 32.084 134.827 32.084 134.827L38.5225 140.243L94.9058 80.3016L93.1374 74.844C93.1374 74.844 66.6241 78.3111 61.2683 104.996Z"
            fill="#050503" />
        <path
            d="M20.4845 114.356C20.4845 114.356 25.2983 121.577 23.7339 123.021L50.0158 101.973L68.4659 80.7912L67.707 79.2137C67.707 79.2137 59.0091 82.4762 53.6699 88.975C48.3308 95.4738 36.8749 112.497 20.4845 114.356Z"
            fill="#1B1AA4" />
        <path
            d="M22.887 122.823C22.887 122.823 38.7029 111.059 42.4939 107.659C46.2849 104.259 56.8754 93.9094 59.5233 89.9379C62.1712 85.9664 67.7071 79.2137 67.7071 79.2137L71.2479 78.6249L70.5955 81.393L49.6548 105.102L35.9351 117.618L25.9205 127.968L22.887 122.823Z"
            fill="#160C0D" />
        <path
            d="M123.227 74.0999C123.227 74.0999 124.13 73.5584 124.874 71.9337C129.115 69.1356 133.687 62.7292 135.087 60.7485C137.615 57.1727 139.239 54.788 142.128 53.9738C145.016 53.1597 142.443 46.011 142.443 46.011L122.325 69.0453L110.565 64.3517L107.702 65.7959C107.702 65.7959 108.262 67.5721 114.382 71.5726C120.502 75.5732 123.227 74.0999 123.227 74.0999Z"
            fill="#040803" />
        <path
            d="M96.94 84.1962C96.94 84.1962 87.3853 76.6868 87.6258 69.7068C87.8662 62.7267 89.1234 60.1708 88.3479 59.2935C87.5724 58.4158 79.7871 59.6628 75.334 62.5512C70.8809 65.4396 57.4078 60.0571 50.7439 62.2288C50.7439 62.2288 48.6979 64.1542 45.3283 65.1171C41.9586 66.0801 33.7748 65.1171 36.6632 67.8853C36.6632 67.8853 32.4375 67.043 33.4672 65.358C34.4969 63.673 77.9429 52.2401 77.9429 52.2401L98.4023 54.436L96.94 84.1962Z"
            fill="#050503" />
        <path
            d="M114.508 45.3893L114.522 47.2137C114.522 47.2137 111.256 48.9806 110.446 49.6811C109.83 50.214 109.652 52.1477 109.652 52.1477C109.652 52.1477 117.686 59.5853 120.475 64.8114L97.1583 47.6097C97.1583 47.6097 98.7137 45.6753 98.4025 44.4387C97.8031 42.0565 92.0355 31.5862 99.3744 31.9418C111.34 32.5217 114.508 45.3893 114.508 45.3893Z"
            fill="#040803" />
        <path d="M15.4757 83.0684L15.957 92.5144L63.29 80.3912C63.29 80.3912 43.3733 81.8748 15.4757 83.0684Z"
            fill="#E0B507" />
        <path
            d="M93.596 79.3351C93.596 79.3351 83.8337 77.4216 74.266 86.6283C64.6983 95.8349 63.6841 105.362 63.6841 105.362C63.6841 105.362 50.4367 114.609 47.5483 119.122C44.6599 123.635 36.3559 133.564 33.4675 134.828L38.5222 140.244C38.5222 140.244 53.5055 126.704 56.2134 123.816C58.9212 120.928 82.5462 97.2791 92.0355 92.9466C92.0355 92.9466 99.3727 86.8972 93.596 79.3351Z"
            fill="url(#paint9_linear_7076_104567)" />
        <path
            d="M86.8076 81.9569C84.6984 83.4488 76.2247 95.6178 91.0496 101.595C91.4236 101.745 91.4543 102.262 91.0961 102.447C88.9436 103.561 82.3227 105.441 80.9587 107.659C79.2264 110.477 73.4558 111.249 70.4404 117.382C67.4249 123.515 63.9091 125.558 65.5406 128.417C66.8613 130.731 75.1906 135.865 78.3177 137.737C78.6978 137.965 79.0044 137.617 79 137.174C78.865 123.803 77.1129 118.532 91.1033 113.284C97.5231 110.876 104.158 107.718 109.652 104.909C111.562 103.932 113.948 103.414 115.606 102.803C117.608 102.064 119.294 99.8189 120.466 99.6142C120.775 99.5601 113.408 95.894 113.242 95.6279C102.445 78.3645 89.1544 80.2968 86.8076 81.9569Z"
            fill="#050503" />
        <path
            d="M87.6261 83.3182C87.6261 83.3182 81.0656 91.2612 92.4988 98.4821C92.4988 98.4821 97.1924 100.889 98.7568 101.37C98.7568 101.37 92.8598 102.694 90.2119 105.462C87.5644 108.23 78.2974 114.729 77.5753 115.09C76.8532 115.451 75.1683 121.108 72.1597 123.514C69.1511 125.921 67.9474 128.208 68.6694 128.93C69.3915 129.652 79.5008 138.438 79.5008 138.438C79.5008 138.438 80.8045 138.438 78.4177 130.856C77.2143 128.93 76.9735 125.681 77.5753 124.598C78.1772 123.514 80.8247 117.738 81.9079 117.136C82.991 116.534 93.9426 110.396 97.5531 109.073C101.164 107.749 107.783 104.259 108.866 103.296C109.949 102.333 112.235 102.454 112.957 101.13C113.679 99.8057 115.605 99.2042 115.605 99.2042C115.605 99.2042 112.957 97.399 111.994 97.0379C111.032 96.6769 102.25 80.9115 87.6261 83.3182Z"
            fill="url(#paint10_linear_7076_104567)" />
        <path
            d="M39.0637 60.4524C39.0637 60.4524 44.2989 60.6329 63.6148 52.1483C63.6148 52.1483 65.2998 52.2686 66.3829 52.1483C67.466 52.0281 79.4202 46.7806 83.8734 45.9383C92.1774 44.8552 96.4497 48.2851 97.7736 48.2851C99.0976 48.2851 100.562 44.4462 99.5991 42.7615C98.6362 41.0765 96.7107 34.0964 97.3126 32.8931C97.9144 31.6897 107.663 30.486 111.875 36.9848C116.087 43.4836 114.522 47.2143 114.522 47.2143L108.264 49.0195C108.264 49.0195 107.061 50.945 107.783 51.9079C108.505 52.8708 120.058 61.6561 120.901 65.9886C120.901 65.9886 121.984 67.4328 122.826 65.9886C123.668 64.5445 129.325 58.6475 132.454 55.9996C135.583 53.3521 137.75 49.7929 137.87 49.286C137.99 48.7787 138.351 44.8072 139.073 44.8072C139.795 44.8072 142.443 46.0106 142.443 46.0106C142.443 46.0106 143.526 49.9821 143.045 51.4262C142.563 52.8704 140.999 52.2686 139.073 54.3146C137.148 56.3607 129.445 67.4325 124.752 70.3208C124.752 70.3208 123.067 71.8852 122.706 72.4871C122.345 73.089 121.141 73.3294 119.215 72.4871C117.29 71.6448 109.948 65.6272 109.948 65.6272C109.948 65.6272 108.745 71.8928 107.902 73.0323C107.06 74.1717 95.9427 81.8623 95.9427 81.8623C95.9427 81.8623 90.335 75.7777 91.1159 69.4388C91.8969 63.0999 92.4984 57.203 93.9426 55.7588C95.3867 54.3146 77.3345 58.4063 72.5207 61.6557C72.5207 61.6557 56.8755 60.6928 52.904 60.4524C48.9325 60.2116 49.8954 62.1374 48.4512 62.6186C47.0071 63.0999 42.1932 65.507 40.1472 65.3868C38.1012 65.2666 35.2128 65.507 35.5738 66.4699C35.9349 67.4328 36.475 68.1549 35.5432 67.9141C34.6113 67.6733 32.084 65.9886 32.084 65.9886V62.6186C32.084 62.6186 34.8521 60.5726 35.5742 59.7303C36.2959 58.888 39.0637 60.4524 39.0637 60.4524Z"
            fill="url(#paint11_linear_7076_104567)" />
        <path
            d="M63.6153 52.1479C63.6153 52.1479 58.0444 55.3847 57.3223 57.3102C57.3223 57.3102 67.8937 57.7803 71.5738 53.9348C71.5738 53.9348 65.4552 52.4014 63.6153 52.1479Z"
            fill="#E02110" />
        <path
            d="M47.5483 119.122C44.6599 123.635 36.3559 133.564 33.4675 134.827L38.5222 140.243C38.5222 140.243 49.2232 130.573 54.1727 125.834C57.5518 122.477 60.5102 119.803 61.3904 118.607C64.1315 114.882 57.3637 114.97 57.3637 114.97L63.6148 105.402C63.6148 105.402 50.4367 114.609 47.5483 119.122Z"
            fill="url(#paint12_linear_7076_104567)" />
        <path
            d="M112.958 101.13C113.68 99.8062 115.606 99.2047 115.606 99.2047C115.606 99.2047 112.958 97.3995 111.995 97.0384C111.533 96.8651 109.27 93.1456 105.426 89.5886L103.698 93.88C103.698 93.88 110.514 99.3246 108.866 103.297C109.95 102.334 112.236 102.454 112.958 101.13Z"
            fill="#E4CE01" />
        <path
            d="M74.6421 86.2593C74.485 86.4041 74.3272 86.5441 74.1716 86.694C68.0674 92.5682 65.4195 98.5846 64.3003 102.174C62.6745 108.712 63.1435 113.553 63.2331 116.783C68.0934 112.069 74.6381 105.938 80.591 100.995C78.107 96.9567 75.9252 90.5109 74.6421 86.2593Z"
            fill="#1B1AA4" />
        <path
            d="M103.698 93.8797C103.698 93.8797 104.953 92.207 105.947 90.0808C101.768 86.0523 95.5564 82.0133 87.6261 83.3188C87.6261 83.3188 85.5367 85.8494 85.7717 89.3519C88.2189 89.1522 96.4237 88.9291 103.698 93.8797Z"
            fill="url(#paint13_linear_7076_104567)" />
        <path
            d="M98.8313 71.2112C95.0187 70.7176 91.0688 74.0995 91.0688 74.0995C93.7767 83.4867 96.304 82.223 96.304 82.223C98.6652 74.0996 101.285 71.5289 98.8313 71.2112Z"
            fill="#84003F" />
        <path
            d="M108.038 72.8361C108.038 72.8361 106.413 73.5582 100.456 67.4204C95.0403 62.1853 94.5103 78.1915 94.8598 81.3207C95.2089 84.4495 103.164 79.5155 108.038 72.8361Z"
            fill="url(#paint14_linear_7076_104567)" />
        <path
            d="M75.7359 53.4591C85.8451 51.7741 89.3336 49.3674 93.3661 49.3674C96.7715 49.3674 97.7549 49.9588 98.4496 47.9037C95.9689 49.4431 92.3584 45.216 83.6933 46.1187C79.2406 46.961 67.4665 52.0279 66.3834 52.1481C65.3002 52.2684 63.6152 52.1481 63.6152 52.1481C63.6152 52.1481 65.6266 55.1441 75.7359 53.4591Z"
            fill="url(#paint15_linear_7076_104567)" />
        <path
            d="M94.8172 53.7399C94.8172 53.7399 95.5819 70.6697 95.7624 73.9191C95.9429 77.1685 94.0409 81.0193 91.2494 74.6412C88.4579 68.2632 94.8172 53.7399 94.8172 53.7399Z"
            fill="url(#paint16_linear_7076_104567)" />
        <path
            d="M100.072 32.0031V44.4169C100.072 44.4169 102.912 37.2729 108.821 33.9658C105.955 32.1273 102.46 31.7753 100.072 32.0031Z"
            fill="#0173C0" />
        <path
            d="M100.072 44.4173C101.57 41.6629 101.627 35.5447 101.512 31.9425C99.2716 31.927 97.5542 32.4093 97.3126 32.8924C96.7107 34.0958 98.6366 41.0762 99.5991 42.7609C99.8591 43.2161 100.01 43.8036 100.072 44.4173Z"
            fill="#E02110" />
        <path
            d="M94.8602 48.6461C94.8602 48.6461 111.258 50.2575 93.777 63.4489C89.5785 67.9131 93.2354 58.5748 94.8602 48.6461Z"
            fill="#0AAC3B" />
        <path
            d="M108.132 49.2533C105.62 45.896 100.072 44.4171 100.072 44.4171C100.238 46.0768 99.7236 47.9359 98.7575 47.9359C98.5759 47.9359 98.2444 47.873 97.804 47.7694C102.43 48.9251 105.885 50.5928 107.605 51.5301C107.396 50.7592 107.884 49.7126 108.132 49.2533Z"
            fill="#0573D9" />
        <path
            d="M108.399 52.437C108.399 52.437 109.101 58.2988 112.085 60.6154C115.068 62.9319 114.537 61.1021 114.537 61.1021C114.537 61.1021 114.356 54.6033 108.399 52.437Z"
            fill="#0573D9" />
        <path
            d="M123.149 69.242C122.374 67.4794 120.212 66.2222 118.519 65.4831C116.527 64.6137 111.696 64.7166 111.616 61.8413C111.6 61.2542 110.709 61.2513 110.702 61.8413C110.678 64.0978 112.654 65.1513 114.593 65.646C116.113 66.0337 117.557 66.3836 118.932 67.184C120.247 67.9491 121.203 69.1275 122.466 69.9254C122.93 70.2175 123.333 69.6604 123.149 69.242Z"
            fill="#040803" />
        <path
            d="M97.0327 52.6412C94.5783 53.663 91.9358 54.9194 90.1659 56.9738C89.8417 57.35 90.2432 57.9002 90.6992 57.6648C93.0225 56.4654 95.1126 54.8209 97.437 53.6002C97.9519 53.3297 97.5883 52.4098 97.0327 52.6412Z"
            fill="#040803" />
        <path
            d="M106.408 37.9894C106.101 37.6233 105.475 38.1042 105.743 38.5021C108.057 41.9317 108.2 45.3836 107.838 49.349C107.797 49.7963 108.521 50.0018 108.705 49.584C110.4 45.7465 108.98 41.0598 106.408 37.9894Z"
            fill="#040803" />
        <path
            d="M102.082 34.3855C102.057 34.0841 101.621 34.0772 101.608 34.3855C101.506 36.6684 101.231 38.9788 100.736 41.2104C100.276 43.2868 99.412 45.2201 98.8964 47.2655C98.7567 47.8208 99.5257 48.1573 99.8243 47.6568C102.066 43.9031 102.433 38.6361 102.082 34.3855Z"
            fill="#040803" />
        <path
            d="M97.1581 47.6103C96.9848 47.7136 96.8043 47.8031 96.6209 47.8869C92.727 44.8815 86.9294 44.9696 82.382 46.0733C76.2724 47.5561 70.7408 50.7211 64.6551 52.2862C64.0247 52.1779 63.6261 52.1165 63.6152 52.1479C61.3324 53.235 59.4925 54.0535 57.4898 55.6071C55.8326 56.8924 54.4079 58.3687 52.6698 59.4443C48.5243 58.9247 44.795 61.135 40.6762 61.3271C40.5116 61.3347 40.5141 61.5679 40.6762 61.5809C42.7678 61.7492 44.6535 61.2253 46.6822 60.8097C48.03 60.5335 49.3168 60.4613 50.6111 60.4556C50.4429 60.6003 50.5032 60.9134 50.7707 60.9184C51.5657 60.9343 52.2838 60.7693 52.9492 60.4873C53.2395 60.4938 53.5323 60.4996 53.828 60.5036C54.1974 60.5086 54.3302 60.0736 54.1465 59.8313C55.105 59.1948 55.9723 58.3666 56.8449 57.5899C59.1112 55.5731 61.4244 54.5084 64.0055 52.9574C64.0987 52.9455 64.1915 52.9321 64.2843 52.9191C69.1566 55.663 74.8102 54.5113 79.9746 52.8241C82.9933 51.8378 86.0123 50.9626 89.1325 50.3535C90.6918 50.0492 92.2595 49.7878 93.8293 49.5441C95.1886 49.3332 96.4314 49.9954 97.6842 49.413C97.7929 49.3624 99.9321 48.067 99.8245 47.6565C99.6934 47.1557 97.286 47.5341 97.1581 47.6103ZM90.1669 49.0014C87.2637 49.4939 84.3746 50.1156 81.5729 51.0301C78.6799 51.9746 75.815 53.1513 72.7392 53.3148C71.2481 53.3939 68.3727 52.9321 66.2465 52.5646C76.0792 50.4041 85.6228 43.0348 95.2471 48.3461C93.6289 48.7263 91.8118 48.722 90.1669 49.0014Z"
            fill="#040803" />
        <path
            d="M75.2898 61.5201C69.5141 60.1752 64.1259 56.1221 57.9964 56.9446C57.5072 57.0103 57.4682 57.7548 57.9964 57.74C64.1782 57.5688 69.0975 62.2082 75.1641 62.4509C75.6949 62.4722 75.8118 61.6418 75.2898 61.5201Z"
            fill="#040803" />
        <path
            d="M36.7944 59.9274C35.9585 60.1545 35.2256 60.7708 34.5479 61.2889C33.8872 61.794 33.09 62.3378 32.6319 63.0414C32.5499 63.1674 32.7081 63.3032 32.8286 63.2382C33.5959 62.8252 34.2407 62.1507 34.9678 61.6608C35.6394 61.208 36.4243 60.864 37.0168 60.309C37.1857 60.1509 37.0095 59.8689 36.7944 59.9274Z"
            fill="#040803" />
        <path
            d="M37.1489 61.1997C36.3831 61.4253 35.7379 61.9611 35.0805 62.3998C34.3378 62.8951 33.5951 63.3905 32.8525 63.8855C32.6727 64.0054 32.8323 64.287 33.0232 64.1779C33.797 63.736 34.5707 63.2937 35.3448 62.8518C36.0304 62.4601 36.803 62.1222 37.3468 61.5394C37.4807 61.3954 37.35 61.1405 37.1489 61.1997Z"
            fill="#040803" />
        <path
            d="M46.4438 62.316C45.1083 62.3983 43.806 62.7457 42.4665 62.8088C41.5957 62.85 40.7328 62.7912 39.8941 62.5341C39.411 62.3861 38.9337 62.0521 38.412 62.0355C36.9296 61.9885 35.2428 63.5085 34.0813 64.4841C34.0798 64.435 34.0755 64.3877 34.0751 64.3379C34.0726 64.0447 33.631 63.8887 33.4917 64.1797C33.1501 64.8932 33.1613 65.7257 33.4639 66.455C33.743 67.128 34.299 67.961 35.0922 68.0093C35.4352 68.0303 35.6085 67.6317 35.4648 67.3598C35.2063 66.8702 34.6904 66.5828 34.4337 66.0687C34.2625 65.7257 34.1737 65.3784 34.1253 65.0195C35.0431 64.3689 36.0082 63.6833 37.0451 63.2385C38.4416 62.6392 39.2384 63.241 40.5526 63.5317C42.4969 63.9613 44.6844 63.7671 46.5496 63.0966C46.9453 62.9551 46.9204 62.2864 46.4438 62.316Z"
            fill="#040803" />
        <path
            d="M143.585 50.6474C143.38 50.577 143.141 50.6077 142.913 50.6853C142.848 50.6806 142.781 50.6896 142.718 50.7279C142.689 50.6164 142.648 50.5098 142.596 50.4098C142.663 50.286 142.732 50.1647 142.798 50.0405C142.859 49.9246 142.847 49.7791 142.79 49.6589C143.005 49.5325 143.227 49.4166 143.43 49.2758C143.583 49.17 143.526 48.94 143.336 48.9288C142.786 48.896 142.304 49.2039 141.939 49.6246C141.875 49.6509 141.81 49.6766 141.747 49.7029C141.757 49.5278 141.758 49.3491 141.743 49.1527C141.716 48.7945 141.294 48.5815 141.018 48.8523C140.656 49.2068 140.369 49.5635 140.113 49.9744C140.029 49.7888 139.941 49.6051 139.868 49.4032C139.701 48.94 139.578 48.7097 139.791 48.1338C139.935 47.7446 140.218 47.3673 140.461 47.037C140.652 46.777 140.261 46.5495 140.049 46.7192C139.333 47.29 138.412 48.2259 138.574 49.2307C138.616 49.4917 139.011 50.0033 139.072 50.1683C139.216 50.5597 139.237 50.9994 139.222 51.4103C139.191 52.2508 138.9 53.1018 138.832 53.9513C138.826 54.0225 138.843 54.0806 138.868 54.1326C138.285 54.8926 137.792 55.7082 137.349 56.5592C137.165 56.9133 137.647 57.1794 137.875 56.8668C138.764 55.6482 139.777 54.5131 140.893 53.4968C140.964 53.4318 141.039 53.3679 141.117 53.304C141.29 53.517 141.682 53.5813 141.9 53.2888C142.357 52.6754 142.809 52.0447 143.179 51.3742C143.366 51.2987 143.552 51.2211 143.706 51.1005C143.878 50.9644 143.756 50.7063 143.585 50.6474ZM140.892 52.0226C140.888 52.0252 140.885 52.0284 140.88 52.0309C140.667 52.2147 140.461 52.4075 140.257 52.6017C140.404 52.0468 140.452 51.4684 140.38 50.8853C140.442 50.8698 140.503 50.8445 140.56 50.7962C140.628 50.738 140.696 50.6806 140.764 50.6225C140.868 50.833 141.144 50.9301 141.373 50.8929C141.383 50.9677 141.387 51.0388 141.387 51.1077C141.228 51.4153 141.059 51.7186 140.892 52.0226Z"
            fill="#040803" />
        <path
            d="M84.4692 58.5791C82.0787 61.2635 80.1793 64.6086 78.1621 67.5843C76.0016 70.7716 73.561 73.8069 71.3918 76.9881C71.1727 77.3094 71.6781 77.582 71.9034 77.287C75.3633 73.7387 76.7219 71.471 78.912 68.4274C81.0433 65.4657 83.5616 62.4026 85.187 59.133C85.4054 58.6939 84.8342 58.1697 84.4692 58.5791Z"
            fill="#040803" />
        <path
            d="M65.6024 94.6577C62.2472 101.827 61.71 110.526 62.9665 118.248C63.0231 118.596 63.5979 118.514 63.5813 118.164C63.4008 114.351 63.4484 110.468 63.8821 106.673C64.3384 102.679 65.3187 98.8152 66.1747 94.8989C66.2462 94.5718 65.7606 94.3194 65.6024 94.6577Z"
            fill="#040803" />
        <path
            d="M57.4459 114.137C53.6106 118.994 50.8327 124.748 50.1059 130.939C50.0698 131.246 50.5623 131.3 50.6377 131.011C52.1815 125.1 54.4215 119.559 58.0438 114.598C58.2966 114.253 57.7142 113.797 57.4459 114.137Z"
            fill="#050503" />
        <path
            d="M99.7192 91.0392C95.075 88.8914 89.9348 88.2758 84.9643 89.5398C84.5336 89.6492 84.6087 90.3973 85.0723 90.3377C89.5749 89.7586 94.263 90.2291 98.4371 92.0798C100.449 92.9719 102.393 94.1695 104.009 95.6696C105.739 97.2756 106.581 99.0537 107.449 101.194C107.66 101.712 108.412 101.661 108.447 101.059C108.717 96.4138 103.391 92.7376 99.7192 91.0392Z"
            fill="#050503" />
        <path
            d="M132.323 59.2346C129.649 61.7591 127.38 64.7875 125.09 67.6546C124.898 67.8954 125.215 68.2369 125.437 68.0015C127.971 65.3164 130.663 62.6227 132.801 59.6036C133.007 59.313 132.566 59.0054 132.323 59.2346Z"
            fill="#040803" />
        <path fill-rule="evenodd" clip-rule="evenodd"
            d="M88 16.3333C48.4196 16.3333 16.3333 48.4196 16.3333 88C16.3333 127.58 48.4196 159.667 88 159.667C127.58 159.667 159.667 127.58 159.667 88C159.667 48.4196 127.58 16.3333 88 16.3333ZM12 88C12 46.0264 46.0264 12 88 12C129.974 12 164 46.0264 164 88C164 129.974 129.974 164 88 164C46.0264 164 12 129.974 12 88Z"
            fill="url(#paint17_linear_7076_104567)" />
    </g>
    <defs>
        <linearGradient id="paint0_linear_7076_104567" x1="71.6606" y1="144.127" x2="86.3621" y2="149.833"
            gradientUnits="userSpaceOnUse">
            <stop stop-color="#2182D9" />
            <stop offset="0.8909" stop-color="#06181B" />
            <stop offset="1" stop-color="#030B03" />
        </linearGradient>
        <linearGradient id="paint1_linear_7076_104567" x1="106.935" y1="51.0891" x2="150.8" y2="77.8597"
            gradientUnits="userSpaceOnUse">
            <stop stop-color="#050042" />
            <stop offset="1" stop-color="#0E8F54" />
        </linearGradient>
        <linearGradient id="paint2_linear_7076_104567" x1="129.504" y1="65.3367" x2="137.12" y2="100.17"
            gradientUnits="userSpaceOnUse">
            <stop stop-color="#00FF59" />
            <stop offset="0.3454" stop-color="#008577" />
            <stop offset="0.7871" stop-color="#0A3CDF" />
            <stop offset="1" stop-color="#008479" />
        </linearGradient>
        <linearGradient id="paint3_linear_7076_104567" x1="140.747" y1="90.1214" x2="117.088" y2="159.568"
            gradientUnits="userSpaceOnUse">
            <stop stop-color="#E4E6EA" />
            <stop offset="0.260417" stop-color="#B0D5FF" />
            <stop offset="0.473958" stop-color="white" />
            <stop offset="0.65625" stop-color="#A1C9EE" />
            <stop offset="1" stop-color="#6E91AA" />
        </linearGradient>
        <linearGradient id="paint4_linear_7076_104567" x1="126.27" y1="78.0628" x2="108.055" y2="161.888"
            gradientUnits="userSpaceOnUse">
            <stop stop-color="#E4E6EA" />
            <stop offset="0.260417" stop-color="#B0D5FF" />
            <stop offset="0.473958" stop-color="white" />
            <stop offset="0.65625" stop-color="#A1C9EE" />
            <stop offset="1" stop-color="#6E91AA" />
        </linearGradient>
        <linearGradient id="paint5_linear_7076_104567" x1="98.3155" y1="52.2565" x2="72.7372" y2="87.0075"
            gradientUnits="userSpaceOnUse">
            <stop stop-color="#050042" />
            <stop offset="1" stop-color="#1799D0" />
        </linearGradient>
        <linearGradient id="paint6_linear_7076_104567" x1="29.5379" y1="131.31" x2="91.4569" y2="73.228"
            gradientUnits="userSpaceOnUse">
            <stop stop-color="#0748E1" />
            <stop offset="1" stop-color="#1B1AA4" />
        </linearGradient>
        <linearGradient id="paint7_linear_7076_104567" x1="51.7659" y1="75.8506" x2="39.5159" y2="123.075"
            gradientUnits="userSpaceOnUse">
            <stop stop-color="#E4E6EA" />
            <stop offset="0.260417" stop-color="#B0D5FF" />
            <stop offset="0.473958" stop-color="white" />
            <stop offset="0.65625" stop-color="#A1C9EE" />
            <stop offset="1" stop-color="#6E91AA" />
        </linearGradient>
        <linearGradient id="paint8_linear_7076_104567" x1="15.4373" y1="77.7899" x2="92.0358" y2="77.7899"
            gradientUnits="userSpaceOnUse">
            <stop stop-color="#FA2A2F" />
            <stop offset="1" stop-color="#DC5255" />
        </linearGradient>
        <linearGradient id="paint9_linear_7076_104567" x1="76.6083" y1="74.3369" x2="56.1526" y2="140.442"
            gradientUnits="userSpaceOnUse">
            <stop stop-color="#E4E6EA" />
            <stop offset="0.260417" stop-color="#B0D5FF" />
            <stop offset="0.473958" stop-color="white" />
            <stop offset="0.65625" stop-color="#A1C9EE" />
            <stop offset="1" stop-color="#6E91AA" />
        </linearGradient>
        <linearGradient id="paint10_linear_7076_104567" x1="101.084" y1="78.6865" x2="79.6669" y2="136.41"
            gradientUnits="userSpaceOnUse">
            <stop stop-color="#E4E6EA" />
            <stop offset="0.260417" stop-color="#B0D5FF" />
            <stop offset="0.473958" stop-color="white" />
            <stop offset="0.65625" stop-color="#A1C9EE" />
            <stop offset="1" stop-color="#6E91AA" />
        </linearGradient>
        <linearGradient id="paint11_linear_7076_104567" x1="108.95" y1="27.991" x2="100.711" y2="86.0292"
            gradientUnits="userSpaceOnUse">
            <stop stop-color="#E4E6EA" />
            <stop offset="0.260417" stop-color="#B0D5FF" />
            <stop offset="0.473958" stop-color="white" />
            <stop offset="0.65625" stop-color="#A1C9EE" />
            <stop offset="1" stop-color="#6E91AA" />
        </linearGradient>
        <linearGradient id="paint12_linear_7076_104567" x1="84.7504" y1="100.636" x2="41.0099" y2="138.996"
            gradientUnits="userSpaceOnUse">
            <stop stop-color="#E4E6EA" />
            <stop offset="0.260417" stop-color="#B0D5FF" />
            <stop offset="0.473958" stop-color="white" />
            <stop offset="0.65625" stop-color="#A1C9EE" />
            <stop offset="1" stop-color="#6E91AA" />
        </linearGradient>
        <linearGradient id="paint13_linear_7076_104567" x1="85.7535" y1="88.4742" x2="105.947" y2="88.4742"
            gradientUnits="userSpaceOnUse">
            <stop stop-color="#12AB34" />
            <stop offset="1" stop-color="#04AD40" />
        </linearGradient>
        <linearGradient id="paint14_linear_7076_104567" x1="112.732" y1="53.5202" x2="89.8287" y2="92.064"
            gradientUnits="userSpaceOnUse">
            <stop stop-color="#E4E6EA" />
            <stop offset="0.260417" stop-color="#B0D5FF" />
            <stop offset="0.473958" stop-color="white" />
            <stop offset="0.65625" stop-color="#A1C9EE" />
            <stop offset="1" stop-color="#6E91AA" />
        </linearGradient>
        <linearGradient id="paint15_linear_7076_104567" x1="78.932" y1="45.3749" x2="80.2869" y2="57.3412"
            gradientUnits="userSpaceOnUse">
            <stop stop-color="#00FF59" />
            <stop offset="0.3454" stop-color="#008577" />
            <stop offset="0.7871" stop-color="#0A3CDF" />
            <stop offset="1" stop-color="#008479" />
        </linearGradient>
        <linearGradient id="paint16_linear_7076_104567" x1="100.316" y1="53.5639" x2="82.5829" y2="63.3416"
            gradientUnits="userSpaceOnUse">
            <stop stop-color="#E4E6EA" />
            <stop offset="0.260417" stop-color="#B0D5FF" />
            <stop offset="0.473958" stop-color="white" />
            <stop offset="0.65625" stop-color="#A1C9EE" />
            <stop offset="1" stop-color="#6E91AA" />
        </linearGradient>
        <linearGradient id="paint17_linear_7076_104567" x1="117.178" y1="-0.0291208" x2="65.3978" y2="163.892"
            gradientUnits="userSpaceOnUse">
            <stop stop-color="#E4E6EA" />
            <stop offset="0.260417" stop-color="#B0D5FF" />
            <stop offset="0.473958" stop-color="white" />
            <stop offset="0.65625" stop-color="#A1C9EE" />
            <stop offset="1" stop-color="#6E91AA" />
        </linearGradient>
        <clipPath id="clip0_7076_104567">
            <rect width="176" height="176" fill="white" />
        </clipPath>
    </defs>
</svg>