<svg width="100%" height="100%" viewBox="0 0 112 112" fill="none" xmlns="http://www.w3.org/2000/svg">
<path fill-rule="evenodd" clip-rule="evenodd" d="M80.0007 75.3333C88.1008 75.3333 94.6673 81.8998 94.6673 90C94.6673 98.1002 88.1008 104.667 80.0007 104.667C71.9005 104.667 65.334 98.1002 65.334 90C65.334 81.8998 71.9005 75.3333 80.0007 75.3333ZM85.6657 84.3346C85.1127 83.7816 84.216 83.7816 83.6629 84.3345L80.0007 87.996L76.3385 84.3347C75.7853 83.7816 74.8886 83.7817 74.3355 84.3348C73.7823 84.8879 73.7823 85.7847 74.3353 86.3378L77.9967 90L74.3352 93.6623C73.7822 94.2154 73.7823 95.112 74.3353 95.665C74.8885 96.2182 75.7853 96.2181 76.3384 95.6649L79.9993 92.0026L83.6628 95.6653C84.216 96.2183 85.1127 96.2183 85.6658 95.6652C86.219 95.1121 86.219 94.2153 85.666 93.6621L82.0033 89.9986L85.6655 86.3377C86.2188 85.7846 86.2189 84.8878 85.6657 84.3346Z" fill="#D43240"/>
<path fill-rule="evenodd" clip-rule="evenodd" d="M38 30C38 28.8954 38.8954 28 40 28H72C73.1046 28 74 28.8954 74 30C74 31.1046 73.1046 32 72 32H40C38.8954 32 38 31.1046 38 30ZM38 42C38 40.8954 38.8954 40 40 40H72C73.1046 40 74 40.8954 74 42C74 43.1046 73.1046 44 72 44H40C38.8954 44 38 43.1046 38 42ZM40 52C38.8954 52 38 52.8954 38 54C38 55.1046 38.8954 56 40 56H72C73.1046 56 74 55.1046 74 54C74 52.8954 73.1046 52 72 52H40Z" fill="white" fill-opacity="0.8"/>
<path fill-rule="evenodd" clip-rule="evenodd" d="M30 12C26.6863 12 24 14.6863 24 18V90C24 93.3137 26.6863 96 30 96H58C59.1046 96 60 95.1046 60 94C60 92.8954 59.1046 92 58 92H30C28.8954 92 28 91.1046 28 90V18C28 16.8954 28.8954 16 30 16H82C83.1046 16 84 16.8954 84 18V68C84 69.1046 84.8954 70 86 70C87.1046 70 88 69.1046 88 68V18C88 14.6863 85.3137 12 82 12H30Z" fill="white" fill-opacity="0.8"/>
</svg>
