<svg width="25" height="32" viewBox="0 0 25 32" fill="none" xmlns="http://www.w3.org/2000/svg">
<rect opacity="0.01" width="25" height="32" fill="#1D2532"/>
<path d="M17.7929 31.9999H6.63857L7.42456 27.2456H17.0069L17.7929 31.9999Z" fill="url(#paint0_linear_2105_6105)"/>
<path d="M12.3071 31.9999H6.63857L7.43745 27.2456H12.3071V31.9999Z" fill="#9096A9"/>
<path d="M2.25 9.71222L10.0622 5.48718L11.6496 4.64089L12.3892 0L22.73 5.34793L17.297 25.7829H7.36891L2.25 9.71222Z" fill="#575C70" fill-opacity="0.5"/>
<path d="M5.55868 11.0227L9.55661 8.87824L10.122 5.4856L2.25 9.71094L7.40805 25.7827H10.2957L5.55868 11.0227Z" fill="url(#paint1_linear_2105_6105)"/>
<path d="M12.3557 0L9.74715 16.3156H12.0488L15.1755 4.59288L19.4633 6.81617L14.4044 25.7829H17.2794L22.73 5.34793L12.3557 0Z" fill="url(#paint2_linear_2105_6105)"/>
<defs>
<linearGradient id="paint0_linear_2105_6105" x1="14.5006" y1="27.6819" x2="14.261" y2="32.2379" gradientUnits="userSpaceOnUse">
<stop stop-color="white"/>
<stop offset="1" stop-color="#F6F7FB"/>
</linearGradient>
<linearGradient id="paint1_linear_2105_6105" x1="6.20283" y1="8.25605" x2="11.0295" y2="25.7679" gradientUnits="userSpaceOnUse">
<stop stop-color="#D0D2DF"/>
<stop offset="1" stop-color="#9096A9"/>
</linearGradient>
<linearGradient id="paint2_linear_2105_6105" x1="18.8981" y1="2.36629" x2="13.17" y2="25.738" gradientUnits="userSpaceOnUse">
<stop stop-color="white"/>
<stop offset="1" stop-color="#F6F7FB"/>
</linearGradient>
</defs>
</svg>
