<svg width="100%" height="100%" viewBox="0 0 84 88" fill="none" xmlns="http://www.w3.org/2000/svg">
<path d="M39.9927 1.07652C41.306 0.711703 42.694 0.711702 44.0073 1.07652L72.0073 8.8543C75.2535 9.75601 77.5 12.7116 77.5 16.0807V61.5133C77.5 64.1261 76.1403 66.5505 73.9109 67.9129L45.9109 85.024C43.51 86.4912 40.49 86.4912 38.0891 85.024L10.0891 67.9129C7.85971 66.5505 6.5 64.1261 6.5 61.5133V16.0807C6.5 12.7116 8.74652 9.75601 11.9927 8.8543L39.9927 1.07652Z" stroke="white"/>
<path d="M40.0266 9.05646C41.3186 8.70409 42.6814 8.70409 43.9734 9.05646L65.9734 15.0565C69.2363 15.9464 71.5 18.9101 71.5 22.2922V57.4705C71.5 60.105 70.1178 62.5462 67.8587 63.9017L45.8587 77.1017C43.4836 78.5267 40.5164 78.5267 38.1413 77.1017L16.1413 63.9017C13.8822 62.5462 12.5 60.1049 12.5 57.4705V22.2922C12.5 18.91 14.7637 15.9464 18.0266 15.0565L40.0266 9.05646Z" stroke="#585A62"/>
</svg>
