<svg width="112" height="112" viewBox="0 0 112 112" fill="none" xmlns="http://www.w3.org/2000/svg">
<g clip-path="url(#clip0_8345_63004)">
<path d="M56 87.5C63 87.5 74.5937 87.4125 87.8937 79.7125C101.194 72.0125 105.525 62.4312 106.881 57.4875C107.006 57.0421 107.04 56.5763 106.982 56.1174C106.924 55.6586 106.774 55.2162 106.541 54.8164C106.309 54.4165 105.998 54.0675 105.628 53.7898C105.258 53.5122 104.836 53.3116 104.388 53.2C101.194 52.3687 95.5938 51.625 88.4188 53.3312" stroke="#575C70" stroke-width="2" stroke-linecap="round" stroke-linejoin="round"/>
<path d="M23.5831 53.2875C16.4081 51.625 10.8081 52.3687 7.61436 53.2C7.1655 53.3116 6.74362 53.5122 6.37369 53.7898C6.00377 54.0675 5.69334 54.4165 5.46079 54.8163C5.22825 55.2162 5.07831 55.6586 5.01988 56.1174C4.96145 56.5762 4.9957 57.0421 5.12061 57.4875C6.47686 62.4312 10.8081 72.0562 24.1081 79.7125C37.4081 87.3687 49.0019 87.5 56.0019 87.5" stroke="#575C70" stroke-width="2" stroke-linecap="round" stroke-linejoin="round"/>
<path d="M56 87.4999C56 87.4999 73.5 77.9624 73.5 52.4999C73.5 32.5499 62.7375 22.3999 58.1 18.8999C57.4914 18.4522 56.7556 18.2107 56 18.2107C55.2444 18.2107 54.5086 18.4522 53.9 18.8999C49.2625 22.3999 38.5 32.5499 38.5 52.4999C38.5 77.9624 56 87.4999 56 87.4999Z" stroke="#575C70" stroke-width="2" stroke-linecap="round" stroke-linejoin="round"/>
<path d="M56 87.5C61.25 86.3625 75.3812 78.4 83.8687 63.7C92.3562 49 90.2562 37.3188 88.5938 32.2C88.3395 31.3768 87.7832 30.6802 87.0367 30.2501C86.2901 29.82 85.4085 29.6883 84.5688 29.8813C79.5455 31.0063 74.8463 33.2661 70.8312 36.4875" stroke="#575C70" stroke-width="2" stroke-linecap="round" stroke-linejoin="round"/>
<path d="M41.1678 36.4875C37.1527 33.2661 32.4535 31.0063 27.4303 29.8813C26.5906 29.6883 25.7089 29.82 24.9624 30.2501C24.2158 30.6802 23.6595 31.3768 23.4053 32.2C21.7428 37.3188 19.6428 49.0438 28.1303 63.7C36.6178 78.3563 50.749 86.3625 55.999 87.5" stroke="#575C70" stroke-width="2" stroke-linecap="round" stroke-linejoin="round"/>
</g>
<defs>
<clipPath id="clip0_8345_63004">
<rect width="112" height="112" fill="white"/>
</clipPath>
</defs>
</svg>
