<svg width="112" height="112" viewBox="0 0 112 112" fill="none" xmlns="http://www.w3.org/2000/svg">
<path d="M42 87.5C59.397 87.5 73.5 73.397 73.5 56C73.5 38.603 59.397 24.5 42 24.5C24.603 24.5 10.5 38.603 10.5 56C10.5 73.397 24.603 87.5 42 87.5Z" stroke="#575C70" stroke-width="2" stroke-miterlimit="10" stroke-linecap="round" stroke-linejoin="round"/>
<path d="M42 77C53.598 77 63 67.598 63 56C63 44.402 53.598 35 42 35C30.402 35 21 44.402 21 56C21 67.598 30.402 77 42 77Z" stroke="#575C70" stroke-width="2" stroke-miterlimit="10" stroke-linecap="round" stroke-linejoin="round"/>
<path d="M80.5 17.5V36.75C80.5 42.7 81.9 46.9 84.35 49.7C87.5 53.2 88.9 57.4 88.55 61.95L85.05 87.5C84.7 91 87.5 94.5 91 94.5C94.85 94.5 97.65 91.35 96.95 87.5L93.45 61.95C93.1 57.4 94.5 52.85 97.65 49.7C100.1 47.25 101.5 42.7 101.5 36.75V17.5" stroke="#575C70" stroke-width="2" stroke-miterlimit="10" stroke-linecap="round" stroke-linejoin="round"/>
<path d="M91 38.5V17.5" stroke="#575C70" stroke-width="2" stroke-miterlimit="10" stroke-linecap="round" stroke-linejoin="round"/>
</svg>
