<svg width="100%" height="100%" viewBox="0 0 72 100" fill="none" xmlns="http://www.w3.org/2000/svg">
<path d="M33.9927 13.0765C35.306 12.7117 36.694 12.7117 38.0073 13.0765L66.0073 20.8543C69.2535 21.756 71.5 24.7116 71.5 28.0807V73.5133C71.5 76.1261 70.1403 78.5505 67.9109 79.9129L39.9109 97.024C37.51 98.4912 34.49 98.4912 32.0891 97.024L4.08912 79.9129C1.85971 78.5505 0.5 76.1261 0.5 73.5133V28.0807C0.5 24.7116 2.74652 21.756 5.99267 20.8543L33.9927 13.0765Z" stroke="#777B88"/>
<path fill-rule="evenodd" clip-rule="evenodd" d="M26 44H30V60H26V44ZM34 44H38V60H34V44ZM46 44H42V60H46V44Z" fill="white"/>
</svg>
