<svg width="100%" height="100%" viewBox="0 0 24 24" fill="currentColor" xmlns="http://www.w3.org/2000/svg">
<path d="M7.49999 17.5001C2.91125 8.3226 9.53312 4.20212 13.9109 3.12911C14.2159 3.05436 14.5 3.29138 14.5 3.60539L14.5 4.50009L18.2095 8.67682C18.3936 8.88413 18.3739 9.20168 18.1655 9.3846L16.6318 10.731C16.4368 10.9022 16.1433 10.8957 15.956 10.7162L15 9.80009C14.5 10.5001 13 10.0001 13 10.0001C12.817 10.3661 13.2369 11.0671 13.7692 11.9558C14.6913 13.4953 15.951 15.5982 15 17.5001L7.49999 17.5001Z" />
<path d="M15 17.5001H16.35C16.709 17.5001 17 17.7911 17 18.1501C17 18.5091 16.709 18.8001 16.35 18.8001H5.65C5.29101 18.8001 5 18.5091 5 18.1501C5 17.7911 5.29101 17.5001 5.65 17.5001H15Z" />
<path d="M4.65 20.1002C4.29101 20.1002 4 20.3912 4 20.7502C4 21.1092 4.29101 21.4002 4.65 21.4002H17.35C17.709 21.4002 18 21.1092 18 20.7502C18 20.3912 17.709 20.1002 17.35 20.1002H4.65Z" />
</svg>
