<svg width="512" height="512" viewBox="0 0 25 32" fill="none" xmlns="http://www.w3.org/2000/svg">
<rect opacity="0.01" width="25" height="32" fill="#1D2532"/>
<path d="M3.58732 11.6698L7.38641 23.6105C7.6488 24.4352 8.45385 25 9.36701 25H14.4645C15.4229 25 16.2557 24.379 16.4766 23.4996L20.4443 7.70365C20.6317 6.95725 20.3377 6.17655 19.6929 5.70887L14.6907 2.08074C14.4216 1.88552 14.0319 2.06644 14.0319 2.38663C14.0319 2.50707 13.9723 2.62061 13.8707 2.6936L4.31474 9.55867C3.62963 10.0509 3.33983 10.8919 3.58732 11.6698Z" fill="white" fill-opacity="0.3"/>
<path fill-rule="evenodd" clip-rule="evenodd" d="M17.6079 30.6494C17.6079 29.9037 16.9732 28 16.1902 28H7.95245C7.16949 28 6.53477 29.9037 6.53477 30.6494C6.53477 31.395 7.16949 31.9995 7.95245 31.9995H16.1902C16.9732 31.9995 17.6079 31.395 17.6079 30.6494Z" fill="white"/>
<mask id="mask0_21_4364" style="mask-type:alpha" maskUnits="userSpaceOnUse" x="6" y="28" width="12" height="4">
<path fill-rule="evenodd" clip-rule="evenodd" d="M17.5 30.6061C17.5 29.8363 16.8695 28 16.0917 28H7.90831C7.13052 28 6.5 29.8363 6.5 30.6061C6.5 31.3759 7.13052 32 7.90831 32H16.0917C16.8695 32 17.5 31.3759 17.5 30.6061Z" fill="white"/>
</mask>
<g mask="url(#mask0_21_4364)">
<path d="M5.5 32H12.5V28H5.5V32Z" fill="#B3B8CA"/>
</g>
<path fill-rule="evenodd" clip-rule="evenodd" d="M9.24654 6.53564C9.52377 7.0378 9.34328 7.67065 8.84339 7.94914L5.57032 10.7655L9.41654 23.5516C9.64107 24.0797 9.39695 24.6906 8.87129 24.9162C8.34562 25.1417 7.73746 24.8965 7.51293 24.3684L3.66671 11.5823C3.24992 10.6021 3.63846 9.46396 4.56638 8.947L7.83945 6.13066C8.33934 5.85216 8.96931 6.03348 9.24654 6.53564Z" fill="#B3B8CA"/>
<path fill-rule="evenodd" clip-rule="evenodd" d="M7.63193 6.15667C8.19981 5.82342 8.91806 6.03824 9.23611 6.64508C9.55197 7.24774 9.35059 8.0025 8.79559 8.34363L5.89872 10.9693L9.40907 23.2615C9.65922 23.9007 9.37501 24.6307 8.78013 24.8996C8.18364 25.1692 7.48918 24.8782 7.2311 24.2388L7.22605 24.2263L3.66797 11.767C3.24611 10.7042 3.64354 9.4789 4.58383 8.91303L7.61208 6.16832L7.63193 6.15667ZM7.86486 6.57351L4.83822 9.31677L4.81837 9.32842C4.0603 9.77328 3.74708 10.7483 4.08491 11.5852L4.08995 11.5977L7.64767 24.0558C7.80879 24.4376 8.23465 24.6191 8.60695 24.4509C8.98053 24.282 9.14816 23.8297 8.99204 23.4429L8.987 23.4304L5.3812 10.804L8.54078 7.94027L8.56063 7.92863C8.91478 7.7208 9.03838 7.25348 8.84524 6.88498C8.65378 6.51966 8.21859 6.37955 7.86486 6.57351Z" fill="#B3B8CA"/>
<path fill-rule="evenodd" clip-rule="evenodd" d="M14.0142 9.22021e-07C14.0588 2.13898e-05 14.1035 0.0031881 14.148 0.00956848C14.3042 0.0318969 14.4492 0.0924407 14.5742 0.182089L20.6007 4.08381C21.4109 4.65759 21.7203 5.76659 21.3359 6.71888L16.8496 24.348C16.6299 24.8923 16.0377 25.1437 15.5269 24.9095C15.0162 24.6754 14.7803 24.0443 15 23.5L19.4863 5.87091L14.7929 2.83232L13.5135 12.7619C13.5135 13.3544 13.0628 13.8348 12.5067 13.8348C11.9507 13.8348 11.5 13.3544 11.5 12.7619L13.006 1.07402C13.0058 0.965799 13.021 0.856918 13.0522 0.751242C13.1271 0.496749 13.2887 0.2831 13.5 0.149495C13.6502 0.054525 13.8256 0 14.0129 0L14.0142 9.22021e-07Z" fill="white"/>
<path fill-rule="evenodd" clip-rule="evenodd" d="M13.8877 0.490723C13.7373 0.490723 13.5973 0.530665 13.4773 0.60012C13.3078 0.698219 13.1785 0.855083 13.1186 1.04114C13.0937 1.11835 13.0815 1.19821 13.0817 1.27755L13.0817 1.29456L11.5 12.5321C11.5086 12.959 11.866 13.3026 12.3057 13.3026C12.7508 13.3026 13.1116 12.9506 13.1116 12.5164V12.4996L14.5099 2.56473L19.9279 5.77594L15.0077 23.8862L15.0004 23.9028C14.8245 24.3017 15.0133 24.7641 15.4222 24.9357C15.8257 25.105 16.2927 24.9278 16.4739 24.5396L21.3408 6.62541L21.3481 6.60879C21.7032 5.80352 21.4186 4.86597 20.6719 4.37913L14.3366 0.624228C14.2366 0.558532 14.1209 0.514077 13.9961 0.497747C13.9605 0.493078 13.9247 0.490739 13.889 0.490724L13.8877 0.490723Z" fill="white"/>
</svg>
