<svg width="100%" height="100%" viewBox="0 0 24 24" fill="none" xmlns="http://www.w3.org/2000/svg">
    <path fill-rule="evenodd" clip-rule="evenodd"
        d="M17.6668 16.1593C19.1087 14.7641 20 12.8396 20 10.7142C20 6.45378 16.4183 3 12 3C7.58172 3 4 6.45378 4 10.7142C4 12.8396 4.89132 14.7641 6.33317 16.1593V19.7143C6.33317 20.4244 6.93012 21 7.66651 21C8.40288 21 8.99984 20.4244 8.99984 19.7143V18.5365H10.6667V19.7143C10.6667 20.4244 11.2636 21 12 21C12.7364 21 13.3333 20.4244 13.3333 19.7143V18.5365H15.0002V19.7143C15.0002 20.4244 15.5971 21 16.3335 21C17.0699 21 17.6668 20.4244 17.6668 19.7143V16.1593ZM8.99984 14.0365C9.92031 14.0365 10.6665 13.3169 10.6665 12.4293C10.6665 11.5417 9.92031 10.8222 8.99984 10.8222C8.07936 10.8222 7.33317 11.5417 7.33317 12.4293C7.33317 13.3169 8.07936 14.0365 8.99984 14.0365ZM16.6668 12.4293C16.6668 13.3169 15.9206 14.0365 15.0002 14.0365C14.0797 14.0365 13.3335 13.3169 13.3335 12.4293C13.3335 11.5417 14.0797 10.8222 15.0002 10.8222C15.9206 10.8222 16.6668 11.5417 16.6668 12.4293Z"
        fill="white" />
</svg>