<svg width="176" height="176" viewBox="0 0 176 176" fill="none" xmlns="http://www.w3.org/2000/svg">
<path d="M28 57.9565C28 27.6049 54.8629 3 88 3C121.137 3 148 27.6049 148 57.9565V106.043C148 136.395 121.137 161 88 161C54.8629 161 28 136.395 28 106.043V57.9565Z" fill="#040803"/>
<path fill-rule="evenodd" clip-rule="evenodd" d="M143 106.043V57.9565C143 30.7705 118.798 8 88 8C57.202 8 33 30.7705 33 57.9565V106.043C33 133.23 57.202 156 88 156C118.798 156 143 133.23 143 106.043ZM88 3C54.8629 3 28 27.6049 28 57.9565V106.043C28 136.395 54.8629 161 88 161C121.137 161 148 136.395 148 106.043V57.9565C148 27.6049 121.137 3 88 3Z" fill="url(#paint0_linear_8454_39586)"/>
<path d="M82.019 94.6764C82.019 94.6764 82.5327 96.1897 85.6151 97.1986C88.6975 98.2074 93.3416 98.7371 96.4035 96.1897C99.4653 93.6424 98.9721 92.6587 100.513 92.1543C101.489 91.8365 104.089 96.0283 109.247 97.703C114.405 99.3777 115.841 98.4213 123.611 94.172C131.381 89.9227 145 91.1709 145 91.1709L143.143 123L80 103.277L82.019 94.6764Z" fill="url(#paint1_linear_8454_39586)"/>
<path d="M99 108.082C99 108.082 102.786 104.685 104.049 104.371C105.313 104.058 107.208 106.253 109.734 106.881C112.261 107.508 116.078 105.771 118.298 104.738C120.519 103.706 123 104.058 123 104.058L118.841 116L99 108.082Z" fill="url(#paint2_linear_8454_39586)"/>
<path d="M94.2148 104.61C94.2148 104.61 94.5058 104.025 97.1242 105.78C99.7427 107.535 103.449 109.74 108.578 111.416C113.708 113.092 120.5 115.5 120.5 115.5L108 121.5L94.8287 120.989L94.2148 104.61Z" fill="url(#paint3_linear_8454_39586)"/>
<path d="M94 118.881C94 118.881 96.3071 115.483 99.5075 116.068C102.708 116.653 105.704 119.39 107.406 119.776C109.108 120.162 97.2789 123.608 97.2789 123.608L94 118.881Z" fill="url(#paint4_linear_8454_39586)"/>
<path d="M124.062 105.981C124.062 105.981 123.41 103.516 126.344 102.454C129.279 101.392 137.466 102.048 143.156 105.981C148.845 109.914 149.168 111.225 149.168 111.225L147.538 117.126L124.062 105.981Z" fill="url(#paint5_linear_8454_39586)"/>
<path d="M122.934 104.009C122.934 104.009 123.476 102.645 128.117 102.675C131.36 102.697 138.505 104.934 140.03 108.92C141.387 112.466 139.759 115.74 139.759 115.74L123.205 106.737L122.934 104.009Z" fill="url(#paint6_linear_8454_39586)"/>
<path d="M125.037 106.176C125.037 106.176 128.819 105.298 132.019 106.761C135.22 108.223 139.875 111.148 140.166 115.827C140.456 120.507 134.329 134.235 134.329 134.235L123.582 111.148L125.037 106.176Z" fill="#005B2A"/>
<path d="M109 125.794C109 125.794 109 124.347 111.716 121.739C117.149 122.901 119.866 117.115 119.866 117.115L124.5 113C124.5 113 128.5 111.5 132.5 114.5C136.5 117.5 135.843 123.659 134 128C132.157 132.341 130.698 132 130.698 132L109 125.794Z" fill="url(#paint7_linear_8454_39586)"/>
<path d="M104.754 123.036C104.754 123.036 110.701 121.141 112.837 121.638C116.328 122.451 118.832 124.109 122.739 123.555C126.645 123 132.783 127.017 132.783 127.017L122.501 141L104.117 124.025L104.754 123.036Z" fill="#1B1AA4"/>
<path d="M102.5 124C102.5 124 106.227 127.771 116.948 128.843C127.669 129.915 123.299 136.485 123.299 136.485L101.933 137.637L99.5 131.5L96 127.5L102.5 124Z" fill="url(#paint8_linear_8454_39586)"/>
<path d="M30.4453 96.324C30.4453 96.324 35.313 97.8459 37.9902 96.5981C40.6674 95.3453 43.0088 92.3163 46.7082 92.3457C54.2969 92.4093 56.7308 98.7707 59.1646 98.2814C61.5984 97.7921 62.5622 96.6666 64.519 96.8134C66.4759 96.9602 67.0989 99.6418 69.8735 99.7494C72.6481 99.8571 79.1221 100.239 82.5294 101.707C85.9368 103.175 88.8574 105.622 92.2648 105.622C95.6722 105.622 94.5 101.5 94.5 101.5L93.434 110.832L38.0486 113.808L30.4453 96.324Z" fill="#1B1AA4"/>
<path d="M51.9883 107.97C51.9883 107.97 57.6234 110.118 62.4504 109.225C67.2774 108.336 68.8937 107.432 73.7753 107.97C77.1062 108.336 79.9747 109.295 84.0227 110.166C89.1191 111.264 94.001 108.5 94.001 108.5L93.8528 122.528L54.1724 114.477L51.9883 107.97Z" fill="#005B2A"/>
<path d="M34 99.742C34 99.742 38.6128 97.6342 43.2257 98.0557C47.8385 98.4773 55.3868 103.115 60.8384 109.017C66.2899 114.918 74.6769 115.762 77.193 115.34C80.5 114.786 83 116 83 116L81.8058 124.615L36.1429 125.458L34 99.742Z" fill="#54E9F1"/>
<path d="M47 106C47 106 48.5 115 68.163 120.7C87.8259 126.4 79.7318 120.334 79.7318 120.334V124.5C79.7318 124.5 75.3634 130.581 69.175 128.019C62.9865 125.458 46.5 116.5 46.5 116.5L47 106Z" fill="url(#paint9_linear_8454_39586)"/>
<path d="M40.8672 123.444L48.9157 119.845L75.0735 125.881L61.4537 132.977L50.9915 133.567L40.8672 123.444Z" fill="url(#paint10_linear_8454_39586)"/>
<path d="M47.617 111.386C47.617 111.386 49.9031 118.131 57.0817 120.535C63.6342 122.731 68.7306 115.046 68.7306 115.046L71.2788 121.124C71.2788 121.124 66.1824 129.318 59.6299 126.756C53.0774 124.195 45.7969 115.88 45.7969 115.88L47.617 111.386Z" fill="url(#paint11_linear_8454_39586)"/>
<path d="M40.8672 129.905C40.8672 129.905 52.2693 132.588 58.9764 131.247C65.6836 129.905 69.7078 127.893 72.9443 125.266C76.1808 122.639 80.1454 122.618 83.1171 123.926C87.4132 125.813 88.5262 129.643 87.4132 132.378C86.0943 135.611 82.4514 143.32 77.0857 142.649C71.72 141.978 69.7078 143.99 69.7078 143.99L62.8157 145.242L40.8672 129.905Z" fill="#2182D9"/>
<path d="M74.9181 124.56C74.9181 124.56 68.7951 128.963 61.8131 127.854C54.8966 126.756 57.0807 125.658 49.0721 122.365C46.3783 121.256 41.7916 124.56 41.7916 124.56L39.3829 120.732L42.499 120C42.499 120 46.8079 116.462 47.616 115.046C47.616 115.046 50.1642 118.705 51.9844 120.535C53.8045 122.365 57.1317 123.935 59.6289 124.56C62.5411 125.292 66.9095 125.292 68.7296 122.731C70.0838 120.824 70.9138 119.071 70.9138 119.071L74.9181 124.56Z" fill="url(#paint12_linear_8454_39586)"/>
<path d="M32.8574 109.505L38.518 108.824C38.518 108.824 37.426 110.654 37.426 113.948C37.426 117.241 36.8581 119.47 36.8581 119.47L32.8574 109.505Z" fill="url(#paint13_linear_8454_39586)"/>
<path d="M32.5078 103.701C32.5078 103.701 39.1258 99.6903 44.1567 101.751C50.7092 104.433 51.3535 110.42 50.1631 113.666C48.9473 116.985 45.6128 119.803 44.1567 119.437C44.1567 119.437 47.4329 109.19 43.0646 106.995C38.6963 104.799 33.5999 106.995 33.5999 106.995L32.5078 103.701Z" fill="url(#paint14_linear_8454_39586)"/>
<path d="M32.873 106.263C32.873 106.263 37.2414 103.701 41.6097 105.165C45.8251 106.578 47.0701 111.361 47.0701 113.948C47.0701 120.169 41.9737 120.169 41.9737 120.169C41.9737 120.169 45.9234 114.8 42.7018 111.02C40.5176 108.459 35.7853 111.02 35.7853 111.02L32.873 106.263Z" fill="url(#paint15_linear_8454_39586)"/>
<path d="M35.501 91.5C35.501 91.5 36.501 103.833 40.001 112C43.501 120.167 46.501 126.572 56.001 133C65.501 139.428 77.501 132 77.501 132L68.934 141.474L46.6597 138.383L31.0312 106.445L35.501 91.5Z" fill="#040803"/>
<path d="M141.021 96.3352C139.257 105.141 137.732 117.202 132.898 125.583L140.565 112.194L141.021 96.3352Z" fill="#040803"/>
<path d="M78.845 105.103C78.845 105.103 71.5314 112.194 71.6725 115.666C71.9222 121.791 88.3132 123.799 88.3132 123.799L74.2099 124.181L68.0117 118.512L68.5599 112.057L78.845 105.103Z" fill="#040803"/>
<path d="M28.0014 74.0001C32.0012 70.0001 39.0617 66.0771 45.0617 66.5771L27.5618 86.5771L28.0014 74.0001Z" fill="#040803"/>
<path d="M148.063 73.5771C142.562 68.5771 139.563 68.0771 134.063 68.0771L148.062 89.5771L148.063 73.5771Z" fill="#040803"/>
<path d="M125.437 113.56C125.437 113.563 125.437 113.566 125.434 113.568C125.174 114.073 124.873 114.586 124.522 115.099C124.52 115.102 124.52 115.104 124.52 115.107L124.517 115.11C123.508 116.591 122.105 118.094 120.218 119.559C119.692 119.968 119.133 120.391 118.539 120.825C115.041 123.37 110.354 126.24 104.343 128.306C104.343 128.306 104.338 128.306 104.33 128.308C99.7705 129.874 94.4516 130.976 88.3104 131.129C86.5465 131.173 84.8558 131.124 83.2493 130.993C79.2465 130.665 75.7431 129.817 72.8258 128.587C72.6141 128.497 72.4052 128.406 72.1989 128.311C69.7186 127.19 67.6941 125.779 66.1799 124.172C63.9926 121.862 62.8637 119.142 62.9587 116.286C63.0021 114.949 63.2545 113.68 63.6724 112.472C64.3725 110.445 65.5421 108.587 66.9859 106.882C66.9886 106.876 66.9967 106.868 67.0048 106.86C69.9601 103.365 74.0551 100.49 77.6128 98.0073C79.9249 96.3923 82.4351 94.5863 84.9399 92.7175C93.0214 86.6912 101.06 80.0101 102.308 77.001C103.665 73.7273 102.851 69.908 102.851 69.908C102.851 69.908 104.802 70.5027 106.579 71.8858C108.609 73.4654 110.411 76.0762 108.821 80.0019C106.65 85.3599 98.1341 92.0437 90.6171 97.2626C86.4406 100.165 82.5735 102.612 80.2723 104.135C79.8815 104.394 79.5342 104.626 79.2411 104.828C77.4744 106.042 75.488 107.545 73.7892 109.16C71.876 110.977 70.3292 112.938 69.8814 114.791C69.8081 115.088 69.7647 115.383 69.7512 115.672C69.7104 116.662 70.0279 117.606 70.8285 118.468C71.3387 119.016 72.0741 119.573 72.9995 120.108C74.7471 121.117 77.1786 122.053 80.0552 122.729C80.2316 122.773 80.4107 122.814 80.5898 122.852C80.6549 122.868 80.7174 122.882 80.7825 122.896C84.541 123.709 88.9915 124.077 93.651 123.627C93.9522 123.597 94.2535 123.567 94.5547 123.529C95.0133 123.474 95.4719 123.411 95.936 123.34C99.0432 122.863 102.213 122.004 105.293 120.651C120.218 114.103 120.761 110.284 120.761 108.647C120.761 107.427 120.218 107.01 119.133 107.01C117.214 107.01 116.691 109.465 118.862 110.284C118.938 110.311 118.951 110.346 118.913 110.382C118.571 110.718 113.586 111.037 115.062 105.1C115.209 104.514 115.456 104.015 115.779 103.589C117.619 101.166 121.887 101.24 123.475 102.099C124.761 102.795 125.931 104.334 126.436 106.366C126.943 108.393 126.788 110.906 125.437 113.56Z" fill="url(#paint16_linear_8454_39586)"/>
<path d="M90.6166 97.2625C86.4401 100.165 82.573 102.612 80.2718 104.135C77.8783 104.544 74.9936 105.264 71.5498 106.445C67.5281 107.823 65.0016 110.595 63.6719 112.472C64.372 110.445 65.5416 108.587 66.9854 106.882C66.9881 106.876 66.9962 106.868 67.0043 106.86C69.2323 104.429 72.5105 101.848 77.284 99.846C83.0398 97.4316 90.6166 97.2625 90.6166 97.2625Z" fill="url(#paint17_linear_8454_39586)"/>
<path d="M101.425 85.9846C97.0012 89.4902 84.9414 92.7176 84.9414 92.7176C93.0229 86.6912 101.061 80.0101 102.309 77.001C103.666 73.7273 102.852 69.908 102.852 69.908C102.852 69.908 107.202 72.0823 107.938 74.9304C108.662 77.7321 105.845 82.4763 101.425 85.9846Z" fill="url(#paint18_linear_8454_39586)"/>
<path d="M93.625 66C93.625 66 96.5 75 96.5 90.5C96.5 106 96 119.5 102.5 130C109 140.5 129.5 131.5 129.5 131.5L114.792 145.356L94.8299 139.616L93.625 108.647V66Z" fill="#040803"/>
<path d="M92.5381 15.0733C92.169 14.8987 91.8026 14.7487 91.439 14.6205C87.2246 13.1337 83.2924 14.5495 81.6831 16.4374C81.4307 16.7348 81.1946 17.0048 80.9803 17.2667L80.9613 17.2913C79.8378 18.6526 79.2299 19.7247 78.9884 22.7447L78.9857 22.7475C78.9802 22.8239 78.9748 22.903 78.9694 22.9848C78.7957 25.4292 79.7347 28.7711 82.1445 30.8554C82.6329 31.281 83.1811 31.652 83.7944 31.9548C84.8772 32.4895 86.1581 32.806 87.6533 32.806C89.7565 32.806 91.4064 32.3804 92.7063 31.6902C95.4282 30.247 96.6005 27.6553 97.1514 25.4401C97.3197 24.7554 97.4201 23.9997 97.4255 23.2085C97.4282 23.1922 97.4282 23.184 97.4282 23.184C97.4499 20.2103 96.1745 16.7948 92.5381 15.0733ZM87.9247 27.3798C87.5204 27.388 87.154 27.3198 86.8229 27.1943C86.5841 27.1097 86.3616 26.9924 86.1608 26.8478C86.1472 26.8396 86.1336 26.8314 86.1255 26.826C86.1119 26.8178 86.1038 26.8123 86.1038 26.8123C85.9193 26.6841 85.7483 26.5395 85.5909 26.3813C85.5801 26.3376 85.5692 26.2913 85.561 26.2422C85.4498 25.6938 85.4715 24.799 86.2965 23.8032C87.0346 22.9139 88.7388 22.4392 90.0957 23.5304C90.8555 24.1415 91.1188 24.9654 91.0835 25.7538C90.3291 26.8205 89.0618 27.358 87.9247 27.3798Z" fill="url(#paint19_linear_8454_39586)"/>
<path d="M91.2534 25.6011L91.0878 21.3452C91.0878 21.3452 90.7296 19.0536 87.5546 17.2913C85.2262 15.9982 80.9629 17.2913 80.9629 17.2913L80.9819 17.2667C81.1963 17.0048 81.4324 16.7348 81.6847 16.4374C83.294 14.5495 87.2262 13.1337 91.4406 14.6205C92.252 15.2261 92.9549 16.0364 93.4244 17.114C95.7365 22.4174 91.2534 25.6011 91.2534 25.6011Z" fill="url(#paint20_linear_8454_39586)"/>
<path d="M97.4278 23.2085C97.4224 23.9996 97.322 24.7553 97.1537 25.4401C96.6028 27.6553 95.4305 30.247 92.7086 31.6901C92.7086 31.6901 89.3436 32.2003 86.752 30.3506C84.2797 28.5883 84.9501 25.601 84.9501 25.601L85.5633 26.2421C85.5715 26.2912 85.5824 26.3376 85.5932 26.3813C85.7506 26.5395 85.9216 26.6841 86.1061 26.8123C86.1061 26.8123 86.1142 26.8178 86.1278 26.8259C86.1359 26.8314 86.1495 26.8396 86.1631 26.8478C86.2635 26.9078 86.4914 27.0387 86.8252 27.1942C87.9433 27.7153 90.2663 28.5092 93.0831 27.8654C96.8769 27.0005 97.3871 23.5304 97.4278 23.2085Z" fill="url(#paint21_linear_8454_39586)"/>
<path d="M82.2204 25.6011C81.9952 28.6974 83.7944 31.9548 83.7944 31.9548L82.1445 30.8554C79.7347 28.7711 78.7957 25.4292 78.9694 22.9848C78.9748 22.903 78.9802 22.8239 78.9857 22.7475L78.9884 22.7447C78.9884 22.7447 80.9613 19.5911 84.5163 19.5911C86.0848 19.5911 87.059 20.2867 87.059 20.2867L85.059 21.408C85.059 21.408 82.4674 22.2264 82.2204 25.6011Z" fill="url(#paint22_linear_8454_39586)"/>
<path d="M111.264 39.3535L110.678 40.8321L109.747 43.1728H66.2162L65.8472 42.0543V42.0516L65.1443 39.9209L64.8594 39.0616L65.2664 38.3332L64.8594 32.806C64.8594 32.806 64.8594 32.806 64.8621 32.8033L65.6735 31.1692H110.149L110.722 33.3517V37.7166L111.264 39.3535Z" fill="url(#paint23_linear_8454_39586)"/>
<path d="M110.721 33.3517C110.721 33.3517 100.862 32.8961 98.5089 32.806C96.1561 32.716 88.3786 33.5044 85.5129 33.6245C82.6499 33.7445 73.4232 32.9588 70.2861 32.5332C67.225 32.1186 64.9699 32.7733 64.8613 32.8033L65.6727 31.1692H110.148L110.721 33.3517Z" fill="url(#paint24_linear_8454_39586)"/>
<path d="M111.264 39.3533L110.678 40.8319L96.6996 40.3054H82.0156L65.1443 39.9207L64.8594 39.0614L65.2664 38.333C65.2664 38.333 74.9898 37.018 78.1268 37.1708C81.2612 37.3236 90.9899 37.3836 94.0863 37.4436C97.1827 37.5036 110.722 37.7164 110.722 37.7164L111.264 39.3533Z" fill="url(#paint25_linear_8454_39586)"/>
<path d="M111.264 39.3533L109.747 43.1726H66.2162L64.8594 39.0614C64.8594 39.0614 83.0278 38.322 87.0605 38.5949C91.0931 38.8677 107.856 39.9725 108.732 39.8907C109.606 39.8089 111.264 39.3533 111.264 39.3533Z" fill="url(#paint26_linear_8454_39586)"/>
<path d="M146.696 126.107C146.696 126.107 146.696 126.107 146.693 126.109C146.693 126.112 146.691 126.115 146.688 126.12C144.631 130.758 141.914 135.399 138.43 139.949C137.716 140.882 136.97 141.812 136.188 142.74C132.609 146.99 128.693 150.46 124.696 153.289V153.292C124.34 153.543 123.985 153.791 123.627 154.034C123.627 154.034 123.624 154.034 123.621 154.037C116.639 158.776 109.48 161.618 103.477 163.326C103.078 163.438 102.685 163.547 102.297 163.651C99.8868 164.295 97.6887 164.75 95.7945 165.077L96.0251 165.869C94.3779 166.371 92.9098 167.175 91.6425 168.313C90.3209 169.497 89.2164 171.041 88.3453 172.984L88.2774 173C87.2978 170.817 86.0223 169.137 84.4782 167.907C83.3303 166.99 82.0304 166.324 80.5975 165.885L80.8309 165.086L81.1403 164.027L87.5854 164.546V164.537L81.1403 164.019L81.1159 164.104L80.8309 165.077C80.8201 165.075 80.8119 165.075 80.8011 165.072C77.8187 164.559 74.0819 163.716 69.9543 162.341C66.3043 161.127 62.3531 159.493 58.3449 157.297C55.6285 155.813 52.8903 154.07 50.2037 152.024H50.201C49.2783 151.32 48.3638 150.583 47.4601 149.811C45.1751 147.86 42.9526 145.673 40.8413 143.217V143.215C40.7029 143.056 40.5699 142.901 40.4342 142.74C26.8656 126.644 23.3377 109.184 24.9659 94.4526C25.5141 89.4956 26.8167 84.5251 28.9741 80.2147C33.2238 71.7112 40.7789 65.7585 52.3747 67.4445C72.9964 70.4454 58.8904 97.1725 50.7519 83.2729C50.7492 83.2701 50.7464 83.2674 50.7464 83.2674C50.7464 83.2674 55.9025 83.5402 54.5457 79.9937C52.779 75.3778 35.7286 73.5308 35.5875 97.4289C35.5739 99.1258 35.6499 100.948 35.8209 102.91C37.1778 118.46 50.0762 141.196 63.2296 140.012C64.1062 139.933 64.942 139.802 65.7398 139.624C66.288 139.507 66.8172 139.362 67.3274 139.202C71.938 137.739 75.0995 134.657 77.2624 131.159C77.2678 131.151 77.2705 131.148 77.2705 131.148C80.1986 126.412 81.3004 120.923 81.7129 117.693C81.93 115.988 81.9544 114.913 81.9544 114.913L82.7685 41.9999C87.0401 40.06 89.4754 40.307 93.8541 41.9999L93.9356 47.3848L94.6683 114.913C94.6683 114.913 94.7008 116.302 95.0129 118.427C95.8297 124.036 98.5896 134.779 107.816 138.659C107.816 138.659 107.816 138.659 107.819 138.661C107.819 138.661 107.819 138.661 107.822 138.664C109.466 139.352 111.312 139.824 113.393 140.012C115.759 140.225 118.118 139.665 120.403 138.509C122.959 137.215 125.423 135.18 127.703 132.654C127.703 132.654 127.703 132.654 127.705 132.651C131.078 128.917 134.045 124.11 136.308 119.057C136.832 117.89 137.315 116.711 137.76 115.53L137.762 115.527C139.388 111.198 140.46 106.827 140.802 102.91C141.345 96.6787 140.916 91.8363 139.879 88.1207C139.879 88.1207 139.879 88.1207 139.879 88.118C135.993 74.1665 123.57 76.0898 122.077 79.9937C120.72 83.5402 125.876 83.2674 125.876 83.2674C117.735 97.1807 103.624 70.4454 124.248 67.4445C129.89 66.6233 134.576 67.6109 138.389 69.8234H138.392C139.885 70.6882 141.241 71.7412 142.471 72.9443C142.471 72.9443 142.471 72.9443 142.473 72.947C142.476 72.9498 142.479 72.9525 142.482 72.9579C146.715 77.1046 149.429 83.0546 150.821 89.3702C150.881 89.632 150.935 89.8967 150.989 90.1586C151.035 90.3823 151.076 90.6033 151.117 90.816C151.117 90.816 151.117 90.8188 151.117 90.8215V90.8242C151.125 90.8652 151.133 90.9088 151.138 90.9497C151.149 91.007 151.163 91.0779 151.179 91.1652C151.193 91.2416 151.206 91.3153 151.22 91.3917C151.225 91.4217 151.228 91.449 151.233 91.479C151.407 92.4665 151.548 93.4596 151.657 94.4526C152.734 104.206 151.554 115.151 146.696 126.107Z" fill="url(#paint27_linear_8454_39586)"/>
<path d="M124.698 153.29C124.342 153.543 123.987 153.792 123.629 154.034C123.629 154.034 123.626 154.034 123.623 154.037C116.177 159.092 108.529 161.989 102.299 163.651C102.299 163.651 95.0936 158.208 93.8969 148.022C92.7001 137.838 91.7617 41 91.7617 41L93.9376 41.484L94.6703 114.913C94.6703 114.913 94.7029 116.302 95.0149 118.427C95.8318 124.036 98.5916 134.779 107.818 138.659C107.818 138.659 107.818 138.659 107.821 138.662C107.821 138.662 107.821 138.662 107.824 138.664C109.468 139.352 111.314 139.824 113.395 140.012C115.326 146.457 118.5 150.5 124.698 153.29Z" fill="url(#paint28_linear_8454_39586)"/>
<path d="M51.959 153.29C52.3145 153.543 52.67 153.792 53.0282 154.034C53.0282 154.034 53.0309 154.034 53.0336 154.037C60.4801 159.092 68.1274 161.989 74.3582 163.651C74.3582 163.651 81.3042 157.687 82.501 147.5C83.6977 137.316 84.8956 41 84.8956 41L82.7192 41.7487L81.9865 114.913C81.9865 114.913 81.9539 116.302 81.6418 118.427C80.825 124.036 78.0651 134.779 68.8384 138.659C68.8384 138.659 68.8384 138.659 68.8357 138.662C68.8357 138.662 68.8357 138.662 68.833 138.664C69.1108 141.181 59.9785 151.788 51.959 153.29Z" fill="url(#paint29_linear_8454_39586)"/>
<path d="M102.297 163.651C99.887 164.295 97.6889 164.75 95.7947 165.078L96.0254 165.869C94.3781 166.371 92.91 167.176 91.6427 168.313L88.8394 167.907L88.0605 148.824V41.4841H91.9819C91.9819 41.4841 93.336 141.373 94.2506 148.81C95.1651 156.247 103.477 163.326 103.477 163.326C103.078 163.438 102.685 163.547 102.297 163.651Z" fill="url(#paint30_linear_8454_39586)"/>
<path d="M88.3108 41.4841V167.907H84.479C83.3311 166.99 82.0312 166.324 80.5983 165.885L80.8317 165.086L81.1411 164.027L87.5862 164.546V164.538L81.1411 164.019L81.1167 164.104L80.8317 165.078C80.8209 165.075 80.8127 165.075 80.8019 165.072C77.8195 164.559 74.0827 163.716 69.9551 162.341C69.9551 162.341 81.77 158.624 82.5 146.5C83.0129 137.988 83.8548 41.4841 83.8548 41.4841H85.7843H88.3108Z" fill="url(#paint31_linear_8454_39586)"/>
<path d="M146.697 126.107C146.697 126.107 146.697 126.107 146.695 126.11C146.695 126.112 146.692 126.115 146.689 126.121C146.496 126.38 143.319 130.636 135.476 135.672C126.979 141.128 123.169 141.96 118.165 142.203C113.24 142.443 107.98 138.773 107.82 138.662C109.465 139.352 111.313 139.824 113.394 140.012C118.409 140.465 123.389 137.437 127.704 132.654C127.704 132.654 127.704 132.654 127.707 132.652C131.08 128.917 134.046 124.11 136.309 119.057L137.889 117.972L140.57 113.285L145.728 103.589L149.227 88.1182L150.822 89.3704C150.882 89.6323 150.936 89.8969 150.99 90.1588C151.037 90.3825 151.077 90.6035 151.118 90.8163C151.118 90.8163 151.118 90.819 151.118 90.8217V90.8244C151.126 90.8654 151.134 90.909 151.14 90.9499C151.151 91.0072 151.164 91.0781 151.18 91.1654C151.194 91.2418 151.208 91.3155 151.221 91.3919C151.227 91.4219 151.229 91.4492 151.235 91.4792C151.408 92.4667 151.549 93.4598 151.658 94.4528C152.735 104.206 151.555 115.151 146.697 126.107Z" fill="url(#paint32_linear_8454_39586)"/>
<path d="M147.857 108.011C142.471 119.016 127.96 132.466 127.705 132.651C131.857 128.055 135.393 121.835 137.759 115.53L137.762 115.527C137.762 115.527 146.4 104.585 146.21 89.5503C146.009 73.4955 138.603 70.1181 138.389 69.8235H138.392C139.884 70.6883 141.241 71.7413 142.471 72.9444C142.471 72.9444 142.471 72.9444 142.473 72.9472C142.476 72.9499 142.479 72.9526 142.481 72.9581C146.891 77.2766 149.651 83.5513 150.989 90.1587C151.035 90.3824 151.076 90.6034 151.116 90.8162C151.116 90.8162 151.116 90.8189 151.116 90.8216V90.8244C151.116 90.8407 151.125 90.8816 151.138 90.9498C151.149 91.0071 151.163 91.0781 151.179 91.1654C151.192 91.2418 151.206 91.3154 151.22 91.3918C151.225 91.4218 151.228 91.4491 151.233 91.4791C151.543 93.3969 152.091 99.3606 147.857 108.011Z" fill="url(#paint33_linear_8454_39586)"/>
<path d="M38.1504 139.949C38.8641 140.882 39.6104 141.813 40.3919 142.74C44.2916 147.37 48.5874 151.072 52.9538 154.034C52.9538 154.034 52.9565 154.034 52.9593 154.037C53.0949 154.086 56.4844 155.27 62.3325 154.004C74.6013 151.347 78.7343 143.01 80.0858 138.383C81.3314 134.117 81.5756 118.425 81.5756 118.425L81.5675 118.427C80.7506 124.036 77.9908 134.779 68.7641 138.659C68.7641 138.659 68.7641 138.659 68.7613 138.662C68.7613 138.662 68.7613 138.662 68.7586 138.664C68.6175 138.76 64.6907 145.654 51.2903 144.385C45.3309 143.823 38.1504 139.949 38.1504 139.949Z" fill="url(#paint34_linear_8454_39586)"/>
<path d="M29.8836 126.107C29.8836 126.107 29.8836 126.107 29.8863 126.11C29.8863 126.112 29.889 126.115 29.8917 126.121C30.0844 126.38 33.2622 130.636 41.1049 135.672C49.6016 141.128 53.4117 141.96 58.4158 142.203C63.3412 142.443 68.6004 138.773 68.7606 138.662C67.116 139.352 65.268 139.824 63.1865 140.012C58.1716 140.465 53.1918 137.437 48.877 132.654C48.877 132.654 48.877 132.654 48.8743 132.652C45.5011 128.917 42.535 124.11 40.2717 119.057L38.6924 117.972L36.0112 113.285L30.8524 103.589L27.3544 88.1182L25.7587 89.3704C25.699 89.6323 25.6447 89.8969 25.5904 90.1588C25.5443 90.3825 25.5036 90.6035 25.4629 90.8163C25.4629 90.8163 25.4629 90.819 25.4629 90.8217V90.8244C25.4547 90.8654 25.4466 90.909 25.4412 90.9499C25.4303 91.0072 25.4168 91.0782 25.4005 91.1654C25.3869 91.2418 25.3733 91.3155 25.3598 91.3919C25.3543 91.4219 25.3516 91.4492 25.3462 91.4792C25.1725 92.4667 25.0314 93.4598 24.9229 94.4528C23.8455 104.206 25.026 115.151 29.8836 126.107Z" fill="url(#paint35_linear_8454_39586)"/>
<path d="M28.7219 108.011C34.1087 119.016 48.619 132.466 48.8741 132.651C44.7221 128.055 41.1861 121.835 38.8197 115.53L38.817 115.527C38.817 115.527 30.1792 104.585 30.3692 89.5503C30.57 73.4955 37.9758 70.1181 38.1901 69.8235H38.1874C36.6949 70.6883 35.338 71.7413 34.1087 72.9444C34.1087 72.9444 34.1087 72.9444 34.106 72.9472C34.1033 72.9499 34.1005 72.9526 34.0978 72.9581C29.688 77.2766 26.9281 83.5513 25.5903 90.1587C25.5441 90.3824 25.5034 90.6034 25.4627 90.8162C25.4627 90.8162 25.4627 90.8189 25.4627 90.8216V90.8244C25.4627 90.8407 25.4546 90.8816 25.441 90.9498C25.4302 91.0071 25.4166 91.0781 25.4003 91.1654C25.3867 91.2418 25.3732 91.3154 25.3596 91.3918C25.3542 91.4218 25.3515 91.4491 25.346 91.4791C25.0367 93.3969 24.4885 99.3606 28.7219 108.011Z" fill="url(#paint36_linear_8454_39586)"/>
<path d="M138.431 139.949C137.717 140.882 136.971 141.813 136.19 142.74C132.29 147.37 127.994 151.072 123.628 154.034C123.628 154.034 123.625 154.034 123.622 154.037C123.487 154.086 120.097 155.27 114.249 154.004C101.98 151.347 97.8471 143.01 96.4957 138.383C95.2501 134.117 95.0059 118.425 95.0059 118.425L95.014 118.427C95.8308 124.036 98.5907 134.779 107.817 138.659C107.817 138.659 107.817 138.659 107.82 138.662C107.82 138.662 107.82 138.662 107.823 138.664C107.964 138.76 113.302 142.396 126.702 141.128C132.662 140.566 138.431 139.949 138.431 139.949Z" fill="url(#paint37_linear_8454_39586)"/>
<path d="M91.7241 24.076C91.6427 24.7362 91.412 25.2955 91.0837 25.7538C91.119 24.9654 90.8557 24.1415 90.0959 23.5304C88.739 22.4392 87.0348 22.9139 86.2967 23.8032C85.3984 24.889 85.4527 25.852 85.5911 26.3813C85.2166 26.0075 84.9126 25.5765 84.6684 25.1673C83.8543 23.8032 84.397 19.9839 88.1963 19.9839C90.6549 19.9839 91.9955 21.8936 91.7241 24.076Z" fill="url(#paint38_linear_8454_39586)"/>
<path d="M139.881 88.1181C135.994 74.1667 123.571 76.09 122.078 79.9939C120.722 83.5404 125.878 83.2676 125.878 83.2676C125.878 83.2676 119.671 84.7435 118.32 80.2749C116.42 74.0002 122.119 70.1809 127.004 70.1809C131.479 70.1809 137.316 74.0002 138.673 80.2749C139.522 84.2115 139.87 87.9872 139.881 88.1181Z" fill="url(#paint39_linear_8454_39586)"/>
<path d="M55.9037 84.6398C52.9647 85.2945 50.8616 83.3766 50.753 83.273C50.7503 83.2702 50.7476 83.2675 50.7476 83.2675C50.7476 83.2675 55.9037 83.5403 54.5468 79.9938C52.7802 75.3779 35.7298 73.531 35.5887 97.4291L35.586 97.4318C35.586 97.4318 31.746 93.3451 32.685 84.5716C33.3797 78.0923 39.6213 72.0905 45.5915 70.4537C51.5617 68.8168 56.4464 70.4537 58.8888 74.5458C60.8888 77.8959 60.7884 83.5485 55.9037 84.6398Z" fill="url(#paint40_linear_8454_39586)"/>
<path d="M129 110.5C130.125 106 127.5 102.5 123 102C125.845 110.17 124.898 114.676 116 122.5C125.5 118.5 128.451 112.695 129 110.5Z" fill="#040803"/>
<path d="M115.5 122C115.5 122 108 131.5 89 133C70 134.5 64.0449 121.166 64.0449 121.166C82.1258 131.004 93.8084 129.227 115.5 122Z" fill="black"/>
<path d="M69.8822 114.791C69.8089 115.088 69.7655 115.383 69.7519 115.672C69.7112 116.662 70.0287 117.606 70.8293 118.468C71.3394 119.016 72.0749 119.573 73.0003 120.108C74.7479 121.117 77.1794 122.053 80.056 122.729C80.2324 122.773 80.4115 122.814 80.5906 122.852C80.6557 122.868 80.7181 122.882 80.7832 122.896C84.5418 123.709 88.9923 124.077 93.6518 123.627C93.953 123.597 94.2542 123.567 94.5555 123.529C95.0141 123.474 95.4727 123.411 95.9368 123.34C99.044 122.863 102.214 122.004 105.294 120.651C120.219 114.103 120.762 110.284 120.762 108.647C120.762 107.427 120.219 107.01 119.134 107.01C117.215 107.01 116.691 109.465 118.862 110.284C118.938 110.311 118.952 110.347 118.914 110.382C118.572 110.718 113.587 111.037 115.063 105.1C115.21 104.514 115.457 104.015 115.78 103.589C117.62 101.167 121.888 101.24 123.476 102.1C124.762 102.795 125.932 104.334 126.436 106.366C126.944 108.393 126.789 110.906 125.438 113.56C125.438 113.563 125.438 113.566 125.435 113.568C125.175 114.073 124.873 114.586 124.523 115.099C124.521 115.102 124.521 115.104 124.521 115.107L124.518 115.11C123.508 116.591 122.105 118.094 120.219 119.559C119.693 119.969 119.134 120.391 118.539 120.825C115.041 123.37 110.355 126.24 104.344 128.306C104.344 128.306 104.338 128.306 104.33 128.308C99.7713 129.874 94.4523 130.976 88.3111 131.129C86.5472 131.173 84.8566 131.124 83.25 130.993C79.2473 130.665 75.7438 129.817 72.8266 128.587C72.6149 128.497 72.4059 128.407 72.1997 128.311C69.7193 127.19 67.5511 125.834 66.1806 124.173C64.3434 121.944 64.0449 121.166 64.0449 121.166L69.8822 114.791Z" fill="url(#paint41_linear_8454_39586)"/>
<path d="M118.833 120.108L118.664 120.735C118.624 120.762 118.583 120.795 118.539 120.825C115.041 123.37 110.355 126.24 104.344 128.306C104.344 128.306 104.339 128.306 104.33 128.308C103.798 128.398 87.0249 131.208 76.6177 125.583C71.5674 122.849 73.0003 120.108 73.0003 120.108C74.7479 121.117 77.1794 122.053 80.056 122.729L80.2514 122.841L80.5906 122.852C80.6557 122.868 80.7181 122.882 80.7833 122.896C84.5418 123.709 88.9923 124.077 93.6518 123.627C93.953 123.597 94.2543 123.567 94.5555 123.529C95.0141 123.474 95.4727 123.411 95.9368 123.34L100.621 123.491L118.833 120.108Z" fill="url(#paint42_linear_8454_39586)"/>
<path d="M125.104 109.193C124.562 112.739 120.819 117.486 116.692 119.559C112.35 121.742 108.909 122.601 103.861 123.226C98.2383 123.924 93.625 123.652 93.625 123.652L93.6521 123.627C97.4812 123.259 101.454 122.337 105.294 120.651C120.22 114.103 120.762 110.284 120.762 108.647C120.762 107.428 120.22 107.01 119.134 107.01C117.216 107.01 116.692 109.465 118.863 110.284C118.939 110.311 118.952 110.347 118.914 110.382C118.846 110.368 116.656 109.902 116.149 108.374C115.606 106.737 115.948 104.35 118.591 103.736C122.119 102.918 125.647 105.646 125.104 109.193Z" fill="url(#paint43_linear_8454_39586)"/>
<path d="M69.7506 115.672C67.9215 118.021 68.5022 121.455 69.2295 123.742C70.1332 126.579 72.8252 128.587 72.8252 128.587C70.0599 127.422 67.8129 126.077 66.1793 124.173C65.1155 122.645 63.7749 119.704 64.1793 116.711C64.5565 113.912 66.2444 112.284 68.9283 110.742C71.6122 109.201 73.7886 109.16 73.7886 109.16C71.5687 111.269 69.8428 113.569 69.7506 115.672Z" fill="url(#paint44_linear_8454_39586)"/>
<path d="M108.229 43.1728H93.9519C93.9519 43.1728 91.8297 41.656 88.272 41.566C84.7143 41.4759 82.7007 43.1728 82.7007 43.1728H66.2148L65.8457 42.0543V42.0516C65.8457 42.0516 76.858 42.5754 78.9503 41.8906C79.7237 41.6369 80.9232 41.2877 82.3154 40.9822C84.6845 40.4638 87.6044 40.0683 89.884 40.4747C91.2056 40.7121 92.6791 41.034 94.1283 41.3532C96.6466 41.9097 99.0998 42.4581 100.579 42.5372C102.91 42.6572 108.229 43.1728 108.229 43.1728Z" fill="url(#paint45_linear_8454_39586)"/>
<path d="M78.5 164.5L88.5 169L98 164.5C95 147 91 145.313 86.5 147C80.3623 149.302 79.7363 159.908 78.5 164.5Z" fill="#040803"/>
<path d="M81.1156 164.104L80.8306 165.078C80.8198 165.075 80.8116 165.075 80.8008 165.072L81.1156 164.104Z" fill="#7093AD"/>
<path d="M96.0252 165.869C92.6656 166.895 90.0523 169.175 88.3454 172.984L88.3101 172.992L88.2775 173C86.5706 169.192 83.9573 166.911 80.5977 165.885L80.831 165.086L81.1404 164.027C81.1404 164.027 81.1404 164.025 81.1404 164.019C81.1974 163.618 83.3087 148.81 88.3101 148.81C93.3821 148.81 95.7946 165.078 95.7946 165.078L96.0252 165.869Z" fill="#7093AD"/>
<path d="M80.8306 165.078C80.8198 165.075 80.8116 165.075 80.8008 165.072L81.1156 164.104L80.8306 165.078Z" fill="url(#paint46_linear_8454_39586)"/>
<path d="M88.3101 148.81V172.992L88.2775 173C86.5706 169.192 83.9573 166.911 80.5977 165.885L80.831 165.086L81.1404 164.027C81.1404 164.027 81.1404 164.025 81.1404 164.019C81.1974 163.618 83.3087 148.81 88.3101 148.81Z" fill="url(#paint47_linear_8454_39586)"/>
<circle cx="67.5" cy="73.5" r="1.5" fill="url(#paint48_radial_8454_39586)"/>
<circle cx="114.5" cy="23.5" r="1.5" fill="url(#paint49_radial_8454_39586)"/>
<circle cx="76" cy="67" r="2" fill="url(#paint50_radial_8454_39586)"/>
<circle cx="126" cy="42" r="2" fill="url(#paint51_radial_8454_39586)"/>
<g filter="url(#filter0_d_8454_39586)">
<circle cx="73.5" cy="54.5" r="2.5" fill="url(#paint52_radial_8454_39586)"/>
</g>
<circle cx="110" cy="87" r="2" fill="url(#paint53_radial_8454_39586)"/>
<circle cx="114.5" cy="92.5" r="1.5" fill="url(#paint54_radial_8454_39586)"/>
<circle cx="106" cy="64" r="1" fill="url(#paint55_radial_8454_39586)"/>
<circle cx="110" cy="58" r="1" fill="url(#paint56_radial_8454_39586)"/>
<circle cx="52" cy="90" r="1" fill="url(#paint57_radial_8454_39586)"/>
<circle cx="45" cy="86" r="1" fill="url(#paint58_radial_8454_39586)"/>
<circle cx="53" cy="41" r="1" fill="url(#paint59_radial_8454_39586)"/>
<path d="M43.5 97.9999C43.5 97.9999 48 96.4999 52 99.9999C56 103.5 63 111 63 111C63 111 59.7745 108.793 56.39 106.358C53.9661 104.613 51.4606 102.752 50 101.5C46.5 98.4999 43.5 97.9999 43.5 97.9999Z" fill="#040803"/>
<mask id="mask0_8454_39586" style="mask-type:alpha" maskUnits="userSpaceOnUse" x="102" y="112" width="66" height="61">
<path d="M102.5 163.5L124.5 173L168 171L150.974 112.404C150.974 112.404 151.815 124.114 141.5 139.5C137.184 153.643 110.34 164.705 106.5 166.5C103.868 167.73 102.5 163.5 102.5 163.5Z" fill="#040803"/>
</mask>
<g mask="url(#mask0_8454_39586)">
<path d="M99.7727 161.029C94.5269 161.759 91.3418 160.118 92.2786 158.75C91.3419 159.054 88.9998 157.8 89 160.573C89.0001 162.397 93.0524 164.758 100.709 163.765C107.735 162.853 116.166 163.765 117.571 163.765C118.976 163.765 123.192 164.221 132.091 161.029C140.99 157.838 136.306 151 129.749 151C122.723 151 113.824 161.485 111.95 160.118C110.077 158.75 106.33 160.118 99.7727 161.029Z" fill="url(#paint60_linear_8454_39586)"/>
<path d="M118.429 160.885C114.619 162.878 109.698 163.377 107 163.377C109.857 164.374 119.953 163.875 122.239 163.875C125.096 163.875 131.286 158.392 132.715 156.897C134.144 155.401 129.858 154.404 127.477 155.401C125.708 156.142 120.236 159.939 118.429 160.885Z" fill="url(#paint61_linear_8454_39586)"/>
<path d="M146.5 147C140.323 147 133.139 155.062 129.72 158.358C128.073 159.947 120 165.5 107.5 161.5C105.745 162.615 106.1 162.443 105 163.067C123 172 129.232 161.654 133.627 162.596C138.022 163.537 141.441 159.771 141.441 160.242C141.441 160.712 141.929 162.596 146.813 163.067C151.696 163.537 158.512 162.15 159 156.5C159.527 150.4 153.825 147 146.5 147Z" fill="url(#paint62_linear_8454_39586)"/>
<path d="M149.628 152.214C144.5 151 135.977 159.426 128.5 164C133.5 165.5 137.765 163.598 141.683 160.345C142.618 160.345 144.487 161.869 149.16 161.361C152.995 160.944 157.909 154.174 149.628 152.214Z" fill="url(#paint63_linear_8454_39586)"/>
<path d="M125.685 148.123C125.685 148.123 129.479 141.378 134.873 140.701C141.898 139.819 145.4 144.717 145.958 148.13C146.53 151.618 145.009 155.71 143.561 156.107C143.561 156.107 141.382 145.572 136.498 145.806C131.614 146.039 128.254 150.455 128.254 150.455L125.685 148.123Z" fill="url(#paint64_linear_8454_39586)"/>
<path d="M123 149.603C123 149.603 129.807 145.798 134.331 144.927C138.696 144.086 142.13 147.641 143.401 149.895C146.457 155.313 142.018 157.817 142.018 157.817C142.018 157.817 142.821 151.201 138.158 149.49C134.997 148.332 127.217 153.928 127.217 153.928L123 149.603Z" fill="#005B2A"/>
</g>
<mask id="mask1_8454_39586" style="mask-type:alpha" maskUnits="userSpaceOnUse" x="22" y="126" width="57" height="47">
<path d="M30.3643 126.712L22 172.5L78.999 165C78.999 165 66 171 47 153C38.3133 145.34 30.3643 126.712 30.3643 126.712Z" fill="#040803"/>
</mask>
<g mask="url(#mask1_8454_39586)">
<path d="M74.2623 159.432C79.5586 159.424 82.4839 157.355 81.3657 156.131C82.3356 156.302 84.4802 154.734 84.8664 157.48C85.1203 159.286 81.4365 162.189 73.7159 162.271C66.6316 162.347 58.4102 164.425 57.0187 164.621C55.6273 164.816 51.5164 165.855 42.2594 163.935C33.0025 162.015 38.0067 153.913 44.5 153C51.4571 152.021 60.3353 161.115 62 159.5C63.6647 157.885 67.6419 159.443 74.2623 159.432Z" fill="#1B1AA4"/>
<path d="M51.2346 162.764C55.2848 164.208 64.7591 163.14 67.4313 162.764C64.7409 164.149 54.6743 165.062 52.4109 165.381C49.5815 165.779 44.1223 164.282 42.4993 163C40.8763 161.718 39.0436 159.719 43.5 159C47.9563 158.281 47.1843 161.32 51.2346 162.764Z" fill="url(#paint65_linear_8454_39586)"/>
<path d="M28.1346 153.521C28.6682 156.653 31.1274 160.109 34.1223 161.101C35.5162 161.564 41.493 163.011 47.4062 161.407C53.3251 159.804 53.9206 153.013 53.9206 153.013L53.2709 150.419L53.0222 149.426L52.5121 147.4L52.0336 147.29C51.7319 147.491 51.4135 147.691 51.0744 147.872C49.057 148.958 48.3094 149.32 44.5 149.037C43.6332 151.213 40.3148 153.778 38.6678 153.815C35.4757 153.883 33.9081 151.462 33.826 150.102C33.7606 149.077 35.0869 147.813 36.2558 148.163C38.0196 148.698 37.0219 151.556 37.0219 151.556C37.0219 151.556 39.2171 151.551 39.983 149.037C40.114 148.632 40.2011 148.16 40.2342 147.609C40.3961 145.113 37.5444 143.315 33.9357 143.72C32.9566 143.83 32.1244 144.103 31.4262 144.496C28.0521 146.368 27.6987 150.982 28.1346 153.521Z" fill="url(#paint66_linear_8454_39586)"/>
<path d="M31.8926 155.943C34.334 159.018 40.501 159.5 44.501 158C48.501 156.5 51.5379 151.488 53.2723 150.419C53.6314 150.206 53.8355 150.079 53.8355 150.079L53.0235 149.426L51.0758 147.872C49.0584 148.958 48.3104 149.283 44.501 149C43.6342 151.175 40.3162 153.778 38.6691 153.815C35.4771 153.883 33.9095 151.462 33.8273 150.102C33.762 149.077 35.0882 147.813 36.2572 148.163C38.0209 148.698 37.0233 151.556 37.0233 151.556C37.0233 151.556 38.9771 150.152 38.3282 148.106C37.8846 146.704 35.4842 145.285 33.2931 147.032C30.8761 148.955 30.355 154.005 31.8926 155.943Z" fill="url(#paint67_linear_8454_39586)"/>
<path d="M78.5006 165C59.8515 161.673 57.7699 170.286 45.214 166.453C40.9893 165.025 39.0001 162.5 34.237 162.213C31.1165 162.213 28.5099 162.98 26.7814 163.68L24.5001 164.806C24.5001 164.806 28.9034 159.573 34.237 160C39.6378 160.433 45.8605 164.516 47.5701 164.806C55.5582 166.159 61.6886 160.267 63.0001 160.5C69.0305 158.336 71.6099 160.151 78.4068 164.934L78.5006 165Z" fill="url(#paint68_linear_8454_39586)"/>
</g>
<defs>
<filter id="filter0_d_8454_39586" x="68" y="49" width="11" height="11" filterUnits="userSpaceOnUse" color-interpolation-filters="sRGB">
<feFlood flood-opacity="0" result="BackgroundImageFix"/>
<feColorMatrix in="SourceAlpha" type="matrix" values="0 0 0 0 0 0 0 0 0 0 0 0 0 0 0 0 0 0 127 0" result="hardAlpha"/>
<feOffset/>
<feGaussianBlur stdDeviation="1.5"/>
<feComposite in2="hardAlpha" operator="out"/>
<feColorMatrix type="matrix" values="0 0 0 0 0.355208 0 0 0 0 0.368125 0 0 0 0 0.3875 0 0 0 0.55 0"/>
<feBlend mode="normal" in2="BackgroundImageFix" result="effect1_dropShadow_8454_39586"/>
<feBlend mode="normal" in="SourceGraphic" in2="effect1_dropShadow_8454_39586" result="shape"/>
</filter>
<linearGradient id="paint0_linear_8454_39586" x1="111.035" y1="-9.50395" x2="44.5894" y2="150.254" gradientUnits="userSpaceOnUse">
<stop stop-color="#E4E6EA"/>
<stop offset="0.260417" stop-color="#B0D5FF"/>
<stop offset="0.473958" stop-color="white"/>
<stop offset="0.65625" stop-color="#A1C9EE"/>
<stop offset="1" stop-color="#6E91AA"/>
</linearGradient>
<linearGradient id="paint1_linear_8454_39586" x1="143.936" y1="87.7829" x2="129.449" y2="136.081" gradientUnits="userSpaceOnUse">
<stop stop-color="#050042"/>
<stop offset="1" stop-color="#1799D0"/>
</linearGradient>
<linearGradient id="paint2_linear_8454_39586" x1="109.836" y1="105.245" x2="119.909" y2="110.436" gradientUnits="userSpaceOnUse">
<stop stop-color="#FE6A00"/>
<stop offset="1" stop-color="#FF380B"/>
</linearGradient>
<linearGradient id="paint3_linear_8454_39586" x1="104.065" y1="103.246" x2="112.092" y2="125.339" gradientUnits="userSpaceOnUse">
<stop stop-color="#00FF59"/>
<stop offset="0.3454" stop-color="#008577"/>
<stop offset="0.7871" stop-color="#0A3CDF"/>
<stop offset="1" stop-color="#008479"/>
</linearGradient>
<linearGradient id="paint4_linear_8454_39586" x1="106.705" y1="118.84" x2="98.3464" y2="122.248" gradientUnits="userSpaceOnUse">
<stop stop-color="#54E8F1"/>
<stop offset="1" stop-color="#35B0B8"/>
</linearGradient>
<linearGradient id="paint5_linear_8454_39586" x1="148.496" y1="101.972" x2="123.242" y2="111.453" gradientUnits="userSpaceOnUse">
<stop stop-color="#54E8F1"/>
<stop offset="1" stop-color="#35B0B8"/>
</linearGradient>
<linearGradient id="paint6_linear_8454_39586" x1="140.099" y1="102.651" x2="121.622" y2="108.278" gradientUnits="userSpaceOnUse">
<stop stop-color="#54E8F1"/>
<stop offset="1" stop-color="#35B0B8"/>
</linearGradient>
<linearGradient id="paint7_linear_8454_39586" x1="106.5" y1="112" x2="138.267" y2="120.028" gradientUnits="userSpaceOnUse">
<stop stop-color="#00FF59"/>
<stop offset="0.3454" stop-color="#008577"/>
<stop offset="0.7871" stop-color="#0A3CDF"/>
<stop offset="1" stop-color="#008479"/>
</linearGradient>
<linearGradient id="paint8_linear_8454_39586" x1="108.908" y1="130.451" x2="118.557" y2="136.884" gradientUnits="userSpaceOnUse">
<stop stop-color="#FE6A00"/>
<stop offset="1" stop-color="#FF380B"/>
</linearGradient>
<linearGradient id="paint9_linear_8454_39586" x1="79.149" y1="114.454" x2="56.8593" y2="122.299" gradientUnits="userSpaceOnUse">
<stop stop-color="#54E8F1"/>
<stop offset="1" stop-color="#35B0B8"/>
</linearGradient>
<linearGradient id="paint10_linear_8454_39586" x1="69.7272" y1="122.48" x2="61.3862" y2="142.768" gradientUnits="userSpaceOnUse">
<stop stop-color="#050042"/>
<stop offset="1" stop-color="#1799D0"/>
</linearGradient>
<linearGradient id="paint11_linear_8454_39586" x1="54.4451" y1="113.331" x2="68.4744" y2="118.977" gradientUnits="userSpaceOnUse">
<stop stop-color="#FE6A00"/>
<stop offset="1" stop-color="#FF380B"/>
</linearGradient>
<linearGradient id="paint12_linear_8454_39586" x1="49.9083" y1="116.637" x2="65.7007" y2="128.174" gradientUnits="userSpaceOnUse">
<stop stop-color="#FE6A00"/>
<stop offset="1" stop-color="#FF380B"/>
</linearGradient>
<linearGradient id="paint13_linear_8454_39586" x1="38.3669" y1="108.805" x2="31.9784" y2="109.571" gradientUnits="userSpaceOnUse">
<stop stop-color="#54E8F1"/>
<stop offset="1" stop-color="#35B0B8"/>
</linearGradient>
<linearGradient id="paint14_linear_8454_39586" x1="32.6662" y1="118.115" x2="50.6372" y2="102.457" gradientUnits="userSpaceOnUse">
<stop stop-color="#0748E1"/>
<stop offset="1" stop-color="#1B1AA4"/>
</linearGradient>
<linearGradient id="paint15_linear_8454_39586" x1="49.1651" y1="103.241" x2="31.4539" y2="125.114" gradientUnits="userSpaceOnUse">
<stop stop-color="#050042"/>
<stop offset="1" stop-color="#1799D0"/>
</linearGradient>
<linearGradient id="paint16_linear_8454_39586" x1="107.065" y1="64.6897" x2="20.5275" y2="100.683" gradientUnits="userSpaceOnUse">
<stop stop-color="#E4E6EA"/>
<stop offset="0.260417" stop-color="#B0D5FF"/>
<stop offset="0.473958" stop-color="white"/>
<stop offset="0.65625" stop-color="#A1C9EE"/>
<stop offset="1" stop-color="#6E91AA"/>
</linearGradient>
<linearGradient id="paint17_linear_8454_39586" x1="82.3166" y1="95.9664" x2="79.1652" y2="113.542" gradientUnits="userSpaceOnUse">
<stop stop-color="#E4E6EA"/>
<stop offset="0.260417" stop-color="#B0D5FF"/>
<stop offset="0.473958" stop-color="white"/>
<stop offset="0.65625" stop-color="#A1C9EE"/>
<stop offset="1" stop-color="#6E91AA"/>
</linearGradient>
<linearGradient id="paint18_linear_8454_39586" x1="100.932" y1="67.9642" x2="93.1658" y2="92.7345" gradientUnits="userSpaceOnUse">
<stop stop-color="#E4E6EA"/>
<stop offset="0.260417" stop-color="#B0D5FF"/>
<stop offset="0.473958" stop-color="white"/>
<stop offset="0.65625" stop-color="#A1C9EE"/>
<stop offset="1" stop-color="#6E91AA"/>
</linearGradient>
<linearGradient id="paint19_linear_8454_39586" x1="91.7362" y1="12.5117" x2="85.2375" y2="32.7272" gradientUnits="userSpaceOnUse">
<stop stop-color="#E4E6EA"/>
<stop offset="0.260417" stop-color="#B0D5FF"/>
<stop offset="0.473958" stop-color="white"/>
<stop offset="0.65625" stop-color="#A1C9EE"/>
<stop offset="1" stop-color="#6E91AA"/>
</linearGradient>
<linearGradient id="paint20_linear_8454_39586" x1="82" y1="12" x2="93.4655" y2="23.5487" gradientUnits="userSpaceOnUse">
<stop stop-color="#E4E6EA"/>
<stop offset="0.260417" stop-color="#B0D5FF"/>
<stop offset="0.473958" stop-color="white"/>
<stop offset="0.65625" stop-color="#A1C9EE"/>
<stop offset="1" stop-color="#6E91AA"/>
</linearGradient>
<linearGradient id="paint21_linear_8454_39586" x1="102.001" y1="39.5" x2="87.0946" y2="36.7316" gradientUnits="userSpaceOnUse">
<stop stop-color="#E4E6EA"/>
<stop offset="0.260417" stop-color="#B0D5FF"/>
<stop offset="0.473958" stop-color="white"/>
<stop offset="0.65625" stop-color="#A1C9EE"/>
<stop offset="1" stop-color="#6E91AA"/>
</linearGradient>
<linearGradient id="paint22_linear_8454_39586" x1="72.499" y1="34" x2="87.869" y2="23.8247" gradientUnits="userSpaceOnUse">
<stop stop-color="#E4E6EA"/>
<stop offset="0.260417" stop-color="#B0D5FF"/>
<stop offset="0.473958" stop-color="white"/>
<stop offset="0.65625" stop-color="#A1C9EE"/>
<stop offset="1" stop-color="#6E91AA"/>
</linearGradient>
<linearGradient id="paint23_linear_8454_39586" x1="96.9698" y1="30.2192" x2="95.8142" y2="44.3616" gradientUnits="userSpaceOnUse">
<stop stop-color="#E4E6EA"/>
<stop offset="0.260417" stop-color="#B0D5FF"/>
<stop offset="0.473958" stop-color="white"/>
<stop offset="0.65625" stop-color="#A1C9EE"/>
<stop offset="1" stop-color="#6E91AA"/>
</linearGradient>
<linearGradient id="paint24_linear_8454_39586" x1="109.5" y1="27.0001" x2="109.173" y2="32.7321" gradientUnits="userSpaceOnUse">
<stop stop-color="#E4E6EA"/>
<stop offset="0.260417" stop-color="#B0D5FF"/>
<stop offset="0.473958" stop-color="white"/>
<stop offset="0.65625" stop-color="#A1C9EE"/>
<stop offset="1" stop-color="#6E91AA"/>
</linearGradient>
<linearGradient id="paint25_linear_8454_39586" x1="136.001" y1="24.4999" x2="135.46" y2="38.6622" gradientUnits="userSpaceOnUse">
<stop stop-color="#E4E6EA"/>
<stop offset="0.260417" stop-color="#B0D5FF"/>
<stop offset="0.473958" stop-color="white"/>
<stop offset="0.65625" stop-color="#A7B6C5"/>
<stop offset="1" stop-color="#597B94"/>
</linearGradient>
<linearGradient id="paint26_linear_8454_39586" x1="61.001" y1="42.9999" x2="104.501" y2="49.4999" gradientUnits="userSpaceOnUse">
<stop stop-color="#E4E6EA"/>
<stop offset="0.260417" stop-color="#B0D5FF"/>
<stop offset="0.473958" stop-color="#CED1D9"/>
<stop offset="0.65625" stop-color="#A1C9EE"/>
<stop offset="1" stop-color="#6E91AA"/>
</linearGradient>
<linearGradient id="paint27_linear_8454_39586" x1="81.999" y1="41.9999" x2="65.9208" y2="203.985" gradientUnits="userSpaceOnUse">
<stop stop-color="#E4E6EA"/>
<stop offset="0.260417" stop-color="#B0D5FF"/>
<stop offset="0.473958" stop-color="white"/>
<stop offset="0.65625" stop-color="#A1C9EE"/>
<stop offset="1" stop-color="#6E91AA"/>
</linearGradient>
<linearGradient id="paint28_linear_8454_39586" x1="95.501" y1="44.5" x2="43.7322" y2="115.784" gradientUnits="userSpaceOnUse">
<stop stop-color="#7BA1BB"/>
<stop offset="0.260417" stop-color="#B0D5FF"/>
<stop offset="0.473958" stop-color="#C0DAF7"/>
<stop offset="0.65625" stop-color="#92B6D8"/>
<stop offset="1" stop-color="#6E91AA"/>
</linearGradient>
<linearGradient id="paint29_linear_8454_39586" x1="96.9098" y1="-60.1389" x2="-62.0518" y2="36.9173" gradientUnits="userSpaceOnUse">
<stop stop-color="#E4E6EA"/>
<stop offset="0.260417" stop-color="#B0D5FF"/>
<stop offset="0.603808" stop-color="white"/>
<stop offset="0.730118" stop-color="#A1C9EE"/>
<stop offset="1" stop-color="#6E91AA"/>
</linearGradient>
<linearGradient id="paint30_linear_8454_39586" x1="98.7283" y1="31.447" x2="48.3098" y2="50.8484" gradientUnits="userSpaceOnUse">
<stop stop-color="#E4E6EA"/>
<stop offset="0.260417" stop-color="#B0D5FF"/>
<stop offset="0.473958" stop-color="white"/>
<stop offset="0.65625" stop-color="#A1C9EE"/>
<stop offset="1" stop-color="#6E91AA"/>
</linearGradient>
<linearGradient id="paint31_linear_8454_39586" x1="82.6565" y1="31.4792" x2="25.7582" y2="57.6318" gradientUnits="userSpaceOnUse">
<stop stop-color="#E4E6EA"/>
<stop offset="0.260417" stop-color="#B0D5FF"/>
<stop offset="0.473958" stop-color="white"/>
<stop offset="0.65625" stop-color="#A1C9EE"/>
<stop offset="1" stop-color="#6E91AA"/>
</linearGradient>
<linearGradient id="paint32_linear_8454_39586" x1="138.409" y1="83.8371" x2="116.832" y2="139.656" gradientUnits="userSpaceOnUse">
<stop stop-color="#E4E6EA"/>
<stop offset="0.260417" stop-color="#B0D5FF"/>
<stop offset="0.473958" stop-color="white"/>
<stop offset="0.65625" stop-color="#A1C9EE"/>
<stop offset="1" stop-color="#6E91AA"/>
</linearGradient>
<linearGradient id="paint33_linear_8454_39586" x1="144.129" y1="64.8513" x2="107.46" y2="108.706" gradientUnits="userSpaceOnUse">
<stop stop-color="#E4E6EA"/>
<stop offset="0.260417" stop-color="#B0D5FF"/>
<stop offset="0.473958" stop-color="white"/>
<stop offset="0.65625" stop-color="#A1C9EE"/>
<stop offset="1" stop-color="#6E91AA"/>
</linearGradient>
<linearGradient id="paint34_linear_8454_39586" x1="68.199" y1="115.563" x2="57.6468" y2="155.677" gradientUnits="userSpaceOnUse">
<stop stop-color="#E4E6EA"/>
<stop offset="0.260417" stop-color="#B0D5FF"/>
<stop offset="0.473958" stop-color="white"/>
<stop offset="0.65625" stop-color="#A1C9EE"/>
<stop offset="1" stop-color="#6E91AA"/>
</linearGradient>
<linearGradient id="paint35_linear_8454_39586" x1="44.999" y1="83.0001" x2="49.089" y2="142.665" gradientUnits="userSpaceOnUse">
<stop stop-color="#E4E6EA"/>
<stop offset="0.260417" stop-color="#B0D5FF"/>
<stop offset="0.473958" stop-color="white"/>
<stop offset="0.65625" stop-color="#A1C9EE"/>
<stop offset="1" stop-color="#6E91AA"/>
</linearGradient>
<linearGradient id="paint36_linear_8454_39586" x1="41.5627" y1="64.8513" x2="4.89316" y2="108.706" gradientUnits="userSpaceOnUse">
<stop stop-color="#E4E6EA"/>
<stop offset="0.260417" stop-color="#B0D5FF"/>
<stop offset="0.473958" stop-color="white"/>
<stop offset="0.65625" stop-color="#A1C9EE"/>
<stop offset="1" stop-color="#6E91AA"/>
</linearGradient>
<linearGradient id="paint37_linear_8454_39586" x1="154.5" y1="135.5" x2="103.137" y2="143.293" gradientUnits="userSpaceOnUse">
<stop stop-color="#E4E6EA"/>
<stop offset="0.260417" stop-color="#B0D5FF"/>
<stop offset="0.473958" stop-color="white"/>
<stop offset="0.65625" stop-color="#A1C9EE"/>
<stop offset="1" stop-color="#6E91AA"/>
</linearGradient>
<linearGradient id="paint38_linear_8454_39586" x1="88.0502" y1="19.9839" x2="88.0502" y2="26.3813" gradientUnits="userSpaceOnUse">
<stop stop-color="#5C7D96"/>
<stop offset="1" stop-color="#385063"/>
</linearGradient>
<linearGradient id="paint39_linear_8454_39586" x1="143.5" y1="68.5001" x2="126.299" y2="87.8263" gradientUnits="userSpaceOnUse">
<stop stop-color="#E4E6EA"/>
<stop offset="0.260417" stop-color="#B0D5FF"/>
<stop offset="0.473958" stop-color="white"/>
<stop offset="0.65625" stop-color="#A1C9EE"/>
<stop offset="1" stop-color="#6E91AA"/>
</linearGradient>
<linearGradient id="paint40_linear_8454_39586" x1="26.5" y1="71.5" x2="59.5023" y2="94.0725" gradientUnits="userSpaceOnUse">
<stop stop-color="#E4E6EA"/>
<stop offset="0.260417" stop-color="#B0D5FF"/>
<stop offset="0.473958" stop-color="#E5E8F0"/>
<stop offset="0.65625" stop-color="#7191AE"/>
<stop offset="0.8954" stop-color="#6E91AA"/>
</linearGradient>
<linearGradient id="paint41_linear_8454_39586" x1="102" y1="102" x2="97.8319" y2="137.203" gradientUnits="userSpaceOnUse">
<stop stop-color="#E4E6EA"/>
<stop offset="0.260417" stop-color="#B0D5FF"/>
<stop offset="0.473958" stop-color="white"/>
<stop offset="0.65625" stop-color="#A1C9EE"/>
<stop offset="1" stop-color="#6E91AA"/>
</linearGradient>
<linearGradient id="paint42_linear_8454_39586" x1="141" y1="119" x2="132.077" y2="145.075" gradientUnits="userSpaceOnUse">
<stop stop-color="#E4E6EA"/>
<stop offset="0.260417" stop-color="#B0D5FF"/>
<stop offset="0.473958" stop-color="white"/>
<stop offset="0.65625" stop-color="#A1C9EE"/>
<stop offset="1" stop-color="#6E91AA"/>
</linearGradient>
<linearGradient id="paint43_linear_8454_39586" x1="134.001" y1="99.0001" x2="114.271" y2="130.878" gradientUnits="userSpaceOnUse">
<stop stop-color="#E4E6EA"/>
<stop offset="0.260417" stop-color="#B0D5FF"/>
<stop offset="0.473958" stop-color="white"/>
<stop offset="0.65625" stop-color="#A1C9EE"/>
<stop offset="1" stop-color="#6E91AA"/>
</linearGradient>
<linearGradient id="paint44_linear_8454_39586" x1="70.8058" y1="107.504" x2="56.5952" y2="129.594" gradientUnits="userSpaceOnUse">
<stop stop-color="#E4E6EA"/>
<stop offset="0.260417" stop-color="#B0D5FF"/>
<stop offset="0.473958" stop-color="white"/>
<stop offset="0.65625" stop-color="#A1C9EE"/>
<stop offset="1" stop-color="#6E91AA"/>
</linearGradient>
<linearGradient id="paint45_linear_8454_39586" x1="107.101" y1="35.4648" x2="106.625" y2="42.1097" gradientUnits="userSpaceOnUse">
<stop stop-color="#E4E6EA"/>
<stop offset="0.260417" stop-color="#B0D5FF"/>
<stop offset="0.473958" stop-color="white"/>
<stop offset="0.65625" stop-color="#A1C9EE"/>
<stop offset="1" stop-color="#6E91AA"/>
</linearGradient>
<linearGradient id="paint46_linear_8454_39586" x1="81.0212" y1="163.669" x2="80.1196" y2="164.388" gradientUnits="userSpaceOnUse">
<stop stop-color="#E4E6EA"/>
<stop offset="0.260417" stop-color="#B0D5FF"/>
<stop offset="0.473958" stop-color="white"/>
<stop offset="0.65625" stop-color="#A1C9EE"/>
<stop offset="1" stop-color="#6E91AA"/>
</linearGradient>
<linearGradient id="paint47_linear_8454_39586" x1="85.999" y1="138" x2="63.6748" y2="155.58" gradientUnits="userSpaceOnUse">
<stop stop-color="#E4E6EA"/>
<stop offset="0.260417" stop-color="#B0D5FF"/>
<stop offset="0.473958" stop-color="white"/>
<stop offset="0.65625" stop-color="#A1C9EE"/>
<stop offset="1" stop-color="#6E91AA"/>
</linearGradient>
<radialGradient id="paint48_radial_8454_39586" cx="0" cy="0" r="1" gradientUnits="userSpaceOnUse" gradientTransform="translate(66.9 72.9) rotate(56.3099) scale(2.16333 1.8741)">
<stop stop-color="#F1F5F8"/>
<stop offset="0.1875" stop-color="white"/>
<stop offset="0.427083" stop-color="#CFD8E6"/>
<stop offset="0.659198" stop-color="#6F7E87"/>
<stop offset="0.833333" stop-color="#C0C3CA"/>
<stop offset="1" stop-color="#3F454D"/>
</radialGradient>
<radialGradient id="paint49_radial_8454_39586" cx="0" cy="0" r="1" gradientUnits="userSpaceOnUse" gradientTransform="translate(113.9 22.9) rotate(56.3099) scale(2.16333 1.8741)">
<stop stop-color="#F1F5F8"/>
<stop offset="0.1875" stop-color="white"/>
<stop offset="0.427083" stop-color="#CFD8E6"/>
<stop offset="0.659198" stop-color="#6F7E87"/>
<stop offset="0.833333" stop-color="#C0C3CA"/>
<stop offset="1" stop-color="#3F454D"/>
</radialGradient>
<radialGradient id="paint50_radial_8454_39586" cx="0" cy="0" r="1" gradientUnits="userSpaceOnUse" gradientTransform="translate(75.2 66.2) rotate(56.3099) scale(2.88444 2.4988)">
<stop stop-color="#F1F5F8"/>
<stop offset="0.1875" stop-color="white"/>
<stop offset="0.427083" stop-color="#CFD8E6"/>
<stop offset="0.659198" stop-color="#6F7E87"/>
<stop offset="0.833333" stop-color="#C0C3CA"/>
<stop offset="1" stop-color="#3F454D"/>
</radialGradient>
<radialGradient id="paint51_radial_8454_39586" cx="0" cy="0" r="1" gradientUnits="userSpaceOnUse" gradientTransform="translate(125.2 41.2) rotate(56.3099) scale(2.88444 2.4988)">
<stop stop-color="#F1F5F8"/>
<stop offset="0.1875" stop-color="white"/>
<stop offset="0.427083" stop-color="#CFD8E6"/>
<stop offset="0.659198" stop-color="#6F7E87"/>
<stop offset="0.833333" stop-color="#C0C3CA"/>
<stop offset="1" stop-color="#3F454D"/>
</radialGradient>
<radialGradient id="paint52_radial_8454_39586" cx="0" cy="0" r="1" gradientUnits="userSpaceOnUse" gradientTransform="translate(72.5 53.5) rotate(56.3099) scale(3.60555 3.1235)">
<stop stop-color="#F1F5F8"/>
<stop offset="0.1875" stop-color="white"/>
<stop offset="0.427083" stop-color="#CFD8E6"/>
<stop offset="0.659198" stop-color="#6F7E87"/>
<stop offset="0.833333" stop-color="#C0C3CA"/>
<stop offset="1" stop-color="#3F454D"/>
</radialGradient>
<radialGradient id="paint53_radial_8454_39586" cx="0" cy="0" r="1" gradientUnits="userSpaceOnUse" gradientTransform="translate(109.2 86.2) rotate(56.3099) scale(2.88444 2.4988)">
<stop stop-color="#F1F5F8"/>
<stop offset="0.1875" stop-color="white"/>
<stop offset="0.427083" stop-color="#CFD8E6"/>
<stop offset="0.659198" stop-color="#6F7E87"/>
<stop offset="0.833333" stop-color="#C0C3CA"/>
<stop offset="1" stop-color="#3F454D"/>
</radialGradient>
<radialGradient id="paint54_radial_8454_39586" cx="0" cy="0" r="1" gradientUnits="userSpaceOnUse" gradientTransform="translate(113.9 91.9) rotate(56.3099) scale(2.16333 1.8741)">
<stop stop-color="#F1F5F8"/>
<stop offset="0.1875" stop-color="white"/>
<stop offset="0.427083" stop-color="#CFD8E6"/>
<stop offset="0.659198" stop-color="#6F7E87"/>
<stop offset="0.833333" stop-color="#C0C3CA"/>
<stop offset="1" stop-color="#3F454D"/>
</radialGradient>
<radialGradient id="paint55_radial_8454_39586" cx="0" cy="0" r="1" gradientUnits="userSpaceOnUse" gradientTransform="translate(105.6 63.6) rotate(56.3099) scale(1.44222 1.2494)">
<stop stop-color="#F1F5F8"/>
<stop offset="0.1875" stop-color="white"/>
<stop offset="0.427083" stop-color="#CFD8E6"/>
<stop offset="0.659198" stop-color="#6F7E87"/>
<stop offset="0.833333" stop-color="#C0C3CA"/>
<stop offset="1" stop-color="#3F454D"/>
</radialGradient>
<radialGradient id="paint56_radial_8454_39586" cx="0" cy="0" r="1" gradientUnits="userSpaceOnUse" gradientTransform="translate(109.6 57.6) rotate(56.3099) scale(1.44222 1.2494)">
<stop stop-color="#F1F5F8"/>
<stop offset="0.1875" stop-color="white"/>
<stop offset="0.427083" stop-color="#CFD8E6"/>
<stop offset="0.659198" stop-color="#6F7E87"/>
<stop offset="0.833333" stop-color="#C0C3CA"/>
<stop offset="1" stop-color="#3F454D"/>
</radialGradient>
<radialGradient id="paint57_radial_8454_39586" cx="0" cy="0" r="1" gradientUnits="userSpaceOnUse" gradientTransform="translate(51.6 89.6) rotate(56.3099) scale(1.44222 1.2494)">
<stop stop-color="#F1F5F8"/>
<stop offset="0.1875" stop-color="white"/>
<stop offset="0.427083" stop-color="#CFD8E6"/>
<stop offset="0.659198" stop-color="#6F7E87"/>
<stop offset="0.833333" stop-color="#C0C3CA"/>
<stop offset="1" stop-color="#3F454D"/>
</radialGradient>
<radialGradient id="paint58_radial_8454_39586" cx="0" cy="0" r="1" gradientUnits="userSpaceOnUse" gradientTransform="translate(44.6 85.6) rotate(56.3099) scale(1.44222 1.2494)">
<stop stop-color="#F1F5F8"/>
<stop offset="0.1875" stop-color="white"/>
<stop offset="0.427083" stop-color="#CFD8E6"/>
<stop offset="0.659198" stop-color="#6F7E87"/>
<stop offset="0.833333" stop-color="#C0C3CA"/>
<stop offset="1" stop-color="#3F454D"/>
</radialGradient>
<radialGradient id="paint59_radial_8454_39586" cx="0" cy="0" r="1" gradientUnits="userSpaceOnUse" gradientTransform="translate(52.6 40.6) rotate(56.3099) scale(1.44222 1.2494)">
<stop stop-color="#F1F5F8"/>
<stop offset="0.1875" stop-color="white"/>
<stop offset="0.427083" stop-color="#CFD8E6"/>
<stop offset="0.659198" stop-color="#6F7E87"/>
<stop offset="0.833333" stop-color="#C0C3CA"/>
<stop offset="1" stop-color="#3F454D"/>
</radialGradient>
<linearGradient id="paint60_linear_8454_39586" x1="106.5" y1="162.5" x2="106.709" y2="147.496" gradientUnits="userSpaceOnUse">
<stop stop-color="#050042"/>
<stop offset="1" stop-color="#1799D0"/>
</linearGradient>
<linearGradient id="paint61_linear_8454_39586" x1="118.909" y1="159.258" x2="125.79" y2="165.671" gradientUnits="userSpaceOnUse">
<stop stop-color="#FE6A00"/>
<stop offset="1" stop-color="#FF380B"/>
</linearGradient>
<linearGradient id="paint62_linear_8454_39586" x1="158.247" y1="155.092" x2="133.884" y2="167.692" gradientUnits="userSpaceOnUse">
<stop stop-color="#54E8F1"/>
<stop offset="1" stop-color="#35B0B8"/>
</linearGradient>
<linearGradient id="paint63_linear_8454_39586" x1="128.724" y1="163.602" x2="139.133" y2="144.711" gradientUnits="userSpaceOnUse">
<stop stop-color="#0748E1"/>
<stop offset="1" stop-color="#1B1AA4"/>
</linearGradient>
<linearGradient id="paint64_linear_8454_39586" x1="153.999" y1="144" x2="122.599" y2="160.48" gradientUnits="userSpaceOnUse">
<stop stop-color="#00FF59"/>
<stop offset="0.3454" stop-color="#008577"/>
<stop offset="0.7871" stop-color="#0A3CDF"/>
<stop offset="1" stop-color="#008479"/>
</linearGradient>
<linearGradient id="paint65_linear_8454_39586" x1="55.0652" y1="160.344" x2="49.1443" y2="167.654" gradientUnits="userSpaceOnUse">
<stop stop-color="#FE6A00"/>
<stop offset="1" stop-color="#FF380B"/>
</linearGradient>
<linearGradient id="paint66_linear_8454_39586" x1="35.5723" y1="151.576" x2="45.1135" y2="155.067" gradientUnits="userSpaceOnUse">
<stop stop-color="#54E8F1"/>
<stop offset="1" stop-color="#35B0B8"/>
</linearGradient>
<linearGradient id="paint67_linear_8454_39586" x1="24.5559" y1="158.207" x2="61.7671" y2="149.627" gradientUnits="userSpaceOnUse">
<stop stop-color="#00FF59"/>
<stop offset="0.3454" stop-color="#008577"/>
<stop offset="0.7871" stop-color="#0A3CDF"/>
<stop offset="1" stop-color="#008479"/>
</linearGradient>
<linearGradient id="paint68_linear_8454_39586" x1="95.5" y1="166" x2="88.1249" y2="186.533" gradientUnits="userSpaceOnUse">
<stop stop-color="#050042"/>
<stop offset="1" stop-color="#1799D0"/>
</linearGradient>
</defs>
</svg>
