<svg width="24" height="24" viewBox="0 0 24 24" fill="none" xmlns="http://www.w3.org/2000/svg">
<path fill-rule="evenodd" clip-rule="evenodd" d="M9.64645 5.64652C9.45118 5.45126 9.1346 5.45126 8.93934 5.64652L3.29289 11.293C2.90237 11.6835 2.90237 12.3167 3.29289 12.7072L8.93934 18.3536C9.1346 18.5489 9.45118 18.5489 9.64645 18.3536L10.3536 17.6465C10.5488 17.4513 10.5488 17.1347 10.3536 16.9394L6.4142 13.0001H20.5C20.7761 13.0001 21 12.7762 21 12.5001V11.5001C21 11.2239 20.7761 11.0001 20.5 11.0001H6.41423L10.3536 7.06074C10.5488 6.86547 10.5488 6.54889 10.3536 6.35363L9.64645 5.64652Z" fill="white"/>
</svg>
