<svg width="100%" height="100%" viewBox="0 0 24 24" fill="none" xmlns="http://www.w3.org/2000/svg">
<path d="M16 2.43018C16.4142 2.43018 16.75 2.76596 16.75 3.18018V5.18018H18C19.1046 5.18018 20 6.07561 20 7.18018V10.5302H4V7.18018C4 6.07561 4.89543 5.18018 6 5.18018H7.25V3.18018C7.25 2.76596 7.58579 2.43018 8 2.43018C8.41421 2.43018 8.75 2.76596 8.75 3.18018V5.18018H15.25V3.18018C15.25 2.76596 15.5858 2.43018 16 2.43018Z" fill="white" fill-opacity="0.8"/>
<path fill-rule="evenodd" clip-rule="evenodd" d="M4 11.8302H20V19.1802C20 20.2847 19.1046 21.1802 18 21.1802H6C4.89543 21.1802 4 20.2847 4 19.1802V11.8302ZM10.85 15.1803C10.85 14.8213 11.141 14.5303 11.5 14.5303H12.5C12.859 14.5303 13.15 14.8213 13.15 15.1803V18.1803C13.15 18.5393 12.859 18.8303 12.5 18.8303C12.141 18.8303 11.85 18.5393 11.85 18.1803V15.8303H11.5C11.141 15.8303 10.85 15.5393 10.85 15.1803Z" fill="white" fill-opacity="0.8"/>
</svg>
