<svg width="100%" height="100%" viewBox="0 0 24 24" fill="none" xmlns="http://www.w3.org/2000/svg">
<path fill-rule="evenodd" clip-rule="evenodd" d="M10.5859 12.0001L4.64652 6.06074C4.45126 5.86547 4.45126 5.54889 4.64652 5.35363L5.35363 4.64652C5.54889 4.45126 5.86547 4.45126 6.06074 4.64652L12.0001 10.5859L17.9394 4.64652C18.1347 4.45126 18.4513 4.45126 18.6465 4.64652L19.3536 5.35363C19.5489 5.54889 19.5489 5.86547 19.3536 6.06074L13.4143 12.0001L19.3536 17.9394C19.5489 18.1347 19.5489 18.4513 19.3536 18.6465L18.6465 19.3536C18.4513 19.5489 18.1347 19.5489 17.9394 19.3536L12.0001 13.4143L6.06074 19.3536C5.86547 19.5489 5.54889 19.5489 5.35363 19.3536L4.64652 18.6465C4.45126 18.4513 4.45126 18.1347 4.64652 17.9394L10.5859 12.0001Z" fill="white" fill-opacity="0.6"/>
</svg>
