<svg width="100%" height="100%" viewBox="0 0 24 24" fill="currentColor" xmlns="http://www.w3.org/2000/svg">

<path fill-rule="evenodd" clip-rule="evenodd" d="M19.7812 21H7.59374C6.92099 21 6.37499 20.454 6.37499 19.7812V19.4156C6.37499 16.9375 8.82468 14.3727 11.8447 14.3654V13.3953C10.7601 12.7603 10.0312 11.583 10.0312 10.2375V8.15625C10.0312 6.138 11.6692 4.5 13.6875 4.5C15.7057 4.5 17.3437 6.138 17.3437 8.15625V10.2375C17.3437 11.583 16.6149 12.7603 15.5302 13.3953V14.3654C18.5503 14.3727 21 16.9375 21 19.4156V19.7812C21 20.454 20.454 21 19.7812 21ZM4.59684 19.4999H2.41772C1.91194 19.4999 1.5 19.088 1.5 18.5822C1.5 16.3775 3.23062 14.0705 5.40731 13.9535V13.254C4.63218 12.8006 4.11178 11.9597 4.11178 10.9993V10.1118C4.11178 8.67004 5.28178 7.50004 6.72356 7.50004C7.27443 7.50004 7.78631 7.67188 8.20799 7.96316C8.20556 8.02654 8.20434 8.08869 8.20312 8.15085C8.20312 9.10757 8.19581 10.0655 8.20434 10.3314C8.21165 10.6398 8.23968 10.9469 8.29696 11.2516C8.38593 11.7257 8.55046 12.2022 8.75643 12.6373C8.55778 12.8835 8.31403 13.0931 8.03981 13.254V13.6147C7.84603 13.733 7.65712 13.8609 7.47553 13.9986C6.20193 14.9529 5.25862 16.8235 4.82353 18.3555C4.7175 18.7297 4.64194 19.1136 4.59684 19.4999Z" />

</svg>
