<svg width="176" height="176" viewBox="0 0 176 176" fill="none" xmlns="http://www.w3.org/2000/svg">
    <g clip-path="url(#clip0_7076_104337)">
        <path
            d="M88.349 161.999C129.424 161.999 162.721 128.701 162.721 87.6262C162.721 46.5514 129.424 13.2538 88.349 13.2538C47.2742 13.2538 13.9766 46.5514 13.9766 87.6262C13.9766 128.701 47.2742 161.999 88.349 161.999Z"
            fill="#040803" />
        <path
            d="M79.5009 138.438L73.5264 127.968L80.5841 116.858L81.2517 100.462L87.6263 92.515L91.7126 85.4728L105.617 59.2931L152.956 95.3536L105.617 125.32L79.5009 138.438Z"
            fill="#84003F" />
        <path
            d="M42.4944 144.034L40.6892 141.496C40.6892 141.496 56.0109 122.151 71.7994 114.97L80.936 112.799L73.527 127.968L79.5019 138.438L67.0459 141.496V129.773L42.4944 144.034Z"
            fill="#005B2A" />
        <path d="M119.472 116.893L118.536 126.128L135.867 125.32V108.635L119.472 116.893Z" fill="#030B03" />
        <path
            d="M42.4941 144.034C42.4941 144.034 54.5892 134.647 67.0452 129.773V141.496L52.7467 150.59C52.7467 150.59 49.1735 148.908 42.4941 144.034Z"
            fill="#2182D9" />
        <path
            d="M98.8175 131.578C98.8175 131.578 98.8175 137.535 98.8175 145.298C98.8175 153.06 98.8175 160.642 98.8175 160.642C98.8175 160.642 81.6679 161.725 76.7938 160.642C71.9197 159.559 63.0542 157.26 63.0542 157.26C63.0542 157.26 84.6418 137.355 98.8175 131.578Z"
            fill="#2182D9" />
        <path
            d="M98.8173 134.828C98.8173 134.828 78.5649 148.196 78.3323 160.878C78.3323 160.878 66.7016 156.71 67.7071 149.249C68.7127 141.788 98.8173 134.828 98.8173 134.828Z"
            fill="url(#paint0_linear_7076_104337)" />
        <path
            d="M111.032 40.4746C111.032 40.4746 140.397 62.5392 157.005 69.4387L130.769 78.1114C130.769 78.1114 123.789 76.0181 118.975 69.4387C114.161 62.8594 105.616 53.4722 105.616 53.4722L111.032 40.4746Z"
            fill="url(#paint1_linear_7076_104337)" />
        <path
            d="M112.122 100.559C112.122 100.559 120.306 101.462 137.636 102.184L138.64 99.6108L111.109 95.2931L112.122 100.559Z"
            fill="#050503" />
        <path
            d="M105.616 91.0206C105.616 91.0206 127.64 73.2092 159.412 67.1917L159.942 83.7124C159.942 83.7124 123.548 92.7053 105.616 91.0206Z"
            fill="url(#paint2_linear_7076_104337)" />
        <path
            d="M98.8174 131.578L119.758 119.844V124.899L133.839 124.718V109.915L157.006 95.2931L159.413 100.408C159.413 100.408 156.832 118.761 143.169 136.272C129.506 153.782 103.697 160.391 98.8174 160.642V131.578Z"
            fill="url(#paint3_linear_7076_104337)" />
        <path d="M119.472 154.123V128.87H127.159V150.03L119.472 154.123Z" fill="#1111AA" />
        <path d="M128.423 128.87L148.858 127.968C148.858 127.968 143.046 140.383 128.423 149.249V128.87Z"
            fill="#005B2A" />
        <path
            d="M159.413 95.3534C159.413 95.3534 122.586 119.664 117.291 123.034C111.995 126.403 92.2584 139.401 83.3525 143.974C74.4466 148.547 64.0969 157.934 64.0969 157.934"
            stroke="#050503" stroke-width="3" stroke-miterlimit="10" />
        <path
            d="M51.822 149.991C51.822 149.991 70.5433 138.634 75.7449 135.166C80.9465 131.698 99.2392 125.44 105.016 122.311C110.793 119.182 159.413 83.9202 159.413 83.9202V95.3534C159.413 95.3534 122.587 119.664 117.291 123.034C111.996 126.403 92.2591 139.401 83.3532 143.974C74.4473 148.547 64.0976 157.934 64.0976 157.934L51.822 149.991Z"
            fill="url(#paint4_linear_7076_104337)" />
        <path
            d="M128.423 128.87C128.423 128.87 129.181 123.274 138.64 123.274C148.1 123.274 151.474 123.274 151.474 123.274L148.858 127.968L128.423 128.87Z"
            fill="#0063D0" />
        <path
            d="M106.712 93.4256C106.712 93.4256 122.357 103.294 159.425 99.9244L160.463 83.7124C160.463 83.7124 125.246 90.7578 105.629 90.5372L106.712 93.4256Z"
            fill="#E02419" />
        <path d="M159.944 83.7124C159.944 83.7124 125.765 91.0333 106.148 90.8131" stroke="#050503" stroke-width="2"
            stroke-miterlimit="10" />
        <path
            d="M38.5216 140.243L40.0416 142.428C40.0416 142.428 48.8114 134.286 53.1439 130.676C57.4765 127.065 64.3363 122.371 67.0442 120.205C69.752 118.039 80.9343 114.428 80.9343 114.428L85.4575 110.753C85.4575 110.753 92.2816 103.386 93.3647 100.678C93.3647 100.678 88.873 97.5615 87.6252 97.0922C86.3774 96.6228 85.0015 95.2935 85.0015 95.2935L38.5216 140.243Z"
            fill="#050503" />
        <path
            d="M76.7035 125.17C76.7035 125.17 77.0645 123.003 82.751 124.177C88.4375 125.35 92.7873 127.317 95.8389 125.17C98.2759 123.455 97.8246 120.927 97.6134 114.88C97.4022 108.829 97.5539 107.659 97.5539 107.659L80.5847 116.858L76.7035 125.17Z"
            fill="#1B1AA4" />
        <path
            d="M87.2464 55.5178C87.2464 55.5178 81.3068 66.8304 71.7994 77.3008C71.7994 77.3008 87.6854 74.8937 92.9809 71.6443L94.9063 54.4343L87.2464 55.5178Z"
            fill="url(#paint5_linear_7076_104337)" />
        <path
            d="M26.5636 126.644C26.5636 126.644 34.6109 117.618 37.7401 114.609C40.8693 111.6 48.9325 104.018 53.3853 99.3248C57.838 94.6312 71.2476 78.625 71.2476 78.625C71.2476 78.625 78.6014 77.1328 82.3718 75.9272L54.7695 105.102L37.6199 119.207L28.9548 128.871L26.5636 126.644Z"
            fill="#E03128" />
        <path
            d="M92.0354 73.3296C92.0354 73.3296 82.3291 76.1537 76.7026 78.1113C76.7026 78.1113 72.4736 80.9115 68.4653 86.6883C64.457 92.465 59.2821 97.1586 55.3106 102.454C51.3391 107.749 43.8287 109.583 39.6052 114.489C35.5434 119.207 28.9543 128.87 28.9543 128.87L34.5065 135.941L53.265 116.893L79.8621 91.2353L87.626 81.513L95.748 78.1235L92.0354 73.3296Z"
            fill="url(#paint6_linear_7076_104337)" />
        <path
            d="M15.9568 92.515C15.9568 92.515 31.3615 88.4937 38.5221 86.3274C45.6827 84.1611 60.4072 80.1846 67.7065 79.2137L49.0523 98.2419L35.2128 114.97L25.5848 121.71C25.5848 121.71 16.5586 108.812 15.9568 92.515Z"
            fill="url(#paint7_linear_7076_104337)" />
        <path
            d="M15.4758 83.0685C15.4758 83.0685 15.235 81.5132 15.9571 80.5503C15.9571 80.5503 31.0007 79.6819 41.8321 79.2133C52.6635 78.7447 69.0275 77.7641 71.7988 77.3008C74.5702 76.8376 91.2873 72.5109 91.2873 72.5109L92.0354 74.2923L65.5401 80.1621L37.0179 83.0685H15.4758Z"
            fill="url(#paint8_linear_7076_104337)" />
        <path
            d="M61.2693 104.996C61.2693 104.996 50.1448 111.59 44.8486 119.814C38.5715 129.563 32.085 134.827 32.085 134.827L38.5235 140.243L94.9068 80.3017L93.1384 74.8441C93.1384 74.8441 66.6251 78.3112 61.2693 104.996Z"
            fill="#050503" />
        <path
            d="M20.4841 114.356C20.4841 114.356 25.2979 121.577 23.7335 123.021L50.0154 101.973L68.4656 80.7912L67.7066 79.2137C67.7066 79.2137 59.0087 82.4762 53.6696 88.975C48.3304 95.4738 36.8745 112.497 20.4841 114.356Z"
            fill="#1B1AA4" />
        <path
            d="M22.887 122.823C22.887 122.823 38.7029 111.059 42.4939 107.659C46.2849 104.259 56.8754 93.9095 59.5233 89.938C62.1712 85.9665 67.7071 79.2139 67.7071 79.2139L71.2479 78.625L70.5955 81.3931L49.6549 105.102L35.9351 117.618L25.9205 127.968L22.887 122.823Z"
            fill="#160C0D" />
        <path
            d="M123.226 74.0999C123.226 74.0999 124.129 73.5584 124.873 71.9337C129.114 69.1356 133.686 62.7292 135.086 60.7485C137.614 57.1727 139.238 54.788 142.127 53.9738C145.015 53.1597 142.442 46.011 142.442 46.011L122.324 69.0453L110.203 63.9906L107.701 65.7959C107.701 65.7959 108.261 67.5721 114.381 71.5726C120.501 75.5732 123.226 74.0999 123.226 74.0999Z"
            fill="#040803" />
        <path
            d="M96.9399 84.1961C96.9399 84.1961 87.3852 76.6867 87.6257 69.7066C87.8661 62.7265 89.1233 60.1707 88.3478 59.2934C87.5722 58.4157 79.787 59.6627 75.3339 62.5511C70.8808 65.4394 57.4076 60.057 50.7438 62.2287C50.7438 62.2287 48.6978 64.1541 45.3281 65.117C41.9585 66.0799 33.7747 65.117 36.6631 67.8852C36.6631 67.8852 32.4374 67.0428 33.4671 65.3578C34.4968 63.6728 77.9428 52.24 77.9428 52.24L98.4021 54.4359L96.9399 84.1961Z"
            fill="#050503" />
        <path
            d="M114.509 45.3893L114.523 47.2137C114.523 47.2137 111.257 48.9806 110.447 49.6811C109.831 50.214 109.653 52.1477 109.653 52.1477C109.653 52.1477 117.687 59.5853 120.476 64.8114L97.1593 47.6097C97.1593 47.6097 98.7147 45.6753 98.4035 44.4387C97.8041 42.0565 92.0364 31.5862 99.3754 31.9418C111.341 32.5217 114.509 45.3893 114.509 45.3893Z"
            fill="#040803" />
        <path d="M15.4757 83.0685L15.957 92.5145L63.29 80.3914C63.29 80.3914 43.3733 81.8749 15.4757 83.0685Z"
            fill="#E0B507" />
        <path
            d="M93.5958 79.3351C93.5958 79.3351 83.8335 77.4216 74.2658 86.6283C64.6981 95.8349 63.6839 105.362 63.6839 105.362C63.6839 105.362 50.4364 114.609 47.548 119.122C44.6597 123.635 36.3556 133.564 33.4673 134.828L38.5219 140.244C38.5219 140.244 53.5053 126.704 56.2131 123.816C58.921 120.928 82.546 97.2791 92.0353 92.9466C92.0353 92.9466 99.3725 86.8972 93.5958 79.3351Z"
            fill="url(#paint9_linear_7076_104337)" />
        <path
            d="M86.8081 81.9569C84.6989 83.4488 76.2252 95.6178 91.05 101.595C91.4241 101.745 91.4548 102.262 91.0966 102.447C88.9441 103.561 82.3232 105.441 80.9592 107.659C79.2269 110.477 73.4563 111.249 70.4409 117.382C67.4254 123.515 63.9096 125.558 65.5411 128.417C66.8618 130.731 75.1911 135.865 78.3181 137.737C78.6983 137.965 79.0049 137.617 79.0005 137.174C78.8655 123.803 77.1133 118.532 91.1038 113.284C97.5236 110.876 104.158 107.717 109.653 104.909C111.563 103.932 113.949 103.414 115.607 102.803C117.609 102.064 119.295 99.8189 120.467 99.6142C120.776 99.56 113.409 95.894 113.243 95.6279C102.446 78.3645 89.1549 80.2968 86.8081 81.9569Z"
            fill="#050503" />
        <path
            d="M87.6266 83.3181C87.6266 83.3181 81.0661 91.2611 92.4993 98.482C92.4993 98.482 97.1929 100.889 98.7573 101.37C98.7573 101.37 92.8603 102.694 90.2124 105.462C87.5649 108.23 78.2979 114.729 77.5758 115.09C76.8537 115.451 75.1687 121.108 72.1602 123.514C69.1516 125.921 67.9478 128.208 68.6699 128.93C69.392 129.652 79.5013 138.437 79.5013 138.437C79.5013 138.437 80.805 138.437 78.4181 130.855C77.2148 128.93 76.974 125.681 77.5758 124.597C78.1777 123.514 80.8252 117.738 81.9084 117.136C82.9915 116.534 93.9431 110.396 97.5535 109.073C101.164 107.749 107.783 104.259 108.866 103.296C109.949 102.333 112.236 102.453 112.958 101.13C113.68 99.8056 115.605 99.2041 115.605 99.2041C115.605 99.2041 112.958 97.3988 111.995 97.0378C111.033 96.6767 102.25 80.9113 87.6266 83.3181Z"
            fill="url(#paint10_linear_7076_104337)" />
        <path
            d="M39.0647 60.4525C39.0647 60.4525 44.2998 60.633 63.6158 52.1485C63.6158 52.1485 65.3007 52.2687 66.3839 52.1485C67.467 52.0282 79.4212 46.7808 83.8743 45.9384C92.1784 44.8553 96.4506 48.2852 97.7746 48.2852C99.0985 48.2852 100.563 44.4463 99.6 42.7616C98.6371 41.0766 96.7117 34.0966 97.3135 32.8932C97.9154 31.6898 107.664 30.4861 111.876 36.9849C116.088 43.4837 114.523 47.2144 114.523 47.2144L108.265 49.0196C108.265 49.0196 107.062 50.9451 107.784 51.908C108.506 52.8709 120.059 61.6562 120.902 65.9888C120.902 65.9888 121.985 67.4329 122.827 65.9888C123.669 64.5446 129.326 58.6476 132.455 55.9997C135.584 53.3522 137.751 49.793 137.871 49.2861C137.991 48.7788 138.352 44.8073 139.074 44.8073C139.796 44.8073 142.444 46.0107 142.444 46.0107C142.444 46.0107 143.527 49.9822 143.046 51.4264C142.564 52.8706 141 52.2687 139.074 54.3147C137.149 56.3608 129.446 67.4326 124.753 70.3209C124.753 70.3209 123.068 71.8854 122.707 72.4872C122.346 73.0891 121.142 73.3295 119.216 72.4872C117.291 71.6449 109.949 65.6274 109.949 65.6274C109.949 65.6274 108.746 71.8929 107.903 73.0324C107.061 74.1719 95.9437 81.8624 95.9437 81.8624C95.9437 81.8624 90.336 75.7778 91.1169 69.4389C91.8979 63.1 92.4994 57.2031 93.9435 55.7589C95.3877 54.3147 77.3355 58.4065 72.5216 61.6559C72.5216 61.6559 56.8765 60.693 52.905 60.4525C48.9335 60.2117 49.8964 62.1375 48.4522 62.6188C47.008 63.1 42.1942 65.5071 40.1482 65.3869C38.1021 65.2667 35.2138 65.5071 35.5748 66.47C35.9359 67.4329 36.476 68.155 35.5441 67.9142C34.6123 67.6734 32.085 65.9888 32.085 65.9888V62.6188C32.085 62.6188 34.8531 60.5727 35.5752 59.7304C36.2969 58.8881 39.0647 60.4525 39.0647 60.4525Z"
            fill="url(#paint11_linear_7076_104337)" />
        <path
            d="M63.6161 52.1486C63.6161 52.1486 58.0452 55.3853 57.3231 57.3108C57.3231 57.3108 67.8945 57.7809 71.5747 53.9354C71.5747 53.9354 65.456 52.402 63.6161 52.1486Z"
            fill="#E02110" />
        <path
            d="M47.548 119.122C44.6597 123.635 36.3556 133.564 33.4673 134.827L38.5219 140.243C38.5219 140.243 49.2229 130.573 54.1725 125.834C57.5515 122.477 60.5099 119.803 61.3902 118.607C64.1312 114.882 57.3634 114.97 57.3634 114.97L63.6146 105.402C63.6146 105.402 50.4364 114.609 47.548 119.122Z"
            fill="url(#paint12_linear_7076_104337)" />
        <path
            d="M112.959 101.13C113.681 99.8062 115.606 99.2047 115.606 99.2047C115.606 99.2047 112.959 97.3995 111.996 97.0384C111.534 96.8651 109.271 93.1456 105.427 89.5886L103.698 93.88C103.698 93.88 110.514 99.3246 108.866 103.297C109.95 102.334 112.237 102.454 112.959 101.13Z"
            fill="#E4CE01" />
        <path
            d="M74.6432 86.2593C74.4861 86.4041 74.3283 86.5441 74.1727 86.694C68.0685 92.5682 65.4206 98.5846 64.3014 102.174C62.6756 108.712 63.1446 113.553 63.2341 116.783C68.0945 112.069 74.6392 105.938 80.5921 100.995C78.1081 96.9567 75.9263 90.5109 74.6432 86.2593Z"
            fill="#E02419" />
        <path
            d="M103.699 93.8796C103.699 93.8796 104.954 92.2069 105.948 90.0807C101.769 86.0522 95.557 82.0131 87.6267 83.3187C87.6267 83.3187 85.5373 85.8493 85.7723 89.3518C88.2195 89.1521 96.4243 88.929 103.699 93.8796Z"
            fill="url(#paint13_linear_7076_104337)" />
        <path
            d="M98.8305 71.2112C95.0178 70.7176 91.068 74.0995 91.068 74.0995C93.7758 83.4867 96.3031 82.223 96.3031 82.223C98.6644 74.0996 101.284 71.5289 98.8305 71.2112Z"
            fill="#84003F" />
        <path
            d="M108.037 72.8361C108.037 72.8361 106.413 73.5582 100.455 67.4204C95.0397 62.1853 94.5097 78.1915 94.8592 81.3207C95.2083 84.4495 103.163 79.5155 108.037 72.8361Z"
            fill="url(#paint14_linear_7076_104337)" />
        <path
            d="M75.7351 53.4592C85.8444 51.7742 89.3328 49.3675 93.3653 49.3675C96.7707 49.3675 97.7542 49.9589 98.4489 47.9038C95.9681 49.4433 92.3577 45.2162 83.6926 46.1188C79.2398 46.9611 67.4658 52.028 66.3826 52.1483C65.2995 52.2685 63.6145 52.1483 63.6145 52.1483C63.6145 52.1483 65.6259 55.1442 75.7351 53.4592Z"
            fill="url(#paint15_linear_7076_104337)" />
        <path
            d="M94.8163 53.7399C94.8163 53.7399 95.581 70.6697 95.7616 73.9191C95.9421 77.1685 94.04 81.0193 91.2485 74.6412C88.457 68.2632 94.8163 53.7399 94.8163 53.7399Z"
            fill="url(#paint16_linear_7076_104337)" />
        <path
            d="M100.073 32.0033V44.4171C100.073 44.4171 102.913 37.2731 108.822 33.9659C105.956 32.1275 102.461 31.7754 100.073 32.0033Z"
            fill="#0173C0" />
        <path
            d="M100.072 44.4175C101.57 41.663 101.627 35.5448 101.512 31.9426C99.2718 31.9271 97.5543 32.4095 97.3127 32.8925C96.7109 34.0959 98.6367 41.0763 99.5992 42.761C99.8592 43.2163 100.01 43.8037 100.072 44.4175Z"
            fill="#E02110" />
        <path
            d="M94.8605 48.6461C94.8605 48.6461 111.259 50.2575 93.7774 63.4489C89.5789 67.9132 93.2358 58.5748 94.8605 48.6461Z"
            fill="#0AAC3B" />
        <path
            d="M108.132 49.2532C105.62 45.8958 100.072 44.417 100.072 44.417C100.238 46.0767 99.7235 47.9357 98.7574 47.9357C98.5757 47.9357 98.2443 47.8729 97.8038 47.7693C102.43 48.925 105.885 50.5927 107.605 51.5299C107.396 50.7591 107.884 49.7124 108.132 49.2532Z"
            fill="#0573D9" />
        <path
            d="M108.4 52.4371C108.4 52.4371 109.102 58.299 112.085 60.6155C115.069 62.932 114.537 61.1022 114.537 61.1022C114.537 61.1022 114.357 54.6034 108.4 52.4371Z"
            fill="#0573D9" />
        <path
            d="M123.15 69.2421C122.375 67.4795 120.213 66.2223 118.519 65.4833C116.528 64.6139 111.696 64.7168 111.617 61.8414C111.6 61.2543 110.709 61.2515 110.703 61.8414C110.679 64.0979 112.655 65.1515 114.593 65.6461C116.113 66.0339 117.557 66.3837 118.932 67.1842C120.247 67.9492 121.203 69.1277 122.467 69.9256C122.93 70.2177 123.334 69.6606 123.15 69.2421Z"
            fill="#040803" />
        <path
            d="M97.0336 52.6412C94.5792 53.663 91.9368 54.9194 90.1669 56.9738C89.8427 57.35 90.2442 57.9002 90.7002 57.6648C93.0235 56.4654 95.1136 54.8209 97.438 53.6002C97.9529 53.3297 97.5893 52.4098 97.0336 52.6412Z"
            fill="#040803" />
        <path
            d="M106.408 37.9893C106.101 37.6232 105.475 38.1041 105.743 38.502C108.057 41.9316 108.2 45.3835 107.838 49.3489C107.797 49.7962 108.521 50.0016 108.705 49.5839C110.4 45.7464 108.98 41.0596 106.408 37.9893Z"
            fill="#040803" />
        <path
            d="M102.082 34.3855C102.058 34.0841 101.622 34.0772 101.608 34.3855C101.507 36.6684 101.231 38.9788 100.737 41.2104C100.277 43.2868 99.4129 45.2201 98.8973 47.2655C98.7576 47.8208 99.5266 48.1573 99.8252 47.6568C102.067 43.9031 102.434 38.6361 102.082 34.3855Z"
            fill="#040803" />
        <path
            d="M97.1587 47.6104C96.9854 47.7137 96.8049 47.8032 96.6215 47.887C92.7276 44.8816 86.93 44.9697 82.3826 46.0734C76.273 47.5563 70.7414 50.7212 64.6557 52.2863C64.0253 52.178 63.6267 52.1166 63.6158 52.148C61.333 53.2351 59.4931 54.0536 57.4904 55.6072C55.8332 56.8925 54.4085 58.3688 52.6704 59.4444C48.5249 58.9249 44.7957 61.1352 40.6769 61.3272C40.5122 61.3348 40.5147 61.5681 40.6769 61.5811C42.7684 61.7493 44.6541 61.2254 46.6828 60.8099C48.0306 60.5337 49.3174 60.4615 50.6117 60.4557C50.4435 60.6005 50.5038 60.9135 50.7713 60.9185C51.5663 60.9344 52.2844 60.7694 52.9499 60.4875C53.2401 60.494 53.5329 60.4997 53.8286 60.5037C54.198 60.5088 54.3309 60.0737 54.1471 59.8314C55.1057 59.1949 55.9729 58.3667 56.8455 57.5901C59.1118 55.5733 61.425 54.5085 64.0061 52.9575C64.0993 52.9456 64.1921 52.9322 64.2849 52.9192C69.1572 55.6632 74.8108 54.5114 79.9752 52.8243C82.9939 51.8379 86.0129 50.9627 89.1331 50.3536C90.6924 50.0493 92.2601 49.7879 93.8299 49.5442C95.1892 49.3333 96.432 49.9955 97.6848 49.4131C97.7935 49.3626 99.9327 48.0671 99.8251 47.6566C99.694 47.1559 97.2865 47.5342 97.1587 47.6104ZM90.1675 49.0015C87.2643 49.494 84.3752 50.1157 81.5735 51.0302C78.6805 51.9747 75.8156 53.1514 72.7398 53.3149C71.2487 53.394 68.3733 52.9322 66.2471 52.5647C76.0798 50.4042 85.6234 43.0349 95.2477 48.3462C93.6295 48.7264 91.8124 48.7221 90.1675 49.0015Z"
            fill="#040803" />
        <path
            d="M75.2912 61.5202C69.5156 60.1753 64.1273 56.1222 57.9979 56.9447C57.5087 57.0104 57.4697 57.7549 57.9979 57.7401C64.1797 57.5689 69.0989 62.2084 75.1656 62.451C75.6963 62.4723 75.8133 61.6419 75.2912 61.5202Z"
            fill="#040803" />
        <path
            d="M36.7947 59.9274C35.9589 60.1545 35.226 60.7708 34.5483 61.2889C33.8876 61.794 33.0904 62.3378 32.6322 63.0414C32.5503 63.1674 32.7084 63.3032 32.829 63.2382C33.5962 62.8252 34.2411 62.1507 34.9682 61.6608C35.6397 61.208 36.4247 60.864 37.0171 60.309C37.1861 60.1509 37.0099 59.8689 36.7947 59.9274Z"
            fill="#040803" />
        <path
            d="M37.1488 61.1996C36.383 61.4252 35.7378 61.961 35.0804 62.3997C34.3377 62.895 33.595 63.3904 32.8524 63.8854C32.6726 64.0052 32.8321 64.2869 33.0231 64.1778C33.7968 63.7359 34.5706 63.2936 35.3446 62.8517C36.0303 62.46 36.8029 62.122 37.3466 61.5393C37.4806 61.3952 37.3499 61.1404 37.1488 61.1996Z"
            fill="#040803" />
        <path
            d="M46.4435 62.3159C45.1079 62.3982 43.8057 62.7455 42.4662 62.8087C41.5953 62.8499 40.7324 62.791 39.8937 62.534C39.4107 62.3859 38.9334 62.052 38.4116 62.0354C36.9292 61.9884 35.2424 63.5084 34.0809 64.484C34.0795 64.4349 34.0751 64.3876 34.0748 64.3377C34.0722 64.0446 33.6307 63.8886 33.4913 64.1796C33.1498 64.893 33.161 65.7256 33.4635 66.4549C33.7426 67.1279 34.2986 67.9608 35.0918 68.0092C35.4348 68.0302 35.6081 67.6316 35.4644 67.3597C35.2059 66.8701 34.69 66.5827 34.4333 66.0686C34.2621 65.7256 34.1733 65.3783 34.125 65.0194C35.0427 64.3688 36.0078 63.6832 37.0447 63.2384C38.4412 62.639 39.2381 63.2409 40.5523 63.5315C42.4965 63.9612 44.6841 63.7669 46.5492 63.0965C46.9449 62.9549 46.92 62.2863 46.4435 62.3159Z"
            fill="#040803" />
        <path
            d="M143.585 50.6469C143.379 50.5765 143.14 50.6072 142.912 50.6848C142.847 50.6801 142.781 50.6892 142.718 50.7274C142.688 50.6159 142.647 50.5094 142.596 50.4094C142.662 50.2855 142.732 50.1642 142.797 50.04C142.858 49.9241 142.846 49.7786 142.789 49.6584C143.004 49.532 143.226 49.4161 143.43 49.2753C143.582 49.1695 143.525 48.9395 143.336 48.9283C142.785 48.8955 142.304 49.2035 141.939 49.6241C141.874 49.6504 141.81 49.6761 141.746 49.7024C141.756 49.5273 141.757 49.3486 141.742 49.1522C141.715 48.794 141.294 48.581 141.017 48.8518C140.656 49.2063 140.369 49.5631 140.112 49.9739C140.028 49.7884 139.94 49.6046 139.867 49.4028C139.7 48.9395 139.577 48.7092 139.791 48.1333C139.935 47.7441 140.217 47.3668 140.46 47.0365C140.651 46.7765 140.26 46.5491 140.048 46.7187C139.333 47.2896 138.411 48.2254 138.573 49.2302C138.615 49.4912 139.01 50.0028 139.071 50.1678C139.215 50.5592 139.236 50.9989 139.221 51.4098C139.19 52.2503 138.899 53.1013 138.831 53.9508C138.825 54.022 138.842 54.0801 138.868 54.1321C138.285 54.8921 137.791 55.7077 137.349 56.5587C137.165 56.9129 137.647 57.1789 137.875 56.8663C138.763 55.6478 139.777 54.5126 140.892 53.4963C140.964 53.4313 141.039 53.3674 141.116 53.3035C141.289 53.5165 141.681 53.5808 141.899 53.2883C142.356 52.6749 142.808 52.0442 143.178 51.3737C143.366 51.2982 143.551 51.2206 143.705 51.1C143.877 50.9639 143.756 50.7058 143.585 50.6469ZM140.892 52.0221C140.887 52.0247 140.884 52.0279 140.88 52.0304C140.666 52.2142 140.461 52.407 140.257 52.6013C140.403 52.0463 140.451 51.4679 140.379 50.8848C140.441 50.8693 140.503 50.844 140.56 50.7957C140.627 50.7375 140.696 50.6801 140.764 50.622C140.868 50.8325 141.143 50.9296 141.372 50.8924C141.382 50.9672 141.386 51.0383 141.387 51.1073C141.227 51.4149 141.059 51.7181 140.892 52.0221Z"
            fill="#040803" />
        <path
            d="M84.4702 58.5792C82.0797 61.2636 80.1803 64.6087 78.1631 67.5844C76.0026 70.7717 73.562 73.807 71.3928 76.9882C71.1737 77.3095 71.6791 77.5821 71.9044 77.2872C75.3643 73.7388 76.7229 71.4711 78.913 68.4275C81.0442 65.4658 83.5625 62.4027 85.188 59.1331C85.4064 58.6941 84.8352 58.1698 84.4702 58.5792Z"
            fill="#040803" />
        <path
            d="M65.6016 94.6576C62.2464 101.827 61.7092 110.526 62.9656 118.248C63.0223 118.596 63.5971 118.514 63.5805 118.164C63.3999 114.351 63.4476 110.467 63.8812 106.672C64.3376 102.679 65.3178 98.815 66.1738 94.8988C66.2453 94.5717 65.7597 94.3193 65.6016 94.6576Z"
            fill="#040803" />
        <path
            d="M57.445 114.137C53.6096 118.994 50.8317 124.748 50.1049 130.939C50.0688 131.246 50.5613 131.3 50.6367 131.011C52.1806 125.101 54.4205 119.559 58.0429 114.598C58.2956 114.253 57.7132 113.797 57.445 114.137Z"
            fill="#050503" />
        <path
            d="M99.7184 91.0392C95.0743 88.8914 89.9341 88.2758 84.9636 89.5398C84.5329 89.6492 84.608 90.3973 85.0715 90.3377C89.5741 89.7586 94.2623 90.2291 98.4364 92.0798C100.448 92.9719 102.393 94.1695 104.008 95.6696C105.738 97.2756 106.58 99.0537 107.449 101.194C107.659 101.712 108.411 101.661 108.446 101.059C108.716 96.4138 103.39 92.7376 99.7184 91.0392Z"
            fill="#050503" />
        <path
            d="M132.323 59.2346C129.65 61.7591 127.381 64.7875 125.09 67.6546C124.898 67.8954 125.216 68.2369 125.437 68.0015C127.971 65.3164 130.663 62.6227 132.801 59.6036C133.007 59.313 132.566 59.0054 132.323 59.2346Z"
            fill="#040803" />
        <path fill-rule="evenodd" clip-rule="evenodd"
            d="M88 16.3333C48.4196 16.3333 16.3333 48.4196 16.3333 88C16.3333 127.58 48.4196 159.667 88 159.667C127.58 159.667 159.667 127.58 159.667 88C159.667 48.4196 127.58 16.3333 88 16.3333ZM12 88C12 46.0264 46.0264 12 88 12C129.974 12 164 46.0264 164 88C164 129.974 129.974 164 88 164C46.0264 164 12 129.974 12 88Z"
            fill="url(#paint17_linear_7076_104337)" />
    </g>
    <defs>
        <linearGradient id="paint0_linear_7076_104337" x1="71.6613" y1="144.127" x2="86.3629" y2="149.833"
            gradientUnits="userSpaceOnUse">
            <stop stop-color="#2182D9" />
            <stop offset="0.8909" stop-color="#06181B" />
            <stop offset="1" stop-color="#030B03" />
        </linearGradient>
        <linearGradient id="paint1_linear_7076_104337" x1="106.934" y1="51.0894" x2="150.799" y2="77.8601"
            gradientUnits="userSpaceOnUse">
            <stop stop-color="#050042" />
            <stop offset="1" stop-color="#0E8F54" />
        </linearGradient>
        <linearGradient id="paint2_linear_7076_104337" x1="129.504" y1="65.3367" x2="137.119" y2="100.17"
            gradientUnits="userSpaceOnUse">
            <stop stop-color="#00FF59" />
            <stop offset="0.3454" stop-color="#008577" />
            <stop offset="0.7871" stop-color="#0A3CDF" />
            <stop offset="1" stop-color="#008479" />
        </linearGradient>
        <linearGradient id="paint3_linear_7076_104337" x1="140.747" y1="90.1214" x2="117.089" y2="159.568"
            gradientUnits="userSpaceOnUse">
            <stop stop-color="#AB7B60" />
            <stop offset="0.260417" stop-color="#EAC2B5" />
            <stop offset="0.473958" stop-color="white" />
            <stop offset="0.65625" stop-color="#C98763" />
            <stop offset="1" stop-color="#B06342" />
        </linearGradient>
        <linearGradient id="paint4_linear_7076_104337" x1="126.271" y1="78.0628" x2="108.056" y2="161.888"
            gradientUnits="userSpaceOnUse">
            <stop stop-color="#AB7B60" />
            <stop offset="0.260417" stop-color="#EAC2B5" />
            <stop offset="0.473958" stop-color="white" />
            <stop offset="0.65625" stop-color="#C98763" />
            <stop offset="1" stop-color="#B06342" />
        </linearGradient>
        <linearGradient id="paint5_linear_7076_104337" x1="98.3161" y1="52.2565" x2="72.7378" y2="87.0075"
            gradientUnits="userSpaceOnUse">
            <stop stop-color="#050042" />
            <stop offset="1" stop-color="#1799D0" />
        </linearGradient>
        <linearGradient id="paint6_linear_7076_104337" x1="29.5377" y1="131.31" x2="91.4567" y2="73.228"
            gradientUnits="userSpaceOnUse">
            <stop stop-color="#0748E1" />
            <stop offset="1" stop-color="#1B1AA4" />
        </linearGradient>
        <linearGradient id="paint7_linear_7076_104337" x1="51.7656" y1="75.8506" x2="39.5155" y2="123.075"
            gradientUnits="userSpaceOnUse">
            <stop stop-color="#AB7B60" />
            <stop offset="0.260417" stop-color="#EAC2B5" />
            <stop offset="0.473958" stop-color="white" />
            <stop offset="0.65625" stop-color="#C98763" />
            <stop offset="1" stop-color="#B06342" />
        </linearGradient>
        <linearGradient id="paint8_linear_7076_104337" x1="15.4373" y1="77.7898" x2="92.0358" y2="77.7898"
            gradientUnits="userSpaceOnUse">
            <stop stop-color="#FA2A2F" />
            <stop offset="1" stop-color="#DC5255" />
        </linearGradient>
        <linearGradient id="paint9_linear_7076_104337" x1="76.608" y1="74.3369" x2="56.1524" y2="140.442"
            gradientUnits="userSpaceOnUse">
            <stop stop-color="#AB7B60" />
            <stop offset="0.260417" stop-color="#EAC2B5" />
            <stop offset="0.473958" stop-color="white" />
            <stop offset="0.65625" stop-color="#C98763" />
            <stop offset="1" stop-color="#B06342" />
        </linearGradient>
        <linearGradient id="paint10_linear_7076_104337" x1="101.085" y1="78.6864" x2="79.6674" y2="136.41"
            gradientUnits="userSpaceOnUse">
            <stop stop-color="#AB7B60" />
            <stop offset="0.260417" stop-color="#EAC2B5" />
            <stop offset="0.473958" stop-color="white" />
            <stop offset="0.65625" stop-color="#C98763" />
            <stop offset="1" stop-color="#B06342" />
        </linearGradient>
        <linearGradient id="paint11_linear_7076_104337" x1="108.951" y1="27.9911" x2="100.712" y2="86.0293"
            gradientUnits="userSpaceOnUse">
            <stop stop-color="#AB7B60" />
            <stop offset="0.260417" stop-color="#EAC2B5" />
            <stop offset="0.473958" stop-color="white" />
            <stop offset="0.65625" stop-color="#C98763" />
            <stop offset="1" stop-color="#B06342" />
        </linearGradient>
        <linearGradient id="paint12_linear_7076_104337" x1="54.328" y1="102.645" x2="41.0166" y2="139.108"
            gradientUnits="userSpaceOnUse">
            <stop stop-color="#AB7B60" />
            <stop offset="0.260417" stop-color="#EAC2B5" />
            <stop offset="0.473958" stop-color="white" />
            <stop offset="0.65625" stop-color="#C98763" />
            <stop offset="1" stop-color="#B06342" />
        </linearGradient>
        <linearGradient id="paint13_linear_7076_104337" x1="85.7541" y1="88.4741" x2="105.948" y2="88.4741"
            gradientUnits="userSpaceOnUse">
            <stop stop-color="#12AB34" />
            <stop offset="1" stop-color="#04AD40" />
        </linearGradient>
        <linearGradient id="paint14_linear_7076_104337" x1="108.037" y1="66.5179" x2="88.3579" y2="92.8747"
            gradientUnits="userSpaceOnUse">
            <stop stop-color="#AB7B60" />
            <stop offset="0.260417" stop-color="#EAC2B5" />
            <stop offset="0.473958" stop-color="white" />
            <stop offset="0.65625" stop-color="#C98763" />
            <stop offset="1" stop-color="#B06342" />
        </linearGradient>
        <linearGradient id="paint15_linear_7076_104337" x1="78.9313" y1="45.375" x2="80.2861" y2="57.3413"
            gradientUnits="userSpaceOnUse">
            <stop stop-color="#00FF59" />
            <stop offset="0.3454" stop-color="#008577" />
            <stop offset="0.7871" stop-color="#0A3CDF" />
            <stop offset="1" stop-color="#008479" />
        </linearGradient>
        <linearGradient id="paint16_linear_7076_104337" x1="100.316" y1="53.5639" x2="82.5821" y2="63.3416"
            gradientUnits="userSpaceOnUse">
            <stop stop-color="#AB7B60" />
            <stop offset="0.260417" stop-color="#EAC2B5" />
            <stop offset="0.473958" stop-color="white" />
            <stop offset="0.65625" stop-color="#C98763" />
            <stop offset="1" stop-color="#B06342" />
        </linearGradient>
        <linearGradient id="paint17_linear_7076_104337" x1="117.178" y1="-0.0291208" x2="65.3978" y2="163.892"
            gradientUnits="userSpaceOnUse">
            <stop stop-color="#AB7B60" />
            <stop offset="0.260417" stop-color="#EAC2B5" />
            <stop offset="0.473958" stop-color="white" />
            <stop offset="0.65625" stop-color="#C98763" />
            <stop offset="1" stop-color="#B06342" />
        </linearGradient>
        <clipPath id="clip0_7076_104337">
            <rect width="176" height="176" fill="white" />
        </clipPath>
    </defs>
</svg>