<svg width="100%" height="100%" viewBox="0 0 24 24" fill="none" xmlns="http://www.w3.org/2000/svg">
<path d="M5.07929 8.56601L5.96262 14.8045C5.98357 14.9525 6.11022 15.0625 6.25966 15.0625H17.7386C17.8881 15.0625 18.0147 14.9525 18.0357 14.8045L18.919 8.56601C18.9529 8.32657 18.7041 8.14748 18.4878 8.25563L15.2231 9.88798C15.0934 9.95282 14.9359 9.91564 14.8489 9.79965L12.2391 6.31995C12.1191 6.15995 11.8791 6.15995 11.7591 6.31995L9.14937 9.79965C9.06237 9.91564 8.90488 9.95282 8.7752 9.88798L5.51049 8.25563C5.2942 8.14748 5.04539 8.32657 5.07929 8.56601Z" fill="#FFBF3E"/>
<path d="M6.29914 16C6.13346 16 5.99914 16.1343 5.99914 16.3V17.7C5.99914 17.8656 6.13346 18 6.29914 18H17.6991C17.8648 18 17.9991 17.8656 17.9991 17.7V16.3C17.9991 16.1343 17.8648 16 17.6991 16H6.29914Z" fill="#FFBF3E"/>
</svg>
