<svg width="100%" height="100%" viewBox="0 0 112 112" fill="none" xmlns="http://www.w3.org/2000/svg">
<g opacity="0.8">
<rect opacity="0.01" x="0.5" y="0.5" width="111" height="111" fill="#1D2532" stroke="#56BEF9"/>
<path d="M25.1726 86.6483C14.3813 77.9022 10.0649 65.7854 14.3814 52.1165C18.6979 38.4476 22.6829 33.9078 25.1726 24.7788C27.3309 16.8652 28.8462 12.2082 35.9638 13.9876C41.7191 15.4264 42.2947 19.5989 38.8415 30.534C35.3883 41.4691 34.7648 44.6825 35.2444 44.2029L64.0214 15.4265C65.4602 13.9877 70.8403 9.37087 74.8126 12.5487C78.4097 15.4264 76.731 20.1131 76.2514 21.7917L55.3884 42.0448L79.8481 18.304C81.2873 16.8653 85.6038 15.4263 88.4814 18.304C91.3591 21.1818 90.6397 25.4982 89.2005 26.937L64.7408 50.6777L88.4586 27.6564C89.4363 26.7083 93.9049 26.4945 96.395 29.8147C98.5532 32.6923 97.1144 36.2894 95.6752 37.7282L71.2151 61.4689L86.3232 46.8051C87.5222 45.3663 91.922 43.108 95.6756 47.8C98.5532 51.3971 92.7975 57.8718 92.7975 57.8718C92.7975 57.8718 68.337 83.7707 61.8627 88.0872C55.3884 92.4037 39.3748 98.1589 25.1726 86.6483Z" stroke="#56BEF9" stroke-width="4" stroke-linejoin="round"/>
<path d="M77.6907 88.0869C81.2877 86.6481 88.9135 82.3316 90.6401 76.5763" stroke="#56BEF9" stroke-width="4" stroke-linecap="round" stroke-linejoin="round"/>
<path d="M83.4453 96.0008C87.7618 95.2814 97.1142 88.8067 99.2724 81.6125" stroke="#56BEF9" stroke-width="4" stroke-linecap="round" stroke-linejoin="round"/>
</g>
</svg>
