<svg width="100%" height="100%" viewBox="0 0 16 16" fill="none" xmlns="http://www.w3.org/2000/svg">
<path fill-rule="evenodd" clip-rule="evenodd" d="M8 14.5C11.5899 14.5 14.5 11.5899 14.5 8C14.5 4.41015 11.5899 1.5 8 1.5C4.41015 1.5 1.5 4.41015 1.5 8C1.5 11.5899 4.41015 14.5 8 14.5ZM16 8C16 12.4183 12.4183 16 8 16C3.58172 16 0 12.4183 0 8C0 3.58172 3.58172 0 8 0C12.4183 0 16 3.58172 16 8ZM9 8C9 7.44772 8.55228 7 8 7C7.44772 7 7 7.44772 7 8V11C7 11.5523 7.44772 12 8 12C8.55228 12 9 11.5523 9 11V8ZM7.5 4H8.5C8.77614 4 9 4.22386 9 4.5V5.5C9 5.77614 8.77614 6 8.5 6H7.5C7.22386 6 7 5.77614 7 5.5V4.5C7 4.22386 7.22386 4 7.5 4Z" fill="white" fill-opacity="0.6"/>
</svg>
