<svg width="100%" height="100%" viewBox="0 0 24 24" fill="currentColor" xmlns="http://www.w3.org/2000/svg">
<path d="M14.4553 2.5647C14.6548 2.56416 14.8462 2.64309 14.9874 2.78406L15.8571 3.65282C16.2119 4.01054 16.4346 4.51176 16.4346 5.05545L16.4069 5.38888L15.8032 8.3397H19.6175C20.9376 8.3397 22.0039 9.42387 22.0039 10.7397V12.3897C22.0039 12.7038 21.9432 12.9936 21.8386 13.2633L19.4084 18.0151C19.0498 18.879 18.5815 19.4353 17.5909 19.4353H10.2273C8.90723 19.4353 7.84096 18.4578 7.84096 17.142L7.84098 9.9147C7.84098 9.26093 8.10083 8.65746 8.54424 8.22024L13.9244 2.78698C14.0648 2.64524 14.2558 2.56525 14.4553 2.5647Z" />
<path d="M1.99758 9.91474C1.99758 9.50052 2.33337 9.16474 2.74758 9.16474H5.59096C6.00517 9.16474 6.34096 9.50052 6.34096 9.91474L6.34094 18.6853C6.34094 19.0995 6.00515 19.4353 5.59094 19.4353H2.74756C2.33334 19.4353 1.99756 19.0995 1.99756 18.6853L1.99758 9.91474Z" />
</svg>
