<svg width="100%" height="100%" viewBox="0 0 64 64" fill="none" xmlns="http://www.w3.org/2000/svg">
<circle cx="32" cy="32" r="32" fill="#575C70" fill-opacity="0.3"/>
<path d="M28 31C29.1046 31 30 30.1046 30 29C30 27.8954 29.1046 27 28 27C26.8954 27 26 27.8954 26 29C26 30.1046 26.8954 31 28 31Z" fill="#9096A9"/>
<path d="M38 29C38 30.1046 37.1046 31 36 31C34.8954 31 34 30.1046 34 29C34 27.8954 34.8954 27 36 27C37.1046 27 38 27.8954 38 29Z" fill="#9096A9"/>
<path d="M28.2071 38.2071C28.2738 38.1404 28.3391 38.0715 28.4061 38.0008C28.6581 37.7348 28.9331 37.4446 29.3879 37.1616C29.9339 36.822 30.7511 36.5 32 36.5C33.2489 36.5 34.0661 36.822 34.6121 37.1616C35.0669 37.4446 35.3419 37.7348 35.5939 38.0008C35.6609 38.0715 35.7262 38.1405 35.7929 38.2071C36.1834 38.5976 36.8166 38.5976 37.2071 38.2071C37.5976 37.8166 37.5976 37.1834 37.2071 36.7929C37.1787 36.7645 37.142 36.7252 37.0971 36.6772C36.8537 36.4169 36.37 35.8998 35.6686 35.4634C34.808 34.928 33.6253 34.5 32 34.5C30.3747 34.5 29.192 34.928 28.3314 35.4634C27.63 35.8998 27.1463 36.4169 26.9029 36.6772C26.8581 36.7252 26.8213 36.7645 26.7929 36.7929C26.4024 37.1834 26.4024 37.8166 26.7929 38.2071C27.1834 38.5976 27.8166 38.5976 28.2071 38.2071Z" fill="#9096A9"/>
<path fill-rule="evenodd" clip-rule="evenodd" d="M46 32C46 39.732 39.732 46 32 46C24.268 46 18 39.732 18 32C18 24.268 24.268 18 32 18C39.732 18 46 24.268 46 32ZM44 32C44 38.6274 38.6274 44 32 44C25.3726 44 20 38.6274 20 32C20 25.3726 25.3726 20 32 20C38.6274 20 44 25.3726 44 32Z" fill="#9096A9"/>
</svg>
