<svg width="100%" height="100%" viewBox="0 0 24 24" fill="currentColor" xmlns="http://www.w3.org/2000/svg">
<path d="M5.19161 14.4004C5.38688 14.2051 5.70346 14.2051 5.89872 14.4004L6.30649 14.8081C6.50175 15.0034 6.50175 15.32 6.30648 15.5152L3.11371 18.708C2.91844 18.9033 2.60186 18.9033 2.4066 18.708L1.99882 18.3002C1.80356 18.105 1.80356 17.7884 1.99882 17.5931L5.19161 14.4004Z" fill="currentColor"/>
<path d="M8.53639 17.7453C8.73166 17.55 8.73165 17.2334 8.53638 17.0381L8.12855 16.6303C7.93328 16.4351 7.61671 16.4351 7.42145 16.6304L5.61952 18.4323C5.42427 18.6276 5.42427 18.9442 5.61953 19.1394L6.02732 19.5472C6.22258 19.7425 6.53916 19.7425 6.73442 19.5472L8.53639 17.7453Z" fill="currentColor"/>
<path fill-rule="evenodd" clip-rule="evenodd" d="M6.44234 11.8779C6.27644 12.0762 6.2899 12.3682 6.47276 12.551L10.3902 16.4685C10.5726 16.6509 10.8637 16.6648 11.062 16.4999C11.5613 16.0849 12.2519 15.5075 12.8821 14.9718C14.4759 13.6171 16.5269 11.831 18.3687 10.0957C19.2856 9.23187 19.8915 8.15995 19.9729 7.00644C20.0514 5.89408 20.036 4.72178 19.9998 3.81999C19.9942 3.68002 19.9881 3.54694 19.9818 3.42203C19.9691 3.17007 19.7681 2.96901 19.5162 2.95632C19.3912 2.95003 19.2582 2.94394 19.1182 2.93833C18.2164 2.90218 17.0441 2.88676 15.9317 2.96526C14.7783 3.04666 13.7074 3.65218 12.8465 4.57001C11.1798 6.3469 9.39251 8.39803 8.0189 10.0087C7.47282 10.6491 6.87161 11.3646 6.44234 11.8779ZM15.9935 6.94345C15.5099 6.45977 14.7259 6.45977 14.2423 6.94345C13.7587 7.427 13.7587 8.21096 14.2423 8.69464C14.7259 9.17819 15.5099 9.17819 15.9935 8.69464C16.4771 8.21096 16.4771 7.427 15.9935 6.94345Z" fill="currentColor"/>
<path d="M5.14546 7.67947C5.24003 7.49718 5.43645 7.39125 5.64073 7.41238L7.39326 7.59363C7.79302 7.63497 7.98312 8.10715 7.72352 8.41395L4.52234 12.1972C4.28149 12.4818 3.82506 12.4122 3.68002 12.0687L3.40717 11.4225C3.34931 11.2854 3.35547 11.1297 3.42397 10.9977L5.14546 7.67947Z" fill="currentColor"/>
<path d="M14.546 15.2368C14.8527 14.9772 15.3249 15.1673 15.3663 15.567L15.5476 17.3196C15.5687 17.5239 15.4628 17.7203 15.2805 17.8149L11.9623 19.5364C11.8302 19.6049 11.6745 19.611 11.5375 19.5532L10.8913 19.2803C10.5478 19.1353 10.4782 18.6788 10.7628 18.438L14.546 15.2368Z" fill="currentColor"/>
</svg>
