<svg width="100%" height="100%" viewBox="0 0 84 88" fill="none" xmlns="http://www.w3.org/2000/svg">
<g clip-path="url(#clip0_6393_99073)">
<path d="M6 44V16.0807C6 12.487 8.39629 9.33436 11.8588 8.37254L39.8588 0.594765C41.2598 0.205623 42.7402 0.205622 44.1412 0.594764L72.1411 8.37254C75.6037 9.33436 78 12.487 78 16.0807V44M9 68L37.8846 85.5058C40.4168 87.0405 43.5896 87.051 46.1319 85.5332L75.5 68" stroke="#585A62" stroke-linecap="round"/>
<path fill-rule="evenodd" clip-rule="evenodd" d="M6 49H78C79.6569 49 81 50.3431 81 52V60C81 61.6569 79.6569 63 78 63H6C4.34315 63 3 61.6569 3 60V52C3 50.3431 4.34315 49 6 49ZM2 52C2 49.7909 3.79086 48 6 48H78C80.2091 48 82 49.7909 82 52V60C82 62.2091 80.2091 64 78 64H6C3.79086 64 2 62.2091 2 60V52ZM47 54H8V58H47V54Z" fill="white"/>
</g>
<defs>
<clipPath id="clip0_6393_99073">
<rect width="84" height="88" fill="white"/>
</clipPath>
</defs>
</svg>
