<svg width="112" height="112" viewBox="0 0 112 112" fill="none" xmlns="http://www.w3.org/2000/svg">
<g clip-path="url(#clip0_8350_63358)">
<path d="M96.25 77V91C96.25 91.9283 95.8813 92.8185 95.2249 93.4749C94.5685 94.1313 93.6783 94.5 92.75 94.5H82.25C81.3217 94.5 80.4315 94.1313 79.7751 93.4749C79.1187 92.8185 78.75 91.9283 78.75 91V77" stroke="#575C70" stroke-width="2" stroke-linecap="round" stroke-linejoin="round"/>
<path d="M33.25 77V91C33.25 91.9283 32.8813 92.8185 32.2249 93.4749C31.5685 94.1313 30.6783 94.5 29.75 94.5H19.25C18.3217 94.5 17.4315 94.1313 16.7751 93.4749C16.1187 92.8185 15.75 91.9283 15.75 91V77" stroke="#575C70" stroke-width="2" stroke-linecap="round" stroke-linejoin="round"/>
<path d="M7 42H105" stroke="#575C70" stroke-width="2" stroke-linecap="round" stroke-linejoin="round"/>
<path d="M63 56V77" stroke="#575C70" stroke-width="2" stroke-linecap="round" stroke-linejoin="round"/>
<path d="M49 56V77" stroke="#575C70" stroke-width="2" stroke-linecap="round" stroke-linejoin="round"/>
<path d="M96.25 77H15.75V42L18.8125 20.5188C18.9284 19.6837 19.3419 18.9185 19.9769 18.3639C20.6118 17.8093 21.4257 17.5025 22.2688 17.5H89.7313C90.5743 17.5025 91.3882 17.8093 92.0231 18.3639C92.6581 18.9185 93.0716 19.6837 93.1875 20.5188L96.25 42V77Z" stroke="#575C70" stroke-width="2" stroke-linecap="round" stroke-linejoin="round"/>
<path d="M83.875 57.75C83.875 59.614 82.364 61.125 80.5 61.125C78.636 61.125 77.125 59.614 77.125 57.75C77.125 55.886 78.636 54.375 80.5 54.375C82.364 54.375 83.875 55.886 83.875 57.75Z" stroke="#575C70" stroke-width="2"/>
<path d="M34.875 57.75C34.875 59.614 33.364 61.125 31.5 61.125C29.636 61.125 28.125 59.614 28.125 57.75C28.125 55.886 29.636 54.375 31.5 54.375C33.364 54.375 34.875 55.886 34.875 57.75Z" stroke="#575C70" stroke-width="2"/>
</g>
<defs>
<clipPath id="clip0_8350_63358">
<rect width="112" height="112" fill="white"/>
</clipPath>
</defs>
</svg>
