<svg width="100%" height="100%" viewBox="0 0 28 28" fill="currentColor" xmlns="http://www.w3.org/2000/svg">
    <path
        d="M21.1885 14.5002C20.7399 14.5002 20.3024 14.426 19.8833 14.2961V19.2501H8.11411V14.2961C7.69496 14.426 7.25376 14.5002 6.80704 14.5002C6.60666 14.5002 6.40628 14.4853 6.1728 14.4594C6.05221 14.4408 5.91249 14.3814 5.76469 14.3406L5.76506 22.2188C5.76506 23.2025 6.55518 24 7.49679 24H20.4425C21.4172 24 22.1742 23.2025 22.1742 22.2188L22.1755 14.3406C22.0231 14.3808 21.8782 14.4411 21.7196 14.4624C21.5893 14.4853 21.3907 14.5002 21.1885 14.5002ZM23.5453 8.85225L21.4378 5.48724C21.2501 5.1848 20.9153 5 20.5579 5H7.44127C7.084 5 6.74931 5.18476 6.56143 5.48724L4.45321 8.85225C3.36527 10.59 4.32783 13.0047 6.36142 13.283C6.50775 13.3016 6.65813 13.3127 6.8074 13.3127C7.7685 13.3127 8.61966 12.8904 9.20425 12.2377C9.78701 12.8897 10.6437 13.3127 11.5996 13.3127C12.5607 13.3127 13.4119 12.8904 13.9965 12.2377C14.5814 12.8897 15.4344 13.3127 16.3941 13.3127C17.3563 13.3127 18.2063 12.8904 18.7909 12.2377C19.3759 12.8897 20.2289 13.3127 21.1848 13.3127C21.3371 13.3127 21.4831 13.3026 21.6293 13.2833C23.6703 13.0084 24.6372 10.5926 23.5453 8.85225Z" />
</svg>