<svg width="100%" height="100%" viewBox="0 0 84 88" fill="none" xmlns="http://www.w3.org/2000/svg">
<g clip-path="url(#clip0_6393_99083)">
<path fill-rule="evenodd" clip-rule="evenodd" d="M56.2733 5.09444L42.2733 1.11717C42.0946 1.06641 41.9054 1.06641 41.7267 1.11717L27.7267 5.09444C27.2967 5.2166 27 5.60934 27 6.05638V28.8915C27 29.2363 27.1776 29.5567 27.47 29.7395L41.47 38.4895C41.7943 38.6921 42.2057 38.6921 42.53 38.4895L56.53 29.7395C56.8224 29.5567 57 29.2363 57 28.8915V6.05637C57 5.60934 56.7033 5.2166 56.2733 5.09444ZM42.5466 0.155231C42.1893 0.0537251 41.8107 0.0537252 41.4534 0.155231L27.4534 4.1325C26.5934 4.37683 26 5.1623 26 6.05638V28.8915C26 29.581 26.3552 30.222 26.94 30.5875L40.94 39.3375C41.5885 39.7428 42.4115 39.7428 43.06 39.3375L57.06 30.5875C57.6448 30.222 58 29.581 58 28.8915V6.05637C58 5.1623 57.4066 4.37683 56.5466 4.1325L42.5466 0.155231ZM30.2733 53.0944L16.2733 49.1172C16.0946 49.0664 15.9054 49.0664 15.7267 49.1172L1.72672 53.0944C1.2967 53.2166 1 53.6093 1 54.0564V76.8915C1 77.2363 1.17762 77.5567 1.47 77.7395L15.47 86.4895C15.7943 86.6921 16.2057 86.6921 16.53 86.4895L30.53 77.7395C30.8224 77.5567 31 77.2363 31 76.8915V54.0564C31 53.6093 30.7033 53.2166 30.2733 53.0944ZM16.5466 48.1552C16.1893 48.0537 15.8107 48.0537 15.4534 48.1552L1.45345 52.1325C0.593404 52.3768 0 53.1623 0 54.0564V76.8915C0 77.581 0.355239 78.222 0.940002 78.5875L14.94 87.3375C15.5885 87.7428 16.4115 87.7428 17.06 87.3375L31.06 78.5875C31.6448 78.222 32 77.581 32 76.8915V54.0564C32 53.1623 31.4066 52.3768 30.5466 52.1325L16.5466 48.1552ZM68.2733 49.1172L82.2733 53.0944C82.7033 53.2166 83 53.6093 83 54.0564V76.8915C83 77.2363 82.8224 77.5567 82.53 77.7395L68.53 86.4895C68.2057 86.6921 67.7943 86.6921 67.47 86.4895L53.47 77.7395C53.1776 77.5567 53 77.2363 53 76.8915V54.0564C53 53.6093 53.2967 53.2166 53.7267 53.0944L67.7267 49.1172C67.9054 49.0664 68.0946 49.0664 68.2733 49.1172ZM67.4534 48.1552C67.8107 48.0537 68.1893 48.0537 68.5466 48.1552L82.5466 52.1325C83.4066 52.3768 84 53.1623 84 54.0564V76.8915C84 77.581 83.6448 78.222 83.06 78.5875L69.06 87.3375C68.4115 87.7428 67.5885 87.7428 66.94 87.3375L52.94 78.5875C52.3552 78.222 52 77.581 52 76.8915V54.0564C52 53.1623 52.5934 52.3768 53.4534 52.1325L67.4534 48.1552Z" fill="white"/>
</g>
<defs>
<clipPath id="clip0_6393_99083">
<rect width="84" height="88" fill="white"/>
</clipPath>
</defs>
</svg>
